<mxfile host="app.diagrams.net" agent="Mozilla/5.0 (Macintosh; Intel Mac OS X 10_15_7) AppleWebKit/605.1.15 (KHTML, like Gecko) Version/18.2 Safari/605.1.15" version="25.0.1">
  <diagram name="第 1 页" id="FzE7jPSEa5ZRB4kZiVTV">
    <mxGraphModel dx="2850" dy="1038" grid="1" gridSize="10" guides="1" tooltips="1" connect="1" arrows="1" fold="1" page="1" pageScale="1" pageWidth="1100" pageHeight="850" math="0" shadow="0">
      <root>
        <mxCell id="0" />
        <mxCell id="1" parent="0" />
        <UserObject label="" plantUmlData="{&#xa;  &quot;data&quot;: &quot;@startuml\nactor 学生\nactor 教师\nactor 管理员\n\nusecase \&quot;课程选择\&quot; as UC1\nusecase \&quot;退选\&quot; as UC2\nusecase \&quot;查看课程表\&quot; as UC3\nusecase \&quot;课程信息管理\&quot; as UC4\nusecase \&quot;登录系统\&quot; as UC5\nusecase \&quot;查看选课结果\&quot; as UC6\nusecase \&quot;申请课程调整\&quot; as UC7\nusecase \&quot;审核课程调整\&quot; as UC8\n\n学生 --&gt; UC1\n学生 --&gt; UC2\n学生 --&gt; UC3\n学生 --&gt; UC5\n学生 --&gt; UC6\n教师 --&gt; UC4\n教师 --&gt; UC5\n教师 --&gt; UC7\n管理员 --&gt; UC5\n管理员 --&gt; UC8\n@enduml\n\n&quot;,&#xa;  &quot;format&quot;: &quot;svg&quot;&#xa;}" id="DPlwqAMeHo2gNVx5Dcs1-1">
          <mxCell style="shape=image;noLabel=1;verticalAlign=top;aspect=fixed;imageAspect=0;image=data:image/svg+xml,PD94bWwgdmVyc2lvbj0iMS4wIiBlbmNvZGluZz0idXMtYXNjaWkiIHN0YW5kYWxvbmU9Im5vIj8+PHN2ZyB4bWxucz0iaHR0cDovL3d3dy53My5vcmcvMjAwMC9zdmciIHhtbG5zOnhsaW5rPSJodHRwOi8vd3d3LnczLm9yZy8xOTk5L3hsaW5rIiBjb250ZW50U3R5bGVUeXBlPSJ0ZXh0L2NzcyIgaGVpZ2h0PSIxNzZweCIgcHJlc2VydmVBc3BlY3RSYXRpbz0ibm9uZSIgc3R5bGU9IndpZHRoOjExNTNweDtoZWlnaHQ6MTc2cHg7YmFja2dyb3VuZDojRkZGRkZGOyIgdmVyc2lvbj0iMS4xIiB2aWV3Qm94PSIwIDAgMTE1MyAxNzYiIHdpZHRoPSIxMTUzcHgiIHpvb21BbmRQYW49Im1hZ25pZnkiPjxkZWZzLz48Zz48IS0tZW50aXR5ID8/LS0+PGcgaWQ9ImVsZW1fJiMyMzM5ODsmIzI5OTgzOyI+PGVsbGlwc2UgY3g9IjMwMCIgY3k9IjE0IiBmaWxsPSIjRjFGMUYxIiByeD0iOCIgcnk9IjgiIHN0eWxlPSJzdHJva2U6IzE4MTgxODtzdHJva2Utd2lkdGg6MC41OyIvPjxwYXRoIGQ9Ik0zMDAsMjIgTDMwMCw0OSBNMjg3LDMwIEwzMTMsMzAgTTMwMCw0OSBMMjg3LDY0IE0zMDAsNDkgTDMxMyw2NCAiIGZpbGw9Im5vbmUiIHN0eWxlPSJzdHJva2U6IzE4MTgxODtzdHJva2Utd2lkdGg6MC41OyIvPjx0ZXh0IGZpbGw9IiMwMDAwMDAiIGZvbnQtZmFtaWx5PSJzYW5zLXNlcmlmIiBmb250LXNpemU9IjE0IiBsZW5ndGhBZGp1c3Q9InNwYWNpbmciIHRleHRMZW5ndGg9IjI4IiB4PSIyODYiIHk9Ijc4LjczNDQiPiYjMjMzOTg7JiMyOTk4Mzs8L3RleHQ+PC9nPjwhLS1lbnRpdHkgPz8tLT48ZyBpZD0iZWxlbV8mIzI1OTQ1OyYjMjQwNzI7Ij48ZWxsaXBzZSBjeD0iNzU4IiBjeT0iMTQiIGZpbGw9IiNGMUYxRjEiIHJ4PSI4IiByeT0iOCIgc3R5bGU9InN0cm9rZTojMTgxODE4O3N0cm9rZS13aWR0aDowLjU7Ii8+PHBhdGggZD0iTTc1OCwyMiBMNzU4LDQ5IE03NDUsMzAgTDc3MSwzMCBNNzU4LDQ5IEw3NDUsNjQgTTc1OCw0OSBMNzcxLDY0ICIgZmlsbD0ibm9uZSIgc3R5bGU9InN0cm9rZTojMTgxODE4O3N0cm9rZS13aWR0aDowLjU7Ii8+PHRleHQgZmlsbD0iIzAwMDAwMCIgZm9udC1mYW1pbHk9InNhbnMtc2VyaWYiIGZvbnQtc2l6ZT0iMTQiIGxlbmd0aEFkanVzdD0ic3BhY2luZyIgdGV4dExlbmd0aD0iMjgiIHg9Ijc0NCIgeT0iNzguNzM0NCI+JiMyNTk0NTsmIzI0MDcyOzwvdGV4dD48L2c+PCEtLWVudGl0eSA/Pz8tLT48ZyBpZD0iZWxlbV8mIzMxNjQ5OyYjMjk3MDI7JiMyMTU5MjsiPjxlbGxpcHNlIGN4PSI5NTYiIGN5PSIxNCIgZmlsbD0iI0YxRjFGMSIgcng9IjgiIHJ5PSI4IiBzdHlsZT0ic3Ryb2tlOiMxODE4MTg7c3Ryb2tlLXdpZHRoOjAuNTsiLz48cGF0aCBkPSJNOTU2LDIyIEw5NTYsNDkgTTk0MywzMCBMOTY5LDMwIE05NTYsNDkgTDk0Myw2NCBNOTU2LDQ5IEw5NjksNjQgIiBmaWxsPSJub25lIiBzdHlsZT0ic3Ryb2tlOiMxODE4MTg7c3Ryb2tlLXdpZHRoOjAuNTsiLz48dGV4dCBmaWxsPSIjMDAwMDAwIiBmb250LWZhbWlseT0ic2Fucy1zZXJpZiIgZm9udC1zaXplPSIxNCIgbGVuZ3RoQWRqdXN0PSJzcGFjaW5nIiB0ZXh0TGVuZ3RoPSI0MiIgeD0iOTM1IiB5PSI3OC43MzQ0Ij4mIzMxNjQ5OyYjMjk3MDI7JiMyMTU5Mjs8L3RleHQ+PC9nPjxnIGlkPSJlbGVtX1VDMSI+PGVsbGlwc2UgY3g9IjU3LjA4MzMiIGN5PSIxNTUuNTk1NiIgZmlsbD0iI0YxRjFGMSIgcng9IjUxLjA4MzMiIHJ5PSIxMy41OTU2IiBzdHlsZT0ic3Ryb2tlOiMxODE4MTg7c3Ryb2tlLXdpZHRoOjAuNTsiLz48dGV4dCBmaWxsPSIjMDAwMDAwIiBmb250LWZhbWlseT0ic2Fucy1zZXJpZiIgZm9udC1zaXplPSIxNCIgbGVuZ3RoQWRqdXN0PSJzcGFjaW5nIiB0ZXh0TGVuZ3RoPSI1NiIgeD0iMjkuMDgzMyIgeT0iMTU5LjMzNzciPiYjMzU4Mzg7JiMzMTI0MzsmIzM2ODczOyYjMjUzMjE7PC90ZXh0PjwvZz48ZyBpZD0iZWxlbV9VQzIiPjxlbGxpcHNlIGN4PSIxNzQuNzg0MyIgY3k9IjE1NS41OTU2IiBmaWxsPSIjRjFGMUYxIiByeD0iMzEuMjg0MyIgcnk9IjEzLjU5NTYiIHN0eWxlPSJzdHJva2U6IzE4MTgxODtzdHJva2Utd2lkdGg6MC41OyIvPjx0ZXh0IGZpbGw9IiMwMDAwMDAiIGZvbnQtZmFtaWx5PSJzYW5zLXNlcmlmIiBmb250LXNpemU9IjE0IiBsZW5ndGhBZGp1c3Q9InNwYWNpbmciIHRleHRMZW5ndGg9IjI4IiB4PSIxNjAuNzg0MyIgeT0iMTU5LjMzNzciPiYjMzY4NjQ7JiMzNjg3Mzs8L3RleHQ+PC9nPjxnIGlkPSJlbGVtX1VDMyI+PGVsbGlwc2UgY3g9IjMwMC4wMzY3IiBjeT0iMTU1LjYwNzMiIGZpbGw9IiNGMUYxRjEiIHJ4PSI1OC41MzY3IiByeT0iMTQuMTA3MyIgc3R5bGU9InN0cm9rZTojMTgxODE4O3N0cm9rZS13aWR0aDowLjU7Ii8+PHRleHQgZmlsbD0iIzAwMDAwMCIgZm9udC1mYW1pbHk9InNhbnMtc2VyaWYiIGZvbnQtc2l6ZT0iMTQiIGxlbmd0aEFkanVzdD0ic3BhY2luZyIgdGV4dExlbmd0aD0iNzAiIHg9IjI2NS4wMzY3IiB5PSIxNTkuMzQ5NSI+JiMyNjU5NzsmIzMwNDc1OyYjMzU4Mzg7JiMzMTI0MzsmIzM0OTIwOzwvdGV4dD48L2c+PGcgaWQ9ImVsZW1fVUM0Ij48ZWxsaXBzZSBjeD0iNzU3Ljg4NzgiIGN5PSIxNTUuNjc3NiIgZmlsbD0iI0YxRjFGMSIgcng9IjYzLjg4NzgiIHJ5PSIxNS4xNzc2IiBzdHlsZT0ic3Ryb2tlOiMxODE4MTg7c3Ryb2tlLXdpZHRoOjAuNTsiLz48dGV4dCBmaWxsPSIjMDAwMDAwIiBmb250LWZhbWlseT0ic2Fucy1zZXJpZiIgZm9udC1zaXplPSIxNCIgbGVuZ3RoQWRqdXN0PSJzcGFjaW5nIiB0ZXh0TGVuZ3RoPSI4NCIgeD0iNzE1Ljg4NzgiIHk9IjE1OS40MTk3Ij4mIzM1ODM4OyYjMzEyNDM7JiMyMDQ0OTsmIzI0Njg3OyYjMzE2NDk7JiMyOTcwMjs8L3RleHQ+PC9nPjxnIGlkPSJlbGVtX1VDNSI+PGVsbGlwc2UgY3g9IjYwOC4wODMzIiBjeT0iMTU1LjU5NTYiIGZpbGw9IiNGMUYxRjEiIHJ4PSI1MS4wODMzIiByeT0iMTMuNTk1NiIgc3R5bGU9InN0cm9rZTojMTgxODE4O3N0cm9rZS13aWR0aDowLjU7Ii8+PHRleHQgZmlsbD0iIzAwMDAwMCIgZm9udC1mYW1pbHk9InNhbnMtc2VyaWYiIGZvbnQtc2l6ZT0iMTQiIGxlbmd0aEFkanVzdD0ic3BhY2luZyIgdGV4dExlbmd0aD0iNTYiIHg9IjU4MC4wODMzIiB5PSIxNTkuMzM3NyI+JiMzMDMzMTsmIzI0NDA1OyYjMzE5OTU7JiMzMjQ3OTs8L3RleHQ+PC9nPjxnIGlkPSJlbGVtX1VDNiI+PGVsbGlwc2UgY3g9IjQ1Ny44ODc4IiBjeT0iMTU1LjY3NzYiIGZpbGw9IiNGMUYxRjEiIHJ4PSI2My44ODc4IiByeT0iMTUuMTc3NiIgc3R5bGU9InN0cm9rZTojMTgxODE4O3N0cm9rZS13aWR0aDowLjU7Ii8+PHRleHQgZmlsbD0iIzAwMDAwMCIgZm9udC1mYW1pbHk9InNhbnMtc2VyaWYiIGZvbnQtc2l6ZT0iMTQiIGxlbmd0aEFkanVzdD0ic3BhY2luZyIgdGV4dExlbmd0aD0iODQiIHg9IjQxNS44ODc4IiB5PSIxNTkuNDE5NyI+JiMyNjU5NzsmIzMwNDc1OyYjMzY4NzM7JiMzNTgzODsmIzMyNDY3OyYjMjY1MjQ7PC90ZXh0PjwvZz48ZyBpZD0iZWxlbV9VQzciPjxlbGxpcHNlIGN4PSI5MjAuODg3OCIgY3k9IjE1NS42Nzc2IiBmaWxsPSIjRjFGMUYxIiByeD0iNjMuODg3OCIgcnk9IjE1LjE3NzYiIHN0eWxlPSJzdHJva2U6IzE4MTgxODtzdHJva2Utd2lkdGg6MC41OyIvPjx0ZXh0IGZpbGw9IiMwMDAwMDAiIGZvbnQtZmFtaWx5PSJzYW5zLXNlcmlmIiBmb250LXNpemU9IjE0IiBsZW5ndGhBZGp1c3Q9InNwYWNpbmciIHRleHRMZW5ndGg9Ijg0IiB4PSI4NzguODg3OCIgeT0iMTU5LjQxOTciPiYjMzAwMDM7JiMzNTgzMTsmIzM1ODM4OyYjMzEyNDM7JiMzNTg0MzsmIzI1OTcyOzwvdGV4dD48L2c+PGcgaWQ9ImVsZW1fVUM4Ij48ZWxsaXBzZSBjeD0iMTA4My44ODc4IiBjeT0iMTU1LjY3NzYiIGZpbGw9IiNGMUYxRjEiIHJ4PSI2My44ODc4IiByeT0iMTUuMTc3NiIgc3R5bGU9InN0cm9rZTojMTgxODE4O3N0cm9rZS13aWR0aDowLjU7Ii8+PHRleHQgZmlsbD0iIzAwMDAwMCIgZm9udC1mYW1pbHk9InNhbnMtc2VyaWYiIGZvbnQtc2l6ZT0iMTQiIGxlbmd0aEFkanVzdD0ic3BhY2luZyIgdGV4dExlbmd0aD0iODQiIHg9IjEwNDEuODg3OCIgeT0iMTU5LjQxOTciPiYjMjM0NTc7JiMyNjY4MDsmIzM1ODM4OyYjMzEyNDM7JiMzNTg0MzsmIzI1OTcyOzwvdGV4dD48L2c+PCEtLWxpbmsgPz8gdG8gVUMxLS0+PGcgaWQ9ImxpbmtfJiMyMzM5ODsmIzI5OTgzO19VQzEiPjxwYXRoIGQ9Ik0yODUuODgsNTAuNDIgQzI0NS44Nyw2OC42MSAxMzYuODMxNiwxMTguMTk2IDg2LjU5MTYsMTQxLjA0NiAiIGZpbGw9Im5vbmUiIGlkPSImIzIzMzk4OyYjMjk5ODM7LXRvLVVDMSIgc3R5bGU9InN0cm9rZTojMTgxODE4O3N0cm9rZS13aWR0aDoxLjA7Ii8+PHBvbHlnb24gZmlsbD0iIzE4MTgxOCIgcG9pbnRzPSI4MS4xMywxNDMuNTMsOTAuOTc4NSwxNDMuNDQ1LDg1LjY4MTQsMTQxLjQ2LDg3LjY2NjQsMTM2LjE2MjgsODEuMTMsMTQzLjUzIiBzdHlsZT0ic3Ryb2tlOiMxODE4MTg7c3Ryb2tlLXdpZHRoOjEuMDsiLz48L2c+PCEtLWxpbmsgPz8gdG8gVUMyLS0+PGcgaWQ9ImxpbmtfJiMyMzM5ODsmIzI5OTgzO19VQzIiPjxwYXRoIGQ9Ik0yODUuNjYsNTYuNjggQzI2MS4xNiw3OC4zMyAyMTYuMTE1OCwxMTguMTU2NiAxOTIuNTM1OCwxMzguOTk2NiAiIGZpbGw9Im5vbmUiIGlkPSImIzIzMzk4OyYjMjk5ODM7LXRvLVVDMiIgc3R5bGU9InN0cm9rZTojMTgxODE4O3N0cm9rZS13aWR0aDoxLjA7Ii8+PHBvbHlnb24gZmlsbD0iIzE4MTgxOCIgcG9pbnRzPSIxODguMDQsMTQyLjk3LDE5Ny40MzI2LDE0MC4wMDcxLDE5MS43ODY1LDEzOS42NTg4LDE5Mi4xMzQ4LDEzNC4wMTI3LDE4OC4wNCwxNDIuOTciIHN0eWxlPSJzdHJva2U6IzE4MTgxODtzdHJva2Utd2lkdGg6MS4wOyIvPjwvZz48IS0tbGluayA/PyB0byBVQzMtLT48ZyBpZD0ibGlua18mIzIzMzk4OyYjMjk5ODM7X1VDMyI+PHBhdGggZD0iTTMwMCw4MC43OSBDMzAwLDEwMS42NCAzMDAsMTIwLjQ0IDMwMCwxMzUuMyAiIGZpbGw9Im5vbmUiIGlkPSImIzIzMzk4OyYjMjk5ODM7LXRvLVVDMyIgc3R5bGU9InN0cm9rZTojMTgxODE4O3N0cm9rZS13aWR0aDoxLjA7Ii8+PHBvbHlnb24gZmlsbD0iIzE4MTgxOCIgcG9pbnRzPSIzMDAsMTQxLjMsMzA0LDEzMi4zLDMwMCwxMzYuMywyOTYsMTMyLjMsMzAwLDE0MS4zIiBzdHlsZT0ic3Ryb2tlOiMxODE4MTg7c3Ryb2tlLXdpZHRoOjEuMDsiLz48L2c+PCEtLWxpbmsgPz8gdG8gVUM1LS0+PGcgaWQ9ImxpbmtfJiMyMzM5ODsmIzI5OTgzO19VQzUiPjxwYXRoIGQ9Ik0zMTQuMDMsNDkuMDQgQzM2MS4yMyw2NS45NyA1MDkuMTcyNiwxMTkuMDQzNCA1NzMuNTQyNiwxNDIuMTQzNCAiIGZpbGw9Im5vbmUiIGlkPSImIzIzMzk4OyYjMjk5ODM7LXRvLVVDNSIgc3R5bGU9InN0cm9rZTojMTgxODE4O3N0cm9rZS13aWR0aDoxLjA7Ii8+PHBvbHlnb24gZmlsbD0iIzE4MTgxOCIgcG9pbnRzPSI1NzkuMTksMTQ0LjE3LDU3Mi4wNywxMzcuMzY1MSw1NzQuNDgzOSwxNDIuNDgxMSw1NjkuMzY3OSwxNDQuODk1LDU3OS4xOSwxNDQuMTciIHN0eWxlPSJzdHJva2U6IzE4MTgxODtzdHJva2Utd2lkdGg6MS4wOyIvPjwvZz48IS0tbGluayA/PyB0byBVQzYtLT48ZyBpZD0ibGlua18mIzIzMzk4OyYjMjk5ODM7X1VDNiI+PHBhdGggZD0iTTMxNC4wMiw1My44MSBDMzQyLjQyLDczLjY3IDQwMS44NDMyLDExNS4yMjEyIDQzNC4wMTMyLDEzNy43MjEyICIgZmlsbD0ibm9uZSIgaWQ9IiYjMjMzOTg7JiMyOTk4MzstdG8tVUM2IiBzdHlsZT0ic3Ryb2tlOiMxODE4MTg7c3Ryb2tlLXdpZHRoOjEuMDsiLz48cG9seWdvbiBmaWxsPSIjMTgxODE4IiBwb2ludHM9IjQzOC45MywxNDEuMTYsNDMzLjg0NzQsMTMyLjcyMzksNDM0LjgzMjcsMTM4LjI5NDMsNDI5LjI2MjMsMTM5LjI3OTYsNDM4LjkzLDE0MS4xNiIgc3R5bGU9InN0cm9rZTojMTgxODE4O3N0cm9rZS13aWR0aDoxLjA7Ii8+PC9nPjwhLS1saW5rID8/IHRvIFVDNC0tPjxnIGlkPSJsaW5rXyYjMjU5NDU7JiMyNDA3MjtfVUM0Ij48cGF0aCBkPSJNNzU4LDgwLjc5IEM3NTgsMTAxLjI2IDc1OCwxMTkuNTUgNzU4LDEzNC40OSAiIGZpbGw9Im5vbmUiIGlkPSImIzI1OTQ1OyYjMjQwNzI7LXRvLVVDNCIgc3R5bGU9InN0cm9rZTojMTgxODE4O3N0cm9rZS13aWR0aDoxLjA7Ii8+PHBvbHlnb24gZmlsbD0iIzE4MTgxOCIgcG9pbnRzPSI3NTgsMTQwLjQ5LDc2MiwxMzEuNDksNzU4LDEzNS40OSw3NTQsMTMxLjQ5LDc1OCwxNDAuNDkiIHN0eWxlPSJzdHJva2U6IzE4MTgxODtzdHJva2Utd2lkdGg6MS4wOyIvPjwvZz48IS0tbGluayA/PyB0byBVQzUtLT48ZyBpZD0ibGlua18mIzI1OTQ1OyYjMjQwNzI7X1VDNSI+PHBhdGggZD0iTTc0My44OSw1NC40IEM3MTYuMDMsNzQuOTIgNjU4LjkzMDcsMTE2Ljk4MTMgNjI5LjI3MDcsMTM4LjgzMTMgIiBmaWxsPSJub25lIiBpZD0iJiMyNTk0NTsmIzI0MDcyOy10by1VQzUiIHN0eWxlPSJzdHJva2U6IzE4MTgxODtzdHJva2Utd2lkdGg6MS4wOyIvPjxwb2x5Z29uIGZpbGw9IiMxODE4MTgiIHBvaW50cz0iNjI0LjQ0LDE0Mi4zOSw2MzQuMDU4NSwxNDAuMjcyNCw2MjguNDY1NiwxMzkuNDI0NCw2MjkuMzEzNiwxMzMuODMxNSw2MjQuNDQsMTQyLjM5IiBzdHlsZT0ic3Ryb2tlOiMxODE4MTg7c3Ryb2tlLXdpZHRoOjEuMDsiLz48L2c+PCEtLWxpbmsgPz8gdG8gVUM3LS0+PGcgaWQ9ImxpbmtfJiMyNTk0NTsmIzI0MDcyO19VQzciPjxwYXRoIGQ9Ik03NzIuMTgsNTMuNjEgQzgwMS4zLDczLjM2IDg2Mi45NDQsMTE1LjE0MjcgODk2LjI3NCwxMzcuNzQyNyAiIGZpbGw9Im5vbmUiIGlkPSImIzI1OTQ1OyYjMjQwNzI7LXRvLVVDNyIgc3R5bGU9InN0cm9rZTojMTgxODE4O3N0cm9rZS13aWR0aDoxLjA7Ii8+PHBvbHlnb24gZmlsbD0iIzE4MTgxOCIgcG9pbnRzPSI5MDEuMjQsMTQxLjExLDg5Ni4wMzU4LDEzMi43NDg0LDg5Ny4xMDE3LDEzOC4zMDM5LDg5MS41NDYxLDEzOS4zNjk3LDkwMS4yNCwxNDEuMTEiIHN0eWxlPSJzdHJva2U6IzE4MTgxODtzdHJva2Utd2lkdGg6MS4wOyIvPjwvZz48IS0tbGluayA/Pz8gdG8gVUM1LS0+PGcgaWQ9ImxpbmtfJiMzMTY0OTsmIzI5NzAyOyYjMjE1OTI7X1VDNSI+PHBhdGggZD0iTTkzNC43NSw1MC43NSBDODc1LjUxLDY5LjU2IDcxMy45Njg2LDEyMC44NTQxIDY0NC41Mjg2LDE0Mi45MDQxICIgZmlsbD0ibm9uZSIgaWQ9IiYjMzE2NDk7JiMyOTcwMjsmIzIxNTkyOy10by1VQzUiIHN0eWxlPSJzdHJva2U6IzE4MTgxODtzdHJva2Utd2lkdGg6MS4wOyIvPjxwb2x5Z29uIGZpbGw9IiMxODE4MTgiIHBvaW50cz0iNjM4LjgxLDE0NC43Miw2NDguNTk4NSwxNDUuODA4Niw2NDMuNTc1NSwxNDMuMjA2OCw2NDYuMTc3MywxMzguMTgzOCw2MzguODEsMTQ0LjcyIiBzdHlsZT0ic3Ryb2tlOiMxODE4MTg7c3Ryb2tlLXdpZHRoOjEuMDsiLz48L2c+PCEtLWxpbmsgPz8/IHRvIFVDOC0tPjxnIGlkPSJsaW5rXyYjMzE2NDk7JiMyOTcwMjsmIzIxNTkyO19VQzgiPjxwYXRoIGQ9Ik05NzcuMTQsNjIuMjUgQzEwMDIuNyw4NC4zMSAxMDQwLjYwOCwxMTcuMDM5NSAxMDYzLjU1OCwxMzYuODQ5NSAiIGZpbGw9Im5vbmUiIGlkPSImIzMxNjQ5OyYjMjk3MDI7JiMyMTU5MjstdG8tVUM4IiBzdHlsZT0ic3Ryb2tlOiMxODE4MTg7c3Ryb2tlLXdpZHRoOjEuMDsiLz48cG9seWdvbiBmaWxsPSIjMTgxODE4IiBwb2ludHM9IjEwNjguMSwxNDAuNzcsMTA2My45MDA3LDEzMS44NjEyLDEwNjQuMzE1LDEzNy41MDI5LDEwNTguNjczNCwxMzcuOTE3MiwxMDY4LjEsMTQwLjc3IiBzdHlsZT0ic3Ryb2tlOiMxODE4MTg7c3Ryb2tlLXdpZHRoOjEuMDsiLz48L2c+PCEtLVNSQz1bSXFta29JeklVQmZzc1ZDZnl4YUltUG5kS3NTLXRUNDF2Sm5Wal8zdlhCUWQ0c1RtU1BLTWZvT2Q1Z1NnQUJyT2wtX3ZZa3dOM1B0RmtiU2dBSUdNQXVHdzZvOWFOcE9xMEFNV3VhTzh5TVZwYnB3VnFtdEgtc0JYMmdXMk90SFpkLW5WLUFubkZTSFFnMWVKWDloZEN0U190SmxyLVVSVHB0VkZYeWdRZWJpMWoxcmFyRXg5cC1SRFdRZW5HcDlYb2tPTnd4VDNkUjZYLVRkS0JMMHJ2V1dySnpTalZCUFcxbk9yNWJuU2FBMUlxRE1yMHRpUlhNazRvWkw2dlBnWVNpc3U4MDREdlBnV1NhckhrVVBTeThZMEFxME5pRzAwXS0tPjwvZz48L3N2Zz4=;" vertex="1" parent="1">
            <mxGeometry x="-160" y="150" width="1153" height="176" as="geometry" />
          </mxCell>
        </UserObject>
        <UserObject label="" plantUmlData="{&#xa;  &quot;data&quot;: &quot;@startuml\nstart\n:登录系统;\n:查询课程列表;\nif (是否选择课程?) then (是)\n  :添加到选课列表;\n  :保存选课记录;\nelse (否)\n  stop\nendif\nstop\n@enduml\n&quot;,&#xa;  &quot;format&quot;: &quot;svg&quot;&#xa;}" id="DPlwqAMeHo2gNVx5Dcs1-2">
          <mxCell style="shape=image;noLabel=1;verticalAlign=top;aspect=fixed;imageAspect=0;image=data:image/svg+xml,PD94bWwgdmVyc2lvbj0iMS4wIiBlbmNvZGluZz0idXMtYXNjaWkiIHN0YW5kYWxvbmU9Im5vIj8+PHN2ZyB4bWxucz0iaHR0cDovL3d3dy53My5vcmcvMjAwMC9zdmciIHhtbG5zOnhsaW5rPSJodHRwOi8vd3d3LnczLm9yZy8xOTk5L3hsaW5rIiBjb250ZW50U3R5bGVUeXBlPSJ0ZXh0L2NzcyIgaGVpZ2h0PSIzNDJweCIgcHJlc2VydmVBc3BlY3RSYXRpbz0ibm9uZSIgc3R5bGU9IndpZHRoOjE3MXB4O2hlaWdodDozNDJweDtiYWNrZ3JvdW5kOiNGRkZGRkY7IiB2ZXJzaW9uPSIxLjEiIHZpZXdCb3g9IjAgMCAxNzEgMzQyIiB3aWR0aD0iMTcxcHgiIHpvb21BbmRQYW49Im1hZ25pZnkiPjxkZWZzLz48Zz48ZWxsaXBzZSBjeD0iNjgiIGN5PSIyMCIgZmlsbD0iIzIyMjIyMiIgcng9IjEwIiByeT0iMTAiIHN0eWxlPSJzdHJva2U6IzIyMjIyMjtzdHJva2Utd2lkdGg6MS4wOyIvPjxyZWN0IGZpbGw9IiNGMUYxRjEiIGhlaWdodD0iMzIuODQzOCIgcng9IjEyLjUiIHJ5PSIxMi41IiBzdHlsZT0ic3Ryb2tlOiMxODE4MTg7c3Ryb2tlLXdpZHRoOjAuNTsiIHdpZHRoPSI2OCIgeD0iMzQiIHk9IjUwIi8+PHRleHQgZmlsbD0iIzAwMDAwMCIgZm9udC1mYW1pbHk9InNhbnMtc2VyaWYiIGZvbnQtc2l6ZT0iMTIiIGxlbmd0aEFkanVzdD0ic3BhY2luZyIgdGV4dExlbmd0aD0iNDgiIHg9IjQ0IiB5PSI3MS4zNDM4Ij4mIzMwMzMxOyYjMjQ0MDU7JiMzMTk5NTsmIzMyNDc5OzwvdGV4dD48cmVjdCBmaWxsPSIjRjFGMUYxIiBoZWlnaHQ9IjMyLjg0MzgiIHJ4PSIxMi41IiByeT0iMTIuNSIgc3R5bGU9InN0cm9rZTojMTgxODE4O3N0cm9rZS13aWR0aDowLjU7IiB3aWR0aD0iOTIiIHg9IjIyIiB5PSIxMDIuODQzOCIvPjx0ZXh0IGZpbGw9IiMwMDAwMDAiIGZvbnQtZmFtaWx5PSJzYW5zLXNlcmlmIiBmb250LXNpemU9IjEyIiBsZW5ndGhBZGp1c3Q9InNwYWNpbmciIHRleHRMZW5ndGg9IjcyIiB4PSIzMiIgeT0iMTI0LjE4NzUiPiYjMjY1OTc7JiMzNTgxMDsmIzM1ODM4OyYjMzEyNDM7JiMyMTAxNTsmIzM0OTIwOzwvdGV4dD48cmVjdCBmaWxsPSIjRjFGMUYxIiBoZWlnaHQ9IjMyLjg0MzgiIHJ4PSIxMi41IiByeT0iMTIuNSIgc3R5bGU9InN0cm9rZTojMTgxODE4O3N0cm9rZS13aWR0aDowLjU7IiB3aWR0aD0iMTA0IiB4PSIxNiIgeT0iMjAzLjY4NzUiLz48dGV4dCBmaWxsPSIjMDAwMDAwIiBmb250LWZhbWlseT0ic2Fucy1zZXJpZiIgZm9udC1zaXplPSIxMiIgbGVuZ3RoQWRqdXN0PSJzcGFjaW5nIiB0ZXh0TGVuZ3RoPSI4NCIgeD0iMjYiIHk9IjIyNS4wMzEzIj4mIzI4MTU1OyYjMjExNTI7JiMyMTA0MDsmIzM2ODczOyYjMzU4Mzg7JiMyMTAxNTsmIzM0OTIwOzwvdGV4dD48cmVjdCBmaWxsPSIjRjFGMUYxIiBoZWlnaHQ9IjMyLjg0MzgiIHJ4PSIxMi41IiByeT0iMTIuNSIgc3R5bGU9InN0cm9rZTojMTgxODE4O3N0cm9rZS13aWR0aDowLjU7IiB3aWR0aD0iOTIiIHg9IjIyIiB5PSIyNTYuNTMxMyIvPjx0ZXh0IGZpbGw9IiMwMDAwMDAiIGZvbnQtZmFtaWx5PSJzYW5zLXNlcmlmIiBmb250LXNpemU9IjEyIiBsZW5ndGhBZGp1c3Q9InNwYWNpbmciIHRleHRMZW5ndGg9IjcyIiB4PSIzMiIgeT0iMjc3Ljg3NSI+JiMyMDQ0NTsmIzIzMzg0OyYjMzY4NzM7JiMzNTgzODsmIzM1NzYwOyYjMjQ0MDU7PC90ZXh0Pjxwb2x5Z29uIGZpbGw9IiNGMUYxRjEiIHBvaW50cz0iMzIsMTU1LjY4NzUsMTA0LDE1NS42ODc1LDExNiwxNjcuNjg3NSwxMDQsMTc5LjY4NzUsMzIsMTc5LjY4NzUsMjAsMTY3LjY4NzUsMzIsMTU1LjY4NzUiIHN0eWxlPSJzdHJva2U6IzE4MTgxODtzdHJva2Utd2lkdGg6MC41OyIvPjx0ZXh0IGZpbGw9IiMwMDAwMDAiIGZvbnQtZmFtaWx5PSJzYW5zLXNlcmlmIiBmb250LXNpemU9IjExIiBsZW5ndGhBZGp1c3Q9InNwYWNpbmciIHRleHRMZW5ndGg9IjExIiB4PSI3MiIgeT0iMTkwLjA4NTkiPiYjMjYxNTk7PC90ZXh0Pjx0ZXh0IGZpbGw9IiMwMDAwMDAiIGZvbnQtZmFtaWx5PSJzYW5zLXNlcmlmIiBmb250LXNpemU9IjExIiBsZW5ndGhBZGp1c3Q9InNwYWNpbmciIHRleHRMZW5ndGg9IjcyIiB4PSIzMiIgeT0iMTcyLjE5OTIiPiYjMjYxNTk7JiMyMTU0MjsmIzM2ODczOyYjMjUzMjE7JiMzNTgzODsmIzMxMjQzOz88L3RleHQ+PHRleHQgZmlsbD0iIzAwMDAwMCIgZm9udC1mYW1pbHk9InNhbnMtc2VyaWYiIGZvbnQtc2l6ZT0iMTEiIGxlbmd0aEFkanVzdD0ic3BhY2luZyIgdGV4dExlbmd0aD0iMTEiIHg9IjExNiIgeT0iMTY2LjMxMjUiPiYjMjE1NDI7PC90ZXh0PjxlbGxpcHNlIGN4PSIxNDkiIGN5PSIxNjcuNjg3NSIgZmlsbD0ibm9uZSIgcng9IjExIiByeT0iMTEiIHN0eWxlPSJzdHJva2U6IzIyMjIyMjtzdHJva2Utd2lkdGg6MS4wOyIvPjxlbGxpcHNlIGN4PSIxNDkiIGN5PSIxNjcuNjg3NSIgZmlsbD0iIzIyMjIyMiIgcng9IjYiIHJ5PSI2IiBzdHlsZT0ic3Ryb2tlOiMyMjIyMjI7c3Ryb2tlLXdpZHRoOjEuMDsiLz48ZWxsaXBzZSBjeD0iNjgiIGN5PSIzMjAuMzc1IiBmaWxsPSJub25lIiByeD0iMTEiIHJ5PSIxMSIgc3R5bGU9InN0cm9rZTojMjIyMjIyO3N0cm9rZS13aWR0aDoxLjA7Ii8+PGVsbGlwc2UgY3g9IjY4IiBjeT0iMzIwLjM3NSIgZmlsbD0iIzIyMjIyMiIgcng9IjYiIHJ5PSI2IiBzdHlsZT0ic3Ryb2tlOiMyMjIyMjI7c3Ryb2tlLXdpZHRoOjEuMDsiLz48bGluZSBzdHlsZT0ic3Ryb2tlOiMxODE4MTg7c3Ryb2tlLXdpZHRoOjEuMDsiIHgxPSI2OCIgeDI9IjY4IiB5MT0iMzAiIHkyPSI1MCIvPjxwb2x5Z29uIGZpbGw9IiMxODE4MTgiIHBvaW50cz0iNjQsNDAsNjgsNTAsNzIsNDAsNjgsNDQiIHN0eWxlPSJzdHJva2U6IzE4MTgxODtzdHJva2Utd2lkdGg6MS4wOyIvPjxsaW5lIHN0eWxlPSJzdHJva2U6IzE4MTgxODtzdHJva2Utd2lkdGg6MS4wOyIgeDE9IjY4IiB4Mj0iNjgiIHkxPSI4Mi44NDM4IiB5Mj0iMTAyLjg0MzgiLz48cG9seWdvbiBmaWxsPSIjMTgxODE4IiBwb2ludHM9IjY0LDkyLjg0MzgsNjgsMTAyLjg0MzgsNzIsOTIuODQzOCw2OCw5Ni44NDM4IiBzdHlsZT0ic3Ryb2tlOiMxODE4MTg7c3Ryb2tlLXdpZHRoOjEuMDsiLz48bGluZSBzdHlsZT0ic3Ryb2tlOiMxODE4MTg7c3Ryb2tlLXdpZHRoOjEuMDsiIHgxPSI2OCIgeDI9IjY4IiB5MT0iMjM2LjUzMTMiIHkyPSIyNTYuNTMxMyIvPjxwb2x5Z29uIGZpbGw9IiMxODE4MTgiIHBvaW50cz0iNjQsMjQ2LjUzMTMsNjgsMjU2LjUzMTMsNzIsMjQ2LjUzMTMsNjgsMjUwLjUzMTMiIHN0eWxlPSJzdHJva2U6IzE4MTgxODtzdHJva2Utd2lkdGg6MS4wOyIvPjxsaW5lIHN0eWxlPSJzdHJva2U6IzE4MTgxODtzdHJva2Utd2lkdGg6MS4wOyIgeDE9IjY4IiB4Mj0iNjgiIHkxPSIxNzkuNjg3NSIgeTI9IjIwMy42ODc1Ii8+PHBvbHlnb24gZmlsbD0iIzE4MTgxOCIgcG9pbnRzPSI2NCwxOTMuNjg3NSw2OCwyMDMuNjg3NSw3MiwxOTMuNjg3NSw2OCwxOTcuNjg3NSIgc3R5bGU9InN0cm9rZTojMTgxODE4O3N0cm9rZS13aWR0aDoxLjA7Ii8+PGxpbmUgc3R5bGU9InN0cm9rZTojMTgxODE4O3N0cm9rZS13aWR0aDoxLjA7IiB4MT0iMTE2IiB4Mj0iMTM4IiB5MT0iMTY3LjY4NzUiIHkyPSIxNjcuNjg3NSIvPjxwb2x5Z29uIGZpbGw9IiMxODE4MTgiIHBvaW50cz0iMTI4LDE2My42ODc1LDEzOCwxNjcuNjg3NSwxMjgsMTcxLjY4NzUsMTMyLDE2Ny42ODc1IiBzdHlsZT0ic3Ryb2tlOiMxODE4MTg7c3Ryb2tlLXdpZHRoOjEuMDsiLz48bGluZSBzdHlsZT0ic3Ryb2tlOiMxODE4MTg7c3Ryb2tlLXdpZHRoOjEuMDsiIHgxPSI2OCIgeDI9IjY4IiB5MT0iMjg5LjM3NSIgeTI9IjMwOS4zNzUiLz48cG9seWdvbiBmaWxsPSIjMTgxODE4IiBwb2ludHM9IjY0LDI5OS4zNzUsNjgsMzA5LjM3NSw3MiwyOTkuMzc1LDY4LDMwMy4zNzUiIHN0eWxlPSJzdHJva2U6IzE4MTgxODtzdHJva2Utd2lkdGg6MS4wOyIvPjxsaW5lIHN0eWxlPSJzdHJva2U6IzE4MTgxODtzdHJva2Utd2lkdGg6MS4wOyIgeDE9IjY4IiB4Mj0iNjgiIHkxPSIxMzUuNjg3NSIgeTI9IjE1NS42ODc1Ii8+PHBvbHlnb24gZmlsbD0iIzE4MTgxOCIgcG9pbnRzPSI2NCwxNDUuNjg3NSw2OCwxNTUuNjg3NSw3MiwxNDUuNjg3NSw2OCwxNDkuNjg3NSIgc3R5bGU9InN0cm9rZTojMTgxODE4O3N0cm9rZS13aWR0aDoxLjA7Ii8+PCEtLVNSQz1bQW92OUIyaFhpZGUtU19WSmxMRVZSenh6VkZUeVFvd2hQX0VObGJZX3dDTndWU3pOVDNfamNGdll1R2ZoaGltcTFPcmRDek9fZFIzaVBLRmRpLXdMNDVieEpPTUlaREd5aTlHY2J1QTJyUkZqa3Z6c0JOWlFpRzZlMmdXNGZYaWV5c0pfdEFUaFBxMjROd3BSMEJKRmNZaXJmcFhMR0dEZTlhWGxTS2ItMExUZ05hZmM2WFU4MkcwMF0tLT48L2c+PC9zdmc+;" vertex="1" parent="1">
            <mxGeometry x="-240" y="390" width="171" height="342" as="geometry" />
          </mxCell>
        </UserObject>
        <UserObject label="" plantUmlData="{&#xa;  &quot;data&quot;: &quot;@startuml\nstart\n:登录系统;\n:填写课程信息;\n:提交课程信息;\nif (是否通过审核?) then (是)\n  :发布课程;\nelse (否)\n  :退回修改;\nendif\nstop\n@enduml\n&quot;,&#xa;  &quot;format&quot;: &quot;svg&quot;&#xa;}" id="DPlwqAMeHo2gNVx5Dcs1-3">
          <mxCell style="shape=image;noLabel=1;verticalAlign=top;aspect=fixed;imageAspect=0;image=data:image/svg+xml,PD94bWwgdmVyc2lvbj0iMS4wIiBlbmNvZGluZz0idXMtYXNjaWkiIHN0YW5kYWxvbmU9Im5vIj8+PHN2ZyB4bWxucz0iaHR0cDovL3d3dy53My5vcmcvMjAwMC9zdmciIHhtbG5zOnhsaW5rPSJodHRwOi8vd3d3LnczLm9yZy8xOTk5L3hsaW5rIiBjb250ZW50U3R5bGVUeXBlPSJ0ZXh0L2NzcyIgaGVpZ2h0PSIzNThweCIgcHJlc2VydmVBc3BlY3RSYXRpbz0ibm9uZSIgc3R5bGU9IndpZHRoOjIwNnB4O2hlaWdodDozNThweDtiYWNrZ3JvdW5kOiNGRkZGRkY7IiB2ZXJzaW9uPSIxLjEiIHZpZXdCb3g9IjAgMCAyMDYgMzU4IiB3aWR0aD0iMjA2cHgiIHpvb21BbmRQYW49Im1hZ25pZnkiPjxkZWZzLz48Zz48ZWxsaXBzZSBjeD0iMTAzIiBjeT0iMjAiIGZpbGw9IiMyMjIyMjIiIHJ4PSIxMCIgcnk9IjEwIiBzdHlsZT0ic3Ryb2tlOiMyMjIyMjI7c3Ryb2tlLXdpZHRoOjEuMDsiLz48cmVjdCBmaWxsPSIjRjFGMUYxIiBoZWlnaHQ9IjMyLjg0MzgiIHJ4PSIxMi41IiByeT0iMTIuNSIgc3R5bGU9InN0cm9rZTojMTgxODE4O3N0cm9rZS13aWR0aDowLjU7IiB3aWR0aD0iNjgiIHg9IjY5IiB5PSI1MCIvPjx0ZXh0IGZpbGw9IiMwMDAwMDAiIGZvbnQtZmFtaWx5PSJzYW5zLXNlcmlmIiBmb250LXNpemU9IjEyIiBsZW5ndGhBZGp1c3Q9InNwYWNpbmciIHRleHRMZW5ndGg9IjQ4IiB4PSI3OSIgeT0iNzEuMzQzOCI+JiMzMDMzMTsmIzI0NDA1OyYjMzE5OTU7JiMzMjQ3OTs8L3RleHQ+PHJlY3QgZmlsbD0iI0YxRjFGMSIgaGVpZ2h0PSIzMi44NDM4IiByeD0iMTIuNSIgcnk9IjEyLjUiIHN0eWxlPSJzdHJva2U6IzE4MTgxODtzdHJva2Utd2lkdGg6MC41OyIgd2lkdGg9IjkyIiB4PSI1NyIgeT0iMTAyLjg0MzgiLz48dGV4dCBmaWxsPSIjMDAwMDAwIiBmb250LWZhbWlseT0ic2Fucy1zZXJpZiIgZm9udC1zaXplPSIxMiIgbGVuZ3RoQWRqdXN0PSJzcGFjaW5nIiB0ZXh0TGVuZ3RoPSI3MiIgeD0iNjciIHk9IjEyNC4xODc1Ij4mIzIyNjM1OyYjMjA4ODk7JiMzNTgzODsmIzMxMjQzOyYjMjA0NDk7JiMyNDY4Nzs8L3RleHQ+PHJlY3QgZmlsbD0iI0YxRjFGMSIgaGVpZ2h0PSIzMi44NDM4IiByeD0iMTIuNSIgcnk9IjEyLjUiIHN0eWxlPSJzdHJva2U6IzE4MTgxODtzdHJva2Utd2lkdGg6MC41OyIgd2lkdGg9IjkyIiB4PSI1NyIgeT0iMTU1LjY4NzUiLz48dGV4dCBmaWxsPSIjMDAwMDAwIiBmb250LWZhbWlseT0ic2Fucy1zZXJpZiIgZm9udC1zaXplPSIxMiIgbGVuZ3RoQWRqdXN0PSJzcGFjaW5nIiB0ZXh0TGVuZ3RoPSI3MiIgeD0iNjciIHk9IjE3Ny4wMzEzIj4mIzI1NTUyOyYjMjAxMzI7JiMzNTgzODsmIzMxMjQzOyYjMjA0NDk7JiMyNDY4Nzs8L3RleHQ+PHBvbHlnb24gZmlsbD0iI0YxRjFGMSIgcG9pbnRzPSI2NywyMDguNTMxMywxMzksMjA4LjUzMTMsMTUxLDIyMC41MzEzLDEzOSwyMzIuNTMxMyw2NywyMzIuNTMxMyw1NSwyMjAuNTMxMyw2NywyMDguNTMxMyIgc3R5bGU9InN0cm9rZTojMTgxODE4O3N0cm9rZS13aWR0aDowLjU7Ii8+PHRleHQgZmlsbD0iIzAwMDAwMCIgZm9udC1mYW1pbHk9InNhbnMtc2VyaWYiIGZvbnQtc2l6ZT0iMTEiIGxlbmd0aEFkanVzdD0ic3BhY2luZyIgdGV4dExlbmd0aD0iNzIiIHg9IjY3IiB5PSIyMjUuMDQzIj4mIzI2MTU5OyYjMjE1NDI7JiMzNjg5MDsmIzM2ODA3OyYjMjM0NTc7JiMyNjY4MDs/PC90ZXh0Pjx0ZXh0IGZpbGw9IiMwMDAwMDAiIGZvbnQtZmFtaWx5PSJzYW5zLXNlcmlmIiBmb250LXNpemU9IjExIiBsZW5ndGhBZGp1c3Q9InNwYWNpbmciIHRleHRMZW5ndGg9IjExIiB4PSI0NCIgeT0iMjE5LjE1NjMiPiYjMjYxNTk7PC90ZXh0Pjx0ZXh0IGZpbGw9IiMwMDAwMDAiIGZvbnQtZmFtaWx5PSJzYW5zLXNlcmlmIiBmb250LXNpemU9IjExIiBsZW5ndGhBZGp1c3Q9InNwYWNpbmciIHRleHRMZW5ndGg9IjExIiB4PSIxNTEiIHk9IjIxOS4xNTYzIj4mIzIxNTQyOzwvdGV4dD48cmVjdCBmaWxsPSIjRjFGMUYxIiBoZWlnaHQ9IjMyLjg0MzgiIHJ4PSIxMi41IiByeT0iMTIuNSIgc3R5bGU9InN0cm9rZTojMTgxODE4O3N0cm9rZS13aWR0aDowLjU7IiB3aWR0aD0iNjgiIHg9IjExIiB5PSIyNDIuNTMxMyIvPjx0ZXh0IGZpbGw9IiMwMDAwMDAiIGZvbnQtZmFtaWx5PSJzYW5zLXNlcmlmIiBmb250LXNpemU9IjEyIiBsZW5ndGhBZGp1c3Q9InNwYWNpbmciIHRleHRMZW5ndGg9IjQ4IiB4PSIyMSIgeT0iMjYzLjg3NSI+JiMyMTQ1NzsmIzI0MDY3OyYjMzU4Mzg7JiMzMTI0Mzs8L3RleHQ+PHJlY3QgZmlsbD0iI0YxRjFGMSIgaGVpZ2h0PSIzMi44NDM4IiByeD0iMTIuNSIgcnk9IjEyLjUiIHN0eWxlPSJzdHJva2U6IzE4MTgxODtzdHJva2Utd2lkdGg6MC41OyIgd2lkdGg9IjY4IiB4PSIxMjciIHk9IjI0Mi41MzEzIi8+PHRleHQgZmlsbD0iIzAwMDAwMCIgZm9udC1mYW1pbHk9InNhbnMtc2VyaWYiIGZvbnQtc2l6ZT0iMTIiIGxlbmd0aEFkanVzdD0ic3BhY2luZyIgdGV4dExlbmd0aD0iNDgiIHg9IjEzNyIgeT0iMjYzLjg3NSI+JiMzNjg2NDsmIzIyMjM4OyYjMjA0NjI7JiMyNTkxMzs8L3RleHQ+PHBvbHlnb24gZmlsbD0iI0YxRjFGMSIgcG9pbnRzPSIxMDMsMjgxLjM3NSwxMTUsMjkzLjM3NSwxMDMsMzA1LjM3NSw5MSwyOTMuMzc1LDEwMywyODEuMzc1IiBzdHlsZT0ic3Ryb2tlOiMxODE4MTg7c3Ryb2tlLXdpZHRoOjAuNTsiLz48ZWxsaXBzZSBjeD0iMTAzIiBjeT0iMzM2LjM3NSIgZmlsbD0ibm9uZSIgcng9IjExIiByeT0iMTEiIHN0eWxlPSJzdHJva2U6IzIyMjIyMjtzdHJva2Utd2lkdGg6MS4wOyIvPjxlbGxpcHNlIGN4PSIxMDMiIGN5PSIzMzYuMzc1IiBmaWxsPSIjMjIyMjIyIiByeD0iNiIgcnk9IjYiIHN0eWxlPSJzdHJva2U6IzIyMjIyMjtzdHJva2Utd2lkdGg6MS4wOyIvPjxsaW5lIHN0eWxlPSJzdHJva2U6IzE4MTgxODtzdHJva2Utd2lkdGg6MS4wOyIgeDE9IjEwMyIgeDI9IjEwMyIgeTE9IjMwIiB5Mj0iNTAiLz48cG9seWdvbiBmaWxsPSIjMTgxODE4IiBwb2ludHM9Ijk5LDQwLDEwMyw1MCwxMDcsNDAsMTAzLDQ0IiBzdHlsZT0ic3Ryb2tlOiMxODE4MTg7c3Ryb2tlLXdpZHRoOjEuMDsiLz48bGluZSBzdHlsZT0ic3Ryb2tlOiMxODE4MTg7c3Ryb2tlLXdpZHRoOjEuMDsiIHgxPSIxMDMiIHgyPSIxMDMiIHkxPSI4Mi44NDM4IiB5Mj0iMTAyLjg0MzgiLz48cG9seWdvbiBmaWxsPSIjMTgxODE4IiBwb2ludHM9Ijk5LDkyLjg0MzgsMTAzLDEwMi44NDM4LDEwNyw5Mi44NDM4LDEwMyw5Ni44NDM4IiBzdHlsZT0ic3Ryb2tlOiMxODE4MTg7c3Ryb2tlLXdpZHRoOjEuMDsiLz48bGluZSBzdHlsZT0ic3Ryb2tlOiMxODE4MTg7c3Ryb2tlLXdpZHRoOjEuMDsiIHgxPSIxMDMiIHgyPSIxMDMiIHkxPSIxMzUuNjg3NSIgeTI9IjE1NS42ODc1Ii8+PHBvbHlnb24gZmlsbD0iIzE4MTgxOCIgcG9pbnRzPSI5OSwxNDUuNjg3NSwxMDMsMTU1LjY4NzUsMTA3LDE0NS42ODc1LDEwMywxNDkuNjg3NSIgc3R5bGU9InN0cm9rZTojMTgxODE4O3N0cm9rZS13aWR0aDoxLjA7Ii8+PGxpbmUgc3R5bGU9InN0cm9rZTojMTgxODE4O3N0cm9rZS13aWR0aDoxLjA7IiB4MT0iNTUiIHgyPSI0NSIgeTE9IjIyMC41MzEzIiB5Mj0iMjIwLjUzMTMiLz48bGluZSBzdHlsZT0ic3Ryb2tlOiMxODE4MTg7c3Ryb2tlLXdpZHRoOjEuMDsiIHgxPSI0NSIgeDI9IjQ1IiB5MT0iMjIwLjUzMTMiIHkyPSIyNDIuNTMxMyIvPjxwb2x5Z29uIGZpbGw9IiMxODE4MTgiIHBvaW50cz0iNDEsMjMyLjUzMTMsNDUsMjQyLjUzMTMsNDksMjMyLjUzMTMsNDUsMjM2LjUzMTMiIHN0eWxlPSJzdHJva2U6IzE4MTgxODtzdHJva2Utd2lkdGg6MS4wOyIvPjxsaW5lIHN0eWxlPSJzdHJva2U6IzE4MTgxODtzdHJva2Utd2lkdGg6MS4wOyIgeDE9IjE1MSIgeDI9IjE2MSIgeTE9IjIyMC41MzEzIiB5Mj0iMjIwLjUzMTMiLz48bGluZSBzdHlsZT0ic3Ryb2tlOiMxODE4MTg7c3Ryb2tlLXdpZHRoOjEuMDsiIHgxPSIxNjEiIHgyPSIxNjEiIHkxPSIyMjAuNTMxMyIgeTI9IjI0Mi41MzEzIi8+PHBvbHlnb24gZmlsbD0iIzE4MTgxOCIgcG9pbnRzPSIxNTcsMjMyLjUzMTMsMTYxLDI0Mi41MzEzLDE2NSwyMzIuNTMxMywxNjEsMjM2LjUzMTMiIHN0eWxlPSJzdHJva2U6IzE4MTgxODtzdHJva2Utd2lkdGg6MS4wOyIvPjxsaW5lIHN0eWxlPSJzdHJva2U6IzE4MTgxODtzdHJva2Utd2lkdGg6MS4wOyIgeDE9IjQ1IiB4Mj0iNDUiIHkxPSIyNzUuMzc1IiB5Mj0iMjkzLjM3NSIvPjxsaW5lIHN0eWxlPSJzdHJva2U6IzE4MTgxODtzdHJva2Utd2lkdGg6MS4wOyIgeDE9IjQ1IiB4Mj0iOTEiIHkxPSIyOTMuMzc1IiB5Mj0iMjkzLjM3NSIvPjxwb2x5Z29uIGZpbGw9IiMxODE4MTgiIHBvaW50cz0iODEsMjg5LjM3NSw5MSwyOTMuMzc1LDgxLDI5Ny4zNzUsODUsMjkzLjM3NSIgc3R5bGU9InN0cm9rZTojMTgxODE4O3N0cm9rZS13aWR0aDoxLjA7Ii8+PGxpbmUgc3R5bGU9InN0cm9rZTojMTgxODE4O3N0cm9rZS13aWR0aDoxLjA7IiB4MT0iMTYxIiB4Mj0iMTYxIiB5MT0iMjc1LjM3NSIgeTI9IjI5My4zNzUiLz48bGluZSBzdHlsZT0ic3Ryb2tlOiMxODE4MTg7c3Ryb2tlLXdpZHRoOjEuMDsiIHgxPSIxNjEiIHgyPSIxMTUiIHkxPSIyOTMuMzc1IiB5Mj0iMjkzLjM3NSIvPjxwb2x5Z29uIGZpbGw9IiMxODE4MTgiIHBvaW50cz0iMTI1LDI4OS4zNzUsMTE1LDI5My4zNzUsMTI1LDI5Ny4zNzUsMTIxLDI5My4zNzUiIHN0eWxlPSJzdHJva2U6IzE4MTgxODtzdHJva2Utd2lkdGg6MS4wOyIvPjxsaW5lIHN0eWxlPSJzdHJva2U6IzE4MTgxODtzdHJva2Utd2lkdGg6MS4wOyIgeDE9IjEwMyIgeDI9IjEwMyIgeTE9IjE4OC41MzEzIiB5Mj0iMjA4LjUzMTMiLz48cG9seWdvbiBmaWxsPSIjMTgxODE4IiBwb2ludHM9Ijk5LDE5OC41MzEzLDEwMywyMDguNTMxMywxMDcsMTk4LjUzMTMsMTAzLDIwMi41MzEzIiBzdHlsZT0ic3Ryb2tlOiMxODE4MTg7c3Ryb2tlLXdpZHRoOjEuMDsiLz48bGluZSBzdHlsZT0ic3Ryb2tlOiMxODE4MTg7c3Ryb2tlLXdpZHRoOjEuMDsiIHgxPSIxMDMiIHgyPSIxMDMiIHkxPSIzMDUuMzc1IiB5Mj0iMzI1LjM3NSIvPjxwb2x5Z29uIGZpbGw9IiMxODE4MTgiIHBvaW50cz0iOTksMzE1LjM3NSwxMDMsMzI1LjM3NSwxMDcsMzE1LjM3NSwxMDMsMzE5LjM3NSIgc3R5bGU9InN0cm9rZTojMTgxODE4O3N0cm9rZS13aWR0aDoxLjA7Ii8+PCEtLVNSQz1bQW92OUIyaFhpZGUtU19WSmxMRVZSenh6VkZUeVFvd2hmbWpORnNzUi1NQnpsa1Noa2ZfaU5fWWlTSnJHeTVkX1gyVXhiZzBBUGdPZlEzb1JpVnhmWDZLbDZzUXpzRF8tVER0MlBtanNzNmlnYjZJYXZlNmJEQmFLNUFvVXphenlrZ0NQZWpNUUFwTWRFNUwxMHdXN0JGVW9lVTdmeDdiRnpnenhEY0tkSzJ1bDlKRURneFdhbG0wMF0tLT48L2c+PC9zdmc+;" vertex="1" parent="1">
            <mxGeometry x="70" y="390" width="206" height="358" as="geometry" />
          </mxCell>
        </UserObject>
        <UserObject label="" plantUmlData="{&#xa;  &quot;data&quot;: &quot;@startuml\nclass 学生 {\n  +学生ID\n  +姓名\n  +选课()\n}\n\nclass 教师 {\n  +教师ID\n  +姓名\n  +录入课程()\n}\n\nclass 课程 {\n  +课程ID\n  +课程名称\n  +学分\n}\n\nclass 选课 {\n  +学生ID\n  +课程ID\n  +选课时间\n}\n\nclass 课程表 {\n  +学生ID\n  +课程列表\n}\n\nclass 管理员 {\n  +管理员ID\n  +审核课程调整()\n}\n\n学生 -- 选课\n课程 -- 选课\n学生 -- 课程表\n教师 --&gt; 课程\n管理员 --&gt; 课程\n@enduml\n&quot;,&#xa;  &quot;format&quot;: &quot;svg&quot;&#xa;}" id="DPlwqAMeHo2gNVx5Dcs1-6">
          <mxCell style="shape=image;noLabel=1;verticalAlign=top;aspect=fixed;imageAspect=0;image=data:image/svg+xml,PD94bWwgdmVyc2lvbj0iMS4wIiBlbmNvZGluZz0idXMtYXNjaWkiIHN0YW5kYWxvbmU9Im5vIj8+PHN2ZyB4bWxucz0iaHR0cDovL3d3dy53My5vcmcvMjAwMC9zdmciIHhtbG5zOnhsaW5rPSJodHRwOi8vd3d3LnczLm9yZy8xOTk5L3hsaW5rIiBjb250ZW50U3R5bGVUeXBlPSJ0ZXh0L2NzcyIgaGVpZ2h0PSI0MTJweCIgcHJlc2VydmVBc3BlY3RSYXRpbz0ibm9uZSIgc3R5bGU9IndpZHRoOjI5NHB4O2hlaWdodDo0MTJweDtiYWNrZ3JvdW5kOiNGRkZGRkY7IiB2ZXJzaW9uPSIxLjEiIHZpZXdCb3g9IjAgMCAyOTQgNDEyIiB3aWR0aD0iMjk0cHgiIHpvb21BbmRQYW49Im1hZ25pZnkiPjxkZWZzLz48Zz48IS0tY2xhc3MgPz8tLT48ZyBpZD0iZWxlbV8mIzIzMzk4OyYjMjk5ODM7Ij48cmVjdCBjb2RlTGluZT0iMSIgZmlsbD0iI0YxRjFGMSIgaGVpZ2h0PSI5Mi45NTMxIiBpZD0iJiMyMzM5ODsmIzI5OTgzOyIgcng9IjIuNSIgcnk9IjIuNSIgc3R5bGU9InN0cm9rZTojMTgxODE4O3N0cm9rZS13aWR0aDowLjU7IiB3aWR0aD0iNzAiIHg9IjIwOCIgeT0iMTYwIi8+PGVsbGlwc2UgY3g9IjIyNy41IiBjeT0iMTc2IiBmaWxsPSIjQUREMUIyIiByeD0iMTEiIHJ5PSIxMSIgc3R5bGU9InN0cm9rZTojMTgxODE4O3N0cm9rZS13aWR0aDoxLjA7Ii8+PHBhdGggZD0iTTIyNS4xMjUsMTgwLjI1IEwyMjUuMTI1LDE4MiBMMjMwLjA2MjUsMTgyIEwyMzAuMDYyNSwxODAuMjUgTDIyNS4xMjUsMTgwLjI1IFogTTIyNS44MTI1LDE4MC45Mzc1IFEyMjUuODEyNSwxODAuOTM3NSAyMjUuODEyNSwxNzEuNzUgTDIyNC4wNjI1LDE3MS43NSBRMjI0LjA2MjUsMTcxLjc1IDIyNC4wNjI1LDE4MC45Mzc1IEwyMjUuODEyNSwxODAuOTM3NSBaIE0yMjkuMzc1LDE4MC45Mzc1IEwyMzEuMTI1LDE4MC45Mzc1IFEyMzEuMTI1LDE4MC45Mzc1IDIzMS4xMjUsMTc4LjEyNSBMMjI5LjM3NSwxNzguMTI1IFEyMjkuMzc1LDE3OC4xMjUgMjI5LjM3NSwxODAuOTM3NSBaIE0yMjkuMzc1LDE3MS43NSBRMjI5LjM3NSwxNzEuNzUgMjI5LjM3NSwxNzQuNTYyNSBMMjMxLjEyNSwxNzQuNTYyNSBRMjMxLjEyNSwxNzQuNTYyNSAyMzEuMTI1LDE3MS43NSBMMjI5LjM3NSwxNzEuNzUgWiBNMjI1LjEyNSwxNzIuNDM3NSBMMjMwLjA2MjUsMTcyLjQzNzUgTDIzMC4wNjI1LDE3MC42ODc1IEwyMjUuMTI1LDE3MC42ODc1IEwyMjUuMTI1LDE3Mi40Mzc1IFogIiBmaWxsPSIjMDAwMDAwIi8+PHRleHQgZmlsbD0iIzAwMDAwMCIgZm9udC1mYW1pbHk9InNhbnMtc2VyaWYiIGZvbnQtc2l6ZT0iMTQiIGxlbmd0aEFkanVzdD0ic3BhY2luZyIgdGV4dExlbmd0aD0iMjgiIHg9IjI0Mi41IiB5PSIxODEuNzQyMiI+JiMyMzM5ODsmIzI5OTgzOzwvdGV4dD48bGluZSBzdHlsZT0ic3Ryb2tlOiMxODE4MTg7c3Ryb2tlLXdpZHRoOjAuNTsiIHgxPSIyMDkiIHgyPSIyNzciIHkxPSIxOTIiIHkyPSIxOTIiLz48ZWxsaXBzZSBjeD0iMjE5IiBjeT0iMjA0Ljk5MjIiIGZpbGw9Im5vbmUiIHJ4PSIzIiByeT0iMyIgc3R5bGU9InN0cm9rZTojMDM4MDQ4O3N0cm9rZS13aWR0aDoxLjA7Ii8+PHRleHQgZmlsbD0iIzAwMDAwMCIgZm9udC1mYW1pbHk9InNhbnMtc2VyaWYiIGZvbnQtc2l6ZT0iMTQiIGxlbmd0aEFkanVzdD0ic3BhY2luZyIgdGV4dExlbmd0aD0iNDIiIHg9IjIyOCIgeT0iMjA5LjIzNDQiPiYjMjMzOTg7JiMyOTk4MztJRDwvdGV4dD48ZWxsaXBzZSBjeD0iMjE5IiBjeT0iMjE5Ljk3NjYiIGZpbGw9Im5vbmUiIHJ4PSIzIiByeT0iMyIgc3R5bGU9InN0cm9rZTojMDM4MDQ4O3N0cm9rZS13aWR0aDoxLjA7Ii8+PHRleHQgZmlsbD0iIzAwMDAwMCIgZm9udC1mYW1pbHk9InNhbnMtc2VyaWYiIGZvbnQtc2l6ZT0iMTQiIGxlbmd0aEFkanVzdD0ic3BhY2luZyIgdGV4dExlbmd0aD0iMjgiIHg9IjIyOCIgeT0iMjI0LjIxODgiPiYjMjI5OTU7JiMyMTUxNzs8L3RleHQ+PGxpbmUgc3R5bGU9InN0cm9rZTojMTgxODE4O3N0cm9rZS13aWR0aDowLjU7IiB4MT0iMjA5IiB4Mj0iMjc3IiB5MT0iMjI5Ljk2ODgiIHkyPSIyMjkuOTY4OCIvPjxlbGxpcHNlIGN4PSIyMTkiIGN5PSIyNDIuOTYwOSIgZmlsbD0iIzg0QkU4NCIgcng9IjMiIHJ5PSIzIiBzdHlsZT0ic3Ryb2tlOiMwMzgwNDg7c3Ryb2tlLXdpZHRoOjEuMDsiLz48dGV4dCBmaWxsPSIjMDAwMDAwIiBmb250LWZhbWlseT0ic2Fucy1zZXJpZiIgZm9udC1zaXplPSIxNCIgbGVuZ3RoQWRqdXN0PSJzcGFjaW5nIiB0ZXh0TGVuZ3RoPSI0NCIgeD0iMjI4IiB5PSIyNDcuMjAzMSI+JiMzNjg3MzsmIzM1ODM4OygpPC90ZXh0PjwvZz48IS0tY2xhc3MgPz8tLT48ZyBpZD0iZWxlbV8mIzI1OTQ1OyYjMjQwNzI7Ij48cmVjdCBjb2RlTGluZT0iNyIgZmlsbD0iI0YxRjFGMSIgaGVpZ2h0PSI5Mi45NTMxIiBpZD0iJiMyNTk0NTsmIzI0MDcyOyIgcng9IjIuNSIgcnk9IjIuNSIgc3R5bGU9InN0cm9rZTojMTgxODE4O3N0cm9rZS13aWR0aDowLjU7IiB3aWR0aD0iOTgiIHg9IjciIHk9IjciLz48ZWxsaXBzZSBjeD0iMzkuMSIgY3k9IjIzIiBmaWxsPSIjQUREMUIyIiByeD0iMTEiIHJ5PSIxMSIgc3R5bGU9InN0cm9rZTojMTgxODE4O3N0cm9rZS13aWR0aDoxLjA7Ii8+PHBhdGggZD0iTTM2LjcyNSwyNy4yNSBMMzYuNzI1LDI5IEw0MS42NjI1LDI5IEw0MS42NjI1LDI3LjI1IEwzNi43MjUsMjcuMjUgWiBNMzcuNDEyNSwyNy45Mzc1IFEzNy40MTI1LDI3LjkzNzUgMzcuNDEyNSwxOC43NSBMMzUuNjYyNSwxOC43NSBRMzUuNjYyNSwxOC43NSAzNS42NjI1LDI3LjkzNzUgTDM3LjQxMjUsMjcuOTM3NSBaIE00MC45NzUsMjcuOTM3NSBMNDIuNzI1LDI3LjkzNzUgUTQyLjcyNSwyNy45Mzc1IDQyLjcyNSwyNS4xMjUgTDQwLjk3NSwyNS4xMjUgUTQwLjk3NSwyNS4xMjUgNDAuOTc1LDI3LjkzNzUgWiBNNDAuOTc1LDE4Ljc1IFE0MC45NzUsMTguNzUgNDAuOTc1LDIxLjU2MjUgTDQyLjcyNSwyMS41NjI1IFE0Mi43MjUsMjEuNTYyNSA0Mi43MjUsMTguNzUgTDQwLjk3NSwxOC43NSBaIE0zNi43MjUsMTkuNDM3NSBMNDEuNjYyNSwxOS40Mzc1IEw0MS42NjI1LDE3LjY4NzUgTDM2LjcyNSwxNy42ODc1IEwzNi43MjUsMTkuNDM3NSBaICIgZmlsbD0iIzAwMDAwMCIvPjx0ZXh0IGZpbGw9IiMwMDAwMDAiIGZvbnQtZmFtaWx5PSJzYW5zLXNlcmlmIiBmb250LXNpemU9IjE0IiBsZW5ndGhBZGp1c3Q9InNwYWNpbmciIHRleHRMZW5ndGg9IjI4IiB4PSI1Ni45IiB5PSIyOC43NDIyIj4mIzI1OTQ1OyYjMjQwNzI7PC90ZXh0PjxsaW5lIHN0eWxlPSJzdHJva2U6IzE4MTgxODtzdHJva2Utd2lkdGg6MC41OyIgeDE9IjgiIHgyPSIxMDQiIHkxPSIzOSIgeTI9IjM5Ii8+PGVsbGlwc2UgY3g9IjE4IiBjeT0iNTEuOTkyMiIgZmlsbD0ibm9uZSIgcng9IjMiIHJ5PSIzIiBzdHlsZT0ic3Ryb2tlOiMwMzgwNDg7c3Ryb2tlLXdpZHRoOjEuMDsiLz48dGV4dCBmaWxsPSIjMDAwMDAwIiBmb250LWZhbWlseT0ic2Fucy1zZXJpZiIgZm9udC1zaXplPSIxNCIgbGVuZ3RoQWRqdXN0PSJzcGFjaW5nIiB0ZXh0TGVuZ3RoPSI0MiIgeD0iMjciIHk9IjU2LjIzNDQiPiYjMjU5NDU7JiMyNDA3MjtJRDwvdGV4dD48ZWxsaXBzZSBjeD0iMTgiIGN5PSI2Ni45NzY2IiBmaWxsPSJub25lIiByeD0iMyIgcnk9IjMiIHN0eWxlPSJzdHJva2U6IzAzODA0ODtzdHJva2Utd2lkdGg6MS4wOyIvPjx0ZXh0IGZpbGw9IiMwMDAwMDAiIGZvbnQtZmFtaWx5PSJzYW5zLXNlcmlmIiBmb250LXNpemU9IjE0IiBsZW5ndGhBZGp1c3Q9InNwYWNpbmciIHRleHRMZW5ndGg9IjI4IiB4PSIyNyIgeT0iNzEuMjE4OCI+JiMyMjk5NTsmIzIxNTE3OzwvdGV4dD48bGluZSBzdHlsZT0ic3Ryb2tlOiMxODE4MTg7c3Ryb2tlLXdpZHRoOjAuNTsiIHgxPSI4IiB4Mj0iMTA0IiB5MT0iNzYuOTY4OCIgeTI9Ijc2Ljk2ODgiLz48ZWxsaXBzZSBjeD0iMTgiIGN5PSI4OS45NjA5IiBmaWxsPSIjODRCRTg0IiByeD0iMyIgcnk9IjMiIHN0eWxlPSJzdHJva2U6IzAzODA0ODtzdHJva2Utd2lkdGg6MS4wOyIvPjx0ZXh0IGZpbGw9IiMwMDAwMDAiIGZvbnQtZmFtaWx5PSJzYW5zLXNlcmlmIiBmb250LXNpemU9IjE0IiBsZW5ndGhBZGp1c3Q9InNwYWNpbmciIHRleHRMZW5ndGg9IjcyIiB4PSIyNyIgeT0iOTQuMjAzMSI+JiMyNDQwNTsmIzIwODM3OyYjMzU4Mzg7JiMzMTI0MzsoKTwvdGV4dD48L2c+PCEtLWNsYXNzID8/LS0+PGcgaWQ9ImVsZW1fJiMzNTgzODsmIzMxMjQzOyI+PHJlY3QgY29kZUxpbmU9IjEzIiBmaWxsPSIjRjFGMUYxIiBoZWlnaHQ9IjkyLjk1MzEiIGlkPSImIzM1ODM4OyYjMzEyNDM7IiByeD0iMi41IiByeT0iMi41IiBzdHlsZT0ic3Ryb2tlOiMxODE4MTg7c3Ryb2tlLXdpZHRoOjAuNTsiIHdpZHRoPSI4MiIgeD0iODgiIHk9IjE2MCIvPjxlbGxpcHNlIGN4PSIxMTIuOSIgY3k9IjE3NiIgZmlsbD0iI0FERDFCMiIgcng9IjExIiByeT0iMTEiIHN0eWxlPSJzdHJva2U6IzE4MTgxODtzdHJva2Utd2lkdGg6MS4wOyIvPjxwYXRoIGQ9Ik0xMTAuNTI1LDE4MC4yNSBMMTEwLjUyNSwxODIgTDExNS40NjI1LDE4MiBMMTE1LjQ2MjUsMTgwLjI1IEwxMTAuNTI1LDE4MC4yNSBaIE0xMTEuMjEyNSwxODAuOTM3NSBRMTExLjIxMjUsMTgwLjkzNzUgMTExLjIxMjUsMTcxLjc1IEwxMDkuNDYyNSwxNzEuNzUgUTEwOS40NjI1LDE3MS43NSAxMDkuNDYyNSwxODAuOTM3NSBMMTExLjIxMjUsMTgwLjkzNzUgWiBNMTE0Ljc3NSwxODAuOTM3NSBMMTE2LjUyNSwxODAuOTM3NSBRMTE2LjUyNSwxODAuOTM3NSAxMTYuNTI1LDE3OC4xMjUgTDExNC43NzUsMTc4LjEyNSBRMTE0Ljc3NSwxNzguMTI1IDExNC43NzUsMTgwLjkzNzUgWiBNMTE0Ljc3NSwxNzEuNzUgUTExNC43NzUsMTcxLjc1IDExNC43NzUsMTc0LjU2MjUgTDExNi41MjUsMTc0LjU2MjUgUTExNi41MjUsMTc0LjU2MjUgMTE2LjUyNSwxNzEuNzUgTDExNC43NzUsMTcxLjc1IFogTTExMC41MjUsMTcyLjQzNzUgTDExNS40NjI1LDE3Mi40Mzc1IEwxMTUuNDYyNSwxNzAuNjg3NSBMMTEwLjUyNSwxNzAuNjg3NSBMMTEwLjUyNSwxNzIuNDM3NSBaICIgZmlsbD0iIzAwMDAwMCIvPjx0ZXh0IGZpbGw9IiMwMDAwMDAiIGZvbnQtZmFtaWx5PSJzYW5zLXNlcmlmIiBmb250LXNpemU9IjE0IiBsZW5ndGhBZGp1c3Q9InNwYWNpbmciIHRleHRMZW5ndGg9IjI4IiB4PSIxMjkuMSIgeT0iMTgxLjc0MjIiPiYjMzU4Mzg7JiMzMTI0Mzs8L3RleHQ+PGxpbmUgc3R5bGU9InN0cm9rZTojMTgxODE4O3N0cm9rZS13aWR0aDowLjU7IiB4MT0iODkiIHgyPSIxNjkiIHkxPSIxOTIiIHkyPSIxOTIiLz48ZWxsaXBzZSBjeD0iOTkiIGN5PSIyMDQuOTkyMiIgZmlsbD0ibm9uZSIgcng9IjMiIHJ5PSIzIiBzdHlsZT0ic3Ryb2tlOiMwMzgwNDg7c3Ryb2tlLXdpZHRoOjEuMDsiLz48dGV4dCBmaWxsPSIjMDAwMDAwIiBmb250LWZhbWlseT0ic2Fucy1zZXJpZiIgZm9udC1zaXplPSIxNCIgbGVuZ3RoQWRqdXN0PSJzcGFjaW5nIiB0ZXh0TGVuZ3RoPSI0MiIgeD0iMTA4IiB5PSIyMDkuMjM0NCI+JiMzNTgzODsmIzMxMjQzO0lEPC90ZXh0PjxlbGxpcHNlIGN4PSI5OSIgY3k9IjIxOS45NzY2IiBmaWxsPSJub25lIiByeD0iMyIgcnk9IjMiIHN0eWxlPSJzdHJva2U6IzAzODA0ODtzdHJva2Utd2lkdGg6MS4wOyIvPjx0ZXh0IGZpbGw9IiMwMDAwMDAiIGZvbnQtZmFtaWx5PSJzYW5zLXNlcmlmIiBmb250LXNpemU9IjE0IiBsZW5ndGhBZGp1c3Q9InNwYWNpbmciIHRleHRMZW5ndGg9IjU2IiB4PSIxMDgiIHk9IjIyNC4yMTg4Ij4mIzM1ODM4OyYjMzEyNDM7JiMyMTUxNzsmIzMxMjE2OzwvdGV4dD48ZWxsaXBzZSBjeD0iOTkiIGN5PSIyMzQuOTYwOSIgZmlsbD0ibm9uZSIgcng9IjMiIHJ5PSIzIiBzdHlsZT0ic3Ryb2tlOiMwMzgwNDg7c3Ryb2tlLXdpZHRoOjEuMDsiLz48dGV4dCBmaWxsPSIjMDAwMDAwIiBmb250LWZhbWlseT0ic2Fucy1zZXJpZiIgZm9udC1zaXplPSIxNCIgbGVuZ3RoQWRqdXN0PSJzcGFjaW5nIiB0ZXh0TGVuZ3RoPSIyOCIgeD0iMTA4IiB5PSIyMzkuMjAzMSI+JiMyMzM5ODsmIzIwOTk4OzwvdGV4dD48bGluZSBzdHlsZT0ic3Ryb2tlOiMxODE4MTg7c3Ryb2tlLXdpZHRoOjAuNTsiIHgxPSI4OSIgeDI9IjE2OSIgeTE9IjI0NC45NTMxIiB5Mj0iMjQ0Ljk1MzEiLz48L2c+PCEtLWNsYXNzID8/LS0+PGcgaWQ9ImVsZW1fJiMzNjg3MzsmIzM1ODM4OyI+PHJlY3QgY29kZUxpbmU9IjE5IiBmaWxsPSIjRjFGMUYxIiBoZWlnaHQ9IjkyLjk1MzEiIGlkPSImIzM2ODczOyYjMzU4Mzg7IiByeD0iMi41IiByeT0iMi41IiBzdHlsZT0ic3Ryb2tlOiMxODE4MTg7c3Ryb2tlLXdpZHRoOjAuNTsiIHdpZHRoPSI4MiIgeD0iODgiIHk9IjMxMyIvPjxlbGxpcHNlIGN4PSIxMTIuOSIgY3k9IjMyOSIgZmlsbD0iI0FERDFCMiIgcng9IjExIiByeT0iMTEiIHN0eWxlPSJzdHJva2U6IzE4MTgxODtzdHJva2Utd2lkdGg6MS4wOyIvPjxwYXRoIGQ9Ik0xMTAuNTI1LDMzMy4yNSBMMTEwLjUyNSwzMzUgTDExNS40NjI1LDMzNSBMMTE1LjQ2MjUsMzMzLjI1IEwxMTAuNTI1LDMzMy4yNSBaIE0xMTEuMjEyNSwzMzMuOTM3NSBRMTExLjIxMjUsMzMzLjkzNzUgMTExLjIxMjUsMzI0Ljc1IEwxMDkuNDYyNSwzMjQuNzUgUTEwOS40NjI1LDMyNC43NSAxMDkuNDYyNSwzMzMuOTM3NSBMMTExLjIxMjUsMzMzLjkzNzUgWiBNMTE0Ljc3NSwzMzMuOTM3NSBMMTE2LjUyNSwzMzMuOTM3NSBRMTE2LjUyNSwzMzMuOTM3NSAxMTYuNTI1LDMzMS4xMjUgTDExNC43NzUsMzMxLjEyNSBRMTE0Ljc3NSwzMzEuMTI1IDExNC43NzUsMzMzLjkzNzUgWiBNMTE0Ljc3NSwzMjQuNzUgUTExNC43NzUsMzI0Ljc1IDExNC43NzUsMzI3LjU2MjUgTDExNi41MjUsMzI3LjU2MjUgUTExNi41MjUsMzI3LjU2MjUgMTE2LjUyNSwzMjQuNzUgTDExNC43NzUsMzI0Ljc1IFogTTExMC41MjUsMzI1LjQzNzUgTDExNS40NjI1LDMyNS40Mzc1IEwxMTUuNDYyNSwzMjMuNjg3NSBMMTEwLjUyNSwzMjMuNjg3NSBMMTEwLjUyNSwzMjUuNDM3NSBaICIgZmlsbD0iIzAwMDAwMCIvPjx0ZXh0IGZpbGw9IiMwMDAwMDAiIGZvbnQtZmFtaWx5PSJzYW5zLXNlcmlmIiBmb250LXNpemU9IjE0IiBsZW5ndGhBZGp1c3Q9InNwYWNpbmciIHRleHRMZW5ndGg9IjI4IiB4PSIxMjkuMSIgeT0iMzM0Ljc0MjIiPiYjMzY4NzM7JiMzNTgzODs8L3RleHQ+PGxpbmUgc3R5bGU9InN0cm9rZTojMTgxODE4O3N0cm9rZS13aWR0aDowLjU7IiB4MT0iODkiIHgyPSIxNjkiIHkxPSIzNDUiIHkyPSIzNDUiLz48ZWxsaXBzZSBjeD0iOTkiIGN5PSIzNTcuOTkyMiIgZmlsbD0ibm9uZSIgcng9IjMiIHJ5PSIzIiBzdHlsZT0ic3Ryb2tlOiMwMzgwNDg7c3Ryb2tlLXdpZHRoOjEuMDsiLz48dGV4dCBmaWxsPSIjMDAwMDAwIiBmb250LWZhbWlseT0ic2Fucy1zZXJpZiIgZm9udC1zaXplPSIxNCIgbGVuZ3RoQWRqdXN0PSJzcGFjaW5nIiB0ZXh0TGVuZ3RoPSI0MiIgeD0iMTA4IiB5PSIzNjIuMjM0NCI+JiMyMzM5ODsmIzI5OTgzO0lEPC90ZXh0PjxlbGxpcHNlIGN4PSI5OSIgY3k9IjM3Mi45NzY2IiBmaWxsPSJub25lIiByeD0iMyIgcnk9IjMiIHN0eWxlPSJzdHJva2U6IzAzODA0ODtzdHJva2Utd2lkdGg6MS4wOyIvPjx0ZXh0IGZpbGw9IiMwMDAwMDAiIGZvbnQtZmFtaWx5PSJzYW5zLXNlcmlmIiBmb250LXNpemU9IjE0IiBsZW5ndGhBZGp1c3Q9InNwYWNpbmciIHRleHRMZW5ndGg9IjQyIiB4PSIxMDgiIHk9IjM3Ny4yMTg4Ij4mIzM1ODM4OyYjMzEyNDM7SUQ8L3RleHQ+PGVsbGlwc2UgY3g9Ijk5IiBjeT0iMzg3Ljk2MDkiIGZpbGw9Im5vbmUiIHJ4PSIzIiByeT0iMyIgc3R5bGU9InN0cm9rZTojMDM4MDQ4O3N0cm9rZS13aWR0aDoxLjA7Ii8+PHRleHQgZmlsbD0iIzAwMDAwMCIgZm9udC1mYW1pbHk9InNhbnMtc2VyaWYiIGZvbnQtc2l6ZT0iMTQiIGxlbmd0aEFkanVzdD0ic3BhY2luZyIgdGV4dExlbmd0aD0iNTYiIHg9IjEwOCIgeT0iMzkyLjIwMzEiPiYjMzY4NzM7JiMzNTgzODsmIzI2MTAyOyYjMzgzODg7PC90ZXh0PjxsaW5lIHN0eWxlPSJzdHJva2U6IzE4MTgxODtzdHJva2Utd2lkdGg6MC41OyIgeDE9Ijg5IiB4Mj0iMTY5IiB5MT0iMzk3Ljk1MzEiIHkyPSIzOTcuOTUzMSIvPjwvZz48IS0tY2xhc3MgPz8/LS0+PGcgaWQ9ImVsZW1fJiMzNTgzODsmIzMxMjQzOyYjMzQ5MjA7Ij48cmVjdCBjb2RlTGluZT0iMjUiIGZpbGw9IiNGMUYxRjEiIGhlaWdodD0iNzcuOTY4OCIgaWQ9IiYjMzU4Mzg7JiMzMTI0MzsmIzM0OTIwOyIgcng9IjIuNSIgcnk9IjIuNSIgc3R5bGU9InN0cm9rZTojMTgxODE4O3N0cm9rZS13aWR0aDowLjU7IiB3aWR0aD0iODIiIHg9IjIwNSIgeT0iMzIwLjUiLz48ZWxsaXBzZSBjeD0iMjIzLjYiIGN5PSIzMzYuNSIgZmlsbD0iI0FERDFCMiIgcng9IjExIiByeT0iMTEiIHN0eWxlPSJzdHJva2U6IzE4MTgxODtzdHJva2Utd2lkdGg6MS4wOyIvPjxwYXRoIGQ9Ik0yMjEuMjI1LDM0MC43NSBMMjIxLjIyNSwzNDIuNSBMMjI2LjE2MjUsMzQyLjUgTDIyNi4xNjI1LDM0MC43NSBMMjIxLjIyNSwzNDAuNzUgWiBNMjIxLjkxMjUsMzQxLjQzNzUgUTIyMS45MTI1LDM0MS40Mzc1IDIyMS45MTI1LDMzMi4yNSBMMjIwLjE2MjUsMzMyLjI1IFEyMjAuMTYyNSwzMzIuMjUgMjIwLjE2MjUsMzQxLjQzNzUgTDIyMS45MTI1LDM0MS40Mzc1IFogTTIyNS40NzUsMzQxLjQzNzUgTDIyNy4yMjUsMzQxLjQzNzUgUTIyNy4yMjUsMzQxLjQzNzUgMjI3LjIyNSwzMzguNjI1IEwyMjUuNDc1LDMzOC42MjUgUTIyNS40NzUsMzM4LjYyNSAyMjUuNDc1LDM0MS40Mzc1IFogTTIyNS40NzUsMzMyLjI1IFEyMjUuNDc1LDMzMi4yNSAyMjUuNDc1LDMzNS4wNjI1IEwyMjcuMjI1LDMzNS4wNjI1IFEyMjcuMjI1LDMzNS4wNjI1IDIyNy4yMjUsMzMyLjI1IEwyMjUuNDc1LDMzMi4yNSBaIE0yMjEuMjI1LDMzMi45Mzc1IEwyMjYuMTYyNSwzMzIuOTM3NSBMMjI2LjE2MjUsMzMxLjE4NzUgTDIyMS4yMjUsMzMxLjE4NzUgTDIyMS4yMjUsMzMyLjkzNzUgWiAiIGZpbGw9IiMwMDAwMDAiLz48dGV4dCBmaWxsPSIjMDAwMDAwIiBmb250LWZhbWlseT0ic2Fucy1zZXJpZiIgZm9udC1zaXplPSIxNCIgbGVuZ3RoQWRqdXN0PSJzcGFjaW5nIiB0ZXh0TGVuZ3RoPSI0MiIgeD0iMjM4LjQiIHk9IjM0Mi4yNDIyIj4mIzM1ODM4OyYjMzEyNDM7JiMzNDkyMDs8L3RleHQ+PGxpbmUgc3R5bGU9InN0cm9rZTojMTgxODE4O3N0cm9rZS13aWR0aDowLjU7IiB4MT0iMjA2IiB4Mj0iMjg2IiB5MT0iMzUyLjUiIHkyPSIzNTIuNSIvPjxlbGxpcHNlIGN4PSIyMTYiIGN5PSIzNjUuNDkyMiIgZmlsbD0ibm9uZSIgcng9IjMiIHJ5PSIzIiBzdHlsZT0ic3Ryb2tlOiMwMzgwNDg7c3Ryb2tlLXdpZHRoOjEuMDsiLz48dGV4dCBmaWxsPSIjMDAwMDAwIiBmb250LWZhbWlseT0ic2Fucy1zZXJpZiIgZm9udC1zaXplPSIxNCIgbGVuZ3RoQWRqdXN0PSJzcGFjaW5nIiB0ZXh0TGVuZ3RoPSI0MiIgeD0iMjI1IiB5PSIzNjkuNzM0NCI+JiMyMzM5ODsmIzI5OTgzO0lEPC90ZXh0PjxlbGxpcHNlIGN4PSIyMTYiIGN5PSIzODAuNDc2NiIgZmlsbD0ibm9uZSIgcng9IjMiIHJ5PSIzIiBzdHlsZT0ic3Ryb2tlOiMwMzgwNDg7c3Ryb2tlLXdpZHRoOjEuMDsiLz48dGV4dCBmaWxsPSIjMDAwMDAwIiBmb250LWZhbWlseT0ic2Fucy1zZXJpZiIgZm9udC1zaXplPSIxNCIgbGVuZ3RoQWRqdXN0PSJzcGFjaW5nIiB0ZXh0TGVuZ3RoPSI1NiIgeD0iMjI1IiB5PSIzODQuNzE4OCI+JiMzNTgzODsmIzMxMjQzOyYjMjEwMTU7JiMzNDkyMDs8L3RleHQ+PGxpbmUgc3R5bGU9InN0cm9rZTojMTgxODE4O3N0cm9rZS13aWR0aDowLjU7IiB4MT0iMjA2IiB4Mj0iMjg2IiB5MT0iMzkwLjQ2ODgiIHkyPSIzOTAuNDY4OCIvPjwvZz48IS0tY2xhc3MgPz8/LS0+PGcgaWQ9ImVsZW1fJiMzMTY0OTsmIzI5NzAyOyYjMjE1OTI7Ij48cmVjdCBjb2RlTGluZT0iMzAiIGZpbGw9IiNGMUYxRjEiIGhlaWdodD0iNzcuOTY4OCIgaWQ9IiYjMzE2NDk7JiMyOTcwMjsmIzIxNTkyOyIgcng9IjIuNSIgcnk9IjIuNSIgc3R5bGU9InN0cm9rZTojMTgxODE4O3N0cm9rZS13aWR0aDowLjU7IiB3aWR0aD0iMTI2IiB4PSIxNDAiIHk9IjE0LjUiLz48ZWxsaXBzZSBjeD0iMTc4LjQiIGN5PSIzMC41IiBmaWxsPSIjQUREMUIyIiByeD0iMTEiIHJ5PSIxMSIgc3R5bGU9InN0cm9rZTojMTgxODE4O3N0cm9rZS13aWR0aDoxLjA7Ii8+PHBhdGggZD0iTTE3Ni4wMjUsMzQuNzUgTDE3Ni4wMjUsMzYuNSBMMTgwLjk2MjUsMzYuNSBMMTgwLjk2MjUsMzQuNzUgTDE3Ni4wMjUsMzQuNzUgWiBNMTc2LjcxMjUsMzUuNDM3NSBRMTc2LjcxMjUsMzUuNDM3NSAxNzYuNzEyNSwyNi4yNSBMMTc0Ljk2MjUsMjYuMjUgUTE3NC45NjI1LDI2LjI1IDE3NC45NjI1LDM1LjQzNzUgTDE3Ni43MTI1LDM1LjQzNzUgWiBNMTgwLjI3NSwzNS40Mzc1IEwxODIuMDI1LDM1LjQzNzUgUTE4Mi4wMjUsMzUuNDM3NSAxODIuMDI1LDMyLjYyNSBMMTgwLjI3NSwzMi42MjUgUTE4MC4yNzUsMzIuNjI1IDE4MC4yNzUsMzUuNDM3NSBaIE0xODAuMjc1LDI2LjI1IFExODAuMjc1LDI2LjI1IDE4MC4yNzUsMjkuMDYyNSBMMTgyLjAyNSwyOS4wNjI1IFExODIuMDI1LDI5LjA2MjUgMTgyLjAyNSwyNi4yNSBMMTgwLjI3NSwyNi4yNSBaIE0xNzYuMDI1LDI2LjkzNzUgTDE4MC45NjI1LDI2LjkzNzUgTDE4MC45NjI1LDI1LjE4NzUgTDE3Ni4wMjUsMjUuMTg3NSBMMTc2LjAyNSwyNi45Mzc1IFogIiBmaWxsPSIjMDAwMDAwIi8+PHRleHQgZmlsbD0iIzAwMDAwMCIgZm9udC1mYW1pbHk9InNhbnMtc2VyaWYiIGZvbnQtc2l6ZT0iMTQiIGxlbmd0aEFkanVzdD0ic3BhY2luZyIgdGV4dExlbmd0aD0iNDIiIHg9IjE5Ny42IiB5PSIzNi4yNDIyIj4mIzMxNjQ5OyYjMjk3MDI7JiMyMTU5Mjs8L3RleHQ+PGxpbmUgc3R5bGU9InN0cm9rZTojMTgxODE4O3N0cm9rZS13aWR0aDowLjU7IiB4MT0iMTQxIiB4Mj0iMjY1IiB5MT0iNDYuNSIgeTI9IjQ2LjUiLz48ZWxsaXBzZSBjeD0iMTUxIiBjeT0iNTkuNDkyMiIgZmlsbD0ibm9uZSIgcng9IjMiIHJ5PSIzIiBzdHlsZT0ic3Ryb2tlOiMwMzgwNDg7c3Ryb2tlLXdpZHRoOjEuMDsiLz48dGV4dCBmaWxsPSIjMDAwMDAwIiBmb250LWZhbWlseT0ic2Fucy1zZXJpZiIgZm9udC1zaXplPSIxNCIgbGVuZ3RoQWRqdXN0PSJzcGFjaW5nIiB0ZXh0TGVuZ3RoPSI1NiIgeD0iMTYwIiB5PSI2My43MzQ0Ij4mIzMxNjQ5OyYjMjk3MDI7JiMyMTU5MjtJRDwvdGV4dD48bGluZSBzdHlsZT0ic3Ryb2tlOiMxODE4MTg7c3Ryb2tlLXdpZHRoOjAuNTsiIHgxPSIxNDEiIHgyPSIyNjUiIHkxPSI2OS40ODQ0IiB5Mj0iNjkuNDg0NCIvPjxlbGxpcHNlIGN4PSIxNTEiIGN5PSI4Mi40NzY2IiBmaWxsPSIjODRCRTg0IiByeD0iMyIgcnk9IjMiIHN0eWxlPSJzdHJva2U6IzAzODA0ODtzdHJva2Utd2lkdGg6MS4wOyIvPjx0ZXh0IGZpbGw9IiMwMDAwMDAiIGZvbnQtZmFtaWx5PSJzYW5zLXNlcmlmIiBmb250LXNpemU9IjE0IiBsZW5ndGhBZGp1c3Q9InNwYWNpbmciIHRleHRMZW5ndGg9IjEwMCIgeD0iMTYwIiB5PSI4Ni43MTg4Ij4mIzIzNDU3OyYjMjY2ODA7JiMzNTgzODsmIzMxMjQzOyYjMzU4NDM7JiMyNTk3MjsoKTwvdGV4dD48L2c+PCEtLWxpbmsgPz8gdG8gPz8tLT48ZyBpZD0ibGlua18mIzIzMzk4OyYjMjk5ODM7XyYjMzY4NzM7JiMzNTgzODsiPjxwYXRoIGNvZGVMaW5lPSIzNSIgZD0iTTIwOC40OSwyNTMuMjEgQzE5NC4yLDI3Mi4xNCAxNzcuNjcsMjk0LjAzIDE2My40LDMxMi45NCAiIGZpbGw9Im5vbmUiIGlkPSImIzIzMzk4OyYjMjk5ODM7LSYjMzY4NzM7JiMzNTgzODsiIHN0eWxlPSJzdHJva2U6IzE4MTgxODtzdHJva2Utd2lkdGg6MS4wOyIvPjwvZz48IS0tbGluayA/PyB0byA/Py0tPjxnIGlkPSJsaW5rXyYjMzU4Mzg7JiMzMTI0MztfJiMzNjg3MzsmIzM1ODM4OyI+PHBhdGggY29kZUxpbmU9IjM2IiBkPSJNMTI5LDI1My4yMSBDMTI5LDI3Mi4xNCAxMjksMjk0LjAzIDEyOSwzMTIuOTQgIiBmaWxsPSJub25lIiBpZD0iJiMzNTgzODsmIzMxMjQzOy0mIzM2ODczOyYjMzU4Mzg7IiBzdHlsZT0ic3Ryb2tlOiMxODE4MTg7c3Ryb2tlLXdpZHRoOjEuMDsiLz48L2c+PCEtLWxpbmsgPz8gdG8gPz8/LS0+PGcgaWQ9ImxpbmtfJiMyMzM5ODsmIzI5OTgzO18mIzM1ODM4OyYjMzEyNDM7JiMzNDkyMDsiPjxwYXRoIGNvZGVMaW5lPSIzNyIgZD0iTTI0My45MSwyNTMuMjEgQzI0NC4zMywyNzQuNTcgMjQ0LjgzLDI5OS43MSAyNDUuMjQsMzIwLjA3ICIgZmlsbD0ibm9uZSIgaWQ9IiYjMjMzOTg7JiMyOTk4MzstJiMzNTgzODsmIzMxMjQzOyYjMzQ5MjA7IiBzdHlsZT0ic3Ryb2tlOiMxODE4MTg7c3Ryb2tlLXdpZHRoOjEuMDsiLz48L2c+PCEtLWxpbmsgPz8gdG8gPz8tLT48ZyBpZD0ibGlua18mIzI1OTQ1OyYjMjQwNzI7XyYjMzU4Mzg7JiMzMTI0MzsiPjxwYXRoIGNvZGVMaW5lPSIzOCIgZD0iTTc4LjEsMTAwLjIxIEM4Ny4yNSwxMTkuMTQgOTUuMjE4OSwxMzUuNjI3OSAxMDQuMzU4OSwxNTQuNTM3OSAiIGZpbGw9Im5vbmUiIGlkPSImIzI1OTQ1OyYjMjQwNzI7LXRvLSYjMzU4Mzg7JiMzMTI0MzsiIHN0eWxlPSJzdHJva2U6IzE4MTgxODtzdHJva2Utd2lkdGg6MS4wOyIvPjxwb2x5Z29uIGZpbGw9IiMxODE4MTgiIHBvaW50cz0iMTA2Ljk3LDE1OS45NCwxMDYuNjU0OCwxNTAuMDk2MiwxMDQuNzk0MSwxNTUuNDM4Myw5OS40NTIsMTUzLjU3NzYsMTA2Ljk3LDE1OS45NCIgc3R5bGU9InN0cm9rZTojMTgxODE4O3N0cm9rZS13aWR0aDoxLjA7Ii8+PC9nPjwhLS1saW5rID8/PyB0byA/Py0tPjxnIGlkPSJsaW5rXyYjMzE2NDk7JiMyOTcwMjsmIzIxNTkyO18mIzM1ODM4OyYjMzEyNDM7Ij48cGF0aCBjb2RlTGluZT0iMzkiIGQ9Ik0xODQuMzMsOTIuNiBDMTc0LjMxLDExMy4wNSAxNjQuNTMxMSwxMzMuMDAyNSAxNTQuMDAxMSwxNTQuNDgyNSAiIGZpbGw9Im5vbmUiIGlkPSImIzMxNjQ5OyYjMjk3MDI7JiMyMTU5MjstdG8tJiMzNTgzODsmIzMxMjQzOyIgc3R5bGU9InN0cm9rZTojMTgxODE4O3N0cm9rZS13aWR0aDoxLjA7Ii8+PHBvbHlnb24gZmlsbD0iIzE4MTgxOCIgcG9pbnRzPSIxNTEuMzYsMTU5Ljg3LDE1OC45MTMyLDE1My41NDk1LDE1My41NjA5LDE1NS4zODA0LDE1MS43Mjk5LDE1MC4wMjgxLDE1MS4zNiwxNTkuODciIHN0eWxlPSJzdHJva2U6IzE4MTgxODtzdHJva2Utd2lkdGg6MS4wOyIvPjwvZz48IS0tU1JDPVtJeXY5QjJ2TVVCZnNzVkNmeW5NZ2tIR0tqMjVpSm5TbVVfZGFmbkR3R1FvTjNQcWxya19KcUVJZ3ZVOUExa2p2RGROY3FucVQ0M3FHRGhnVWZ0a2RGY3JUMmpKc1Y0S3RpYXc4MjRHZFgwdEgyTTQzREp6VmxXN2dhZ1NUUkdYejQzVFdrWEJQMzhZUVB6RXRsUG8tMVR0NjVtak51REJ5ajZDd0sxUVh1VmN3WFN5ZGozc1RFMEVZMFN3NVVkN1RtY1NCVGEwRHRUM3lSRWVNWUZVV21RWWgydEtnNXpJZDIwNjQyaFlKa0EwMWdRamgxbk5hR2pZRTQwRzBdLS0+PC9nPjwvc3ZnPg==;" vertex="1" parent="1">
            <mxGeometry x="-10" y="870" width="294" height="412" as="geometry" />
          </mxCell>
        </UserObject>
        <UserObject label="" plantUmlData="{&#xa;  &quot;data&quot;: &quot;@startuml\nactor 学生\nparticipant 数据库\nparticipant 课程管理\n\n学生 -&gt; 数据库 : 验证用户名和密码\nalt 登录成功\n  学生 -&gt; 课程管理 : 查看课程列表\n  课程管理 -&gt; 数据库 : 查询课程信息\n  数据库 --&gt; 课程管理 : 返回课程信息\n  学生 -&gt; 课程管理 : 选择课程\n  课程管理 -&gt; 数据库 : 保存选课记录\nend\n@enduml\n&quot;,&#xa;  &quot;format&quot;: &quot;svg&quot;&#xa;}" id="DPlwqAMeHo2gNVx5Dcs1-7">
          <mxCell style="shape=image;noLabel=1;verticalAlign=top;aspect=fixed;imageAspect=0;image=data:image/svg+xml,PD94bWwgdmVyc2lvbj0iMS4wIiBlbmNvZGluZz0idXMtYXNjaWkiIHN0YW5kYWxvbmU9Im5vIj8+PHN2ZyB4bWxucz0iaHR0cDovL3d3dy53My5vcmcvMjAwMC9zdmciIHhtbG5zOnhsaW5rPSJodHRwOi8vd3d3LnczLm9yZy8xOTk5L3hsaW5rIiBjb250ZW50U3R5bGVUeXBlPSJ0ZXh0L2NzcyIgaGVpZ2h0PSIzNzZweCIgcHJlc2VydmVBc3BlY3RSYXRpbz0ibm9uZSIgc3R5bGU9IndpZHRoOjMxOHB4O2hlaWdodDozNzZweDtiYWNrZ3JvdW5kOiNGRkZGRkY7IiB2ZXJzaW9uPSIxLjEiIHZpZXdCb3g9IjAgMCAzMTggMzc2IiB3aWR0aD0iMzE4cHgiIHpvb21BbmRQYW49Im1hZ25pZnkiPjxkZWZzLz48Zz48cmVjdCBmaWxsPSJub25lIiBoZWlnaHQ9IjE1NS40ODQ0IiBzdHlsZT0ic3Ryb2tlOiMwMDAwMDA7c3Ryb2tlLXdpZHRoOjEuNTsiIHdpZHRoPSIzMDIiIHg9IjEwIiB5PSIxMjQuODk4NCIvPjxsaW5lIHN0eWxlPSJzdHJva2U6IzE4MTgxODtzdHJva2Utd2lkdGg6MC41O3N0cm9rZS1kYXNoYXJyYXk6NS4wLDUuMDsiIHgxPSIzNyIgeDI9IjM3IiB5MT0iNzkuOTg0NCIgeTI9IjI5Ny4zODI4Ii8+PGxpbmUgc3R5bGU9InN0cm9rZTojMTgxODE4O3N0cm9rZS13aWR0aDowLjU7c3Ryb2tlLWRhc2hhcnJheTo1LjAsNS4wOyIgeDE9IjE2NSIgeDI9IjE2NSIgeTE9Ijc5Ljk4NDQiIHkyPSIyOTcuMzgyOCIvPjxsaW5lIHN0eWxlPSJzdHJva2U6IzE4MTgxODtzdHJva2Utd2lkdGg6MC41O3N0cm9rZS1kYXNoYXJyYXk6NS4wLDUuMDsiIHgxPSIyNjciIHgyPSIyNjciIHkxPSI3OS45ODQ0IiB5Mj0iMjk3LjM4MjgiLz48dGV4dCBmaWxsPSIjMDAwMDAwIiBmb250LWZhbWlseT0ic2Fucy1zZXJpZiIgZm9udC1zaXplPSIxNCIgbGVuZ3RoQWRqdXN0PSJzcGFjaW5nIiB0ZXh0TGVuZ3RoPSIyOCIgeD0iMjAiIHk9Ijc4LjIzNDQiPiYjMjMzOTg7JiMyOTk4Mzs8L3RleHQ+PGVsbGlwc2UgY3g9IjM3IiBjeT0iMTMuNSIgZmlsbD0iI0UyRTJGMCIgcng9IjgiIHJ5PSI4IiBzdHlsZT0ic3Ryb2tlOiMxODE4MTg7c3Ryb2tlLXdpZHRoOjAuNTsiLz48cGF0aCBkPSJNMzcsMjEuNSBMMzcsNDguNSBNMjQsMjkuNSBMNTAsMjkuNSBNMzcsNDguNSBMMjQsNjMuNSBNMzcsNDguNSBMNTAsNjMuNSAiIGZpbGw9Im5vbmUiIHN0eWxlPSJzdHJva2U6IzE4MTgxODtzdHJva2Utd2lkdGg6MC41OyIvPjx0ZXh0IGZpbGw9IiMwMDAwMDAiIGZvbnQtZmFtaWx5PSJzYW5zLXNlcmlmIiBmb250LXNpemU9IjE0IiBsZW5ndGhBZGp1c3Q9InNwYWNpbmciIHRleHRMZW5ndGg9IjI4IiB4PSIyMCIgeT0iMzA5LjYxNzIiPiYjMjMzOTg7JiMyOTk4Mzs8L3RleHQ+PGVsbGlwc2UgY3g9IjM3IiBjeT0iMzE5Ljg2NzIiIGZpbGw9IiNFMkUyRjAiIHJ4PSI4IiByeT0iOCIgc3R5bGU9InN0cm9rZTojMTgxODE4O3N0cm9rZS13aWR0aDowLjU7Ii8+PHBhdGggZD0iTTM3LDMyNy44NjcyIEwzNywzNTQuODY3MiBNMjQsMzM1Ljg2NzIgTDUwLDMzNS44NjcyIE0zNywzNTQuODY3MiBMMjQsMzY5Ljg2NzIgTTM3LDM1NC44NjcyIEw1MCwzNjkuODY3MiAiIGZpbGw9Im5vbmUiIHN0eWxlPSJzdHJva2U6IzE4MTgxODtzdHJva2Utd2lkdGg6MC41OyIvPjxyZWN0IGZpbGw9IiNFMkUyRjAiIGhlaWdodD0iMjguOTg0NCIgcng9IjIuNSIgcnk9IjIuNSIgc3R5bGU9InN0cm9rZTojMTgxODE4O3N0cm9rZS13aWR0aDowLjU7IiB3aWR0aD0iNTYiIHg9IjEzNyIgeT0iNTAiLz48dGV4dCBmaWxsPSIjMDAwMDAwIiBmb250LWZhbWlseT0ic2Fucy1zZXJpZiIgZm9udC1zaXplPSIxNCIgbGVuZ3RoQWRqdXN0PSJzcGFjaW5nIiB0ZXh0TGVuZ3RoPSI0MiIgeD0iMTQ0IiB5PSI3MC4yMzQ0Ij4mIzI1OTY4OyYjMjU0NTQ7JiMyNDIxMTs8L3RleHQ+PHJlY3QgZmlsbD0iI0UyRTJGMCIgaGVpZ2h0PSIyOC45ODQ0IiByeD0iMi41IiByeT0iMi41IiBzdHlsZT0ic3Ryb2tlOiMxODE4MTg7c3Ryb2tlLXdpZHRoOjAuNTsiIHdpZHRoPSI1NiIgeD0iMTM3IiB5PSIyOTYuMzgyOCIvPjx0ZXh0IGZpbGw9IiMwMDAwMDAiIGZvbnQtZmFtaWx5PSJzYW5zLXNlcmlmIiBmb250LXNpemU9IjE0IiBsZW5ndGhBZGp1c3Q9InNwYWNpbmciIHRleHRMZW5ndGg9IjQyIiB4PSIxNDQiIHk9IjMxNi42MTcyIj4mIzI1OTY4OyYjMjU0NTQ7JiMyNDIxMTs8L3RleHQ+PHJlY3QgZmlsbD0iI0UyRTJGMCIgaGVpZ2h0PSIyOC45ODQ0IiByeD0iMi41IiByeT0iMi41IiBzdHlsZT0ic3Ryb2tlOiMxODE4MTg7c3Ryb2tlLXdpZHRoOjAuNTsiIHdpZHRoPSI3MCIgeD0iMjMyIiB5PSI1MCIvPjx0ZXh0IGZpbGw9IiMwMDAwMDAiIGZvbnQtZmFtaWx5PSJzYW5zLXNlcmlmIiBmb250LXNpemU9IjE0IiBsZW5ndGhBZGp1c3Q9InNwYWNpbmciIHRleHRMZW5ndGg9IjU2IiB4PSIyMzkiIHk9IjcwLjIzNDQiPiYjMzU4Mzg7JiMzMTI0MzsmIzMxNjQ5OyYjMjk3MDI7PC90ZXh0PjxyZWN0IGZpbGw9IiNFMkUyRjAiIGhlaWdodD0iMjguOTg0NCIgcng9IjIuNSIgcnk9IjIuNSIgc3R5bGU9InN0cm9rZTojMTgxODE4O3N0cm9rZS13aWR0aDowLjU7IiB3aWR0aD0iNzAiIHg9IjIzMiIgeT0iMjk2LjM4MjgiLz48dGV4dCBmaWxsPSIjMDAwMDAwIiBmb250LWZhbWlseT0ic2Fucy1zZXJpZiIgZm9udC1zaXplPSIxNCIgbGVuZ3RoQWRqdXN0PSJzcGFjaW5nIiB0ZXh0TGVuZ3RoPSI1NiIgeD0iMjM5IiB5PSIzMTYuNjE3MiI+JiMzNTgzODsmIzMxMjQzOyYjMzE2NDk7JiMyOTcwMjs8L3RleHQ+PHBvbHlnb24gZmlsbD0iIzE4MTgxOCIgcG9pbnRzPSIxNTMsMTA1Ljg5ODQsMTYzLDEwOS44OTg0LDE1MywxMTMuODk4NCwxNTcsMTA5Ljg5ODQiIHN0eWxlPSJzdHJva2U6IzE4MTgxODtzdHJva2Utd2lkdGg6MS4wOyIvPjxsaW5lIHN0eWxlPSJzdHJva2U6IzE4MTgxODtzdHJva2Utd2lkdGg6MS4wOyIgeDE9IjM3IiB4Mj0iMTU5IiB5MT0iMTA5Ljg5ODQiIHkyPSIxMDkuODk4NCIvPjx0ZXh0IGZpbGw9IiMwMDAwMDAiIGZvbnQtZmFtaWx5PSJzYW5zLXNlcmlmIiBmb250LXNpemU9IjEzIiBsZW5ndGhBZGp1c3Q9InNwYWNpbmciIHRleHRMZW5ndGg9IjEwNCIgeD0iNDQiIHk9IjEwNi4yNzM0Ij4mIzM5NTY0OyYjMzU3Nzc7JiMyOTk5MjsmIzI1MTQzOyYjMjE1MTc7JiMyMTY0NDsmIzIzNDk0OyYjMzA3MjE7PC90ZXh0PjxwYXRoIGQ9Ik0xMCwxMjQuODk4NCBMNzQsMTI0Ljg5ODQgTDc0LDEzMC44MTI1IEw2NCwxNDAuODEyNSBMMTAsMTQwLjgxMjUgTDEwLDEyNC44OTg0ICIgZmlsbD0iI0VFRUVFRSIgc3R5bGU9InN0cm9rZTojMDAwMDAwO3N0cm9rZS13aWR0aDoxLjU7Ii8+PHJlY3QgZmlsbD0ibm9uZSIgaGVpZ2h0PSIxNTUuNDg0NCIgc3R5bGU9InN0cm9rZTojMDAwMDAwO3N0cm9rZS13aWR0aDoxLjU7IiB3aWR0aD0iMzAyIiB4PSIxMCIgeT0iMTI0Ljg5ODQiLz48dGV4dCBmaWxsPSIjMDAwMDAwIiBmb250LWZhbWlseT0ic2Fucy1zZXJpZiIgZm9udC1zaXplPSIxMyIgZm9udC13ZWlnaHQ9ImJvbGQiIGxlbmd0aEFkanVzdD0ic3BhY2luZyIgdGV4dExlbmd0aD0iMTkiIHg9IjI1IiB5PSIxMzguMTg3NSI+YWx0PC90ZXh0Pjx0ZXh0IGZpbGw9IiMwMDAwMDAiIGZvbnQtZmFtaWx5PSJzYW5zLXNlcmlmIiBmb250LXNpemU9IjExIiBmb250LXdlaWdodD0iYm9sZCIgbGVuZ3RoQWRqdXN0PSJzcGFjaW5nIiB0ZXh0TGVuZ3RoPSI1NiIgeD0iODkiIHk9IjEzNy4yOTY5Ij5bJiMzMDMzMTsmIzI0NDA1OyYjMjUxMDQ7JiMyMTE1MTtdPC90ZXh0Pjxwb2x5Z29uIGZpbGw9IiMxODE4MTgiIHBvaW50cz0iMjU1LDE1Ni43MjY2LDI2NSwxNjAuNzI2NiwyNTUsMTY0LjcyNjYsMjU5LDE2MC43MjY2IiBzdHlsZT0ic3Ryb2tlOiMxODE4MTg7c3Ryb2tlLXdpZHRoOjEuMDsiLz48bGluZSBzdHlsZT0ic3Ryb2tlOiMxODE4MTg7c3Ryb2tlLXdpZHRoOjEuMDsiIHgxPSIzNyIgeDI9IjI2MSIgeTE9IjE2MC43MjY2IiB5Mj0iMTYwLjcyNjYiLz48dGV4dCBmaWxsPSIjMDAwMDAwIiBmb250LWZhbWlseT0ic2Fucy1zZXJpZiIgZm9udC1zaXplPSIxMyIgbGVuZ3RoQWRqdXN0PSJzcGFjaW5nIiB0ZXh0TGVuZ3RoPSI3OCIgeD0iNDQiIHk9IjE1Ny4xMDE2Ij4mIzI2NTk3OyYjMzA0NzU7JiMzNTgzODsmIzMxMjQzOyYjMjEwMTU7JiMzNDkyMDs8L3RleHQ+PHBvbHlnb24gZmlsbD0iIzE4MTgxOCIgcG9pbnRzPSIxNzYsMTg0LjY0MDYsMTY2LDE4OC42NDA2LDE3NiwxOTIuNjQwNiwxNzIsMTg4LjY0MDYiIHN0eWxlPSJzdHJva2U6IzE4MTgxODtzdHJva2Utd2lkdGg6MS4wOyIvPjxsaW5lIHN0eWxlPSJzdHJva2U6IzE4MTgxODtzdHJva2Utd2lkdGg6MS4wOyIgeDE9IjE3MCIgeDI9IjI2NiIgeTE9IjE4OC42NDA2IiB5Mj0iMTg4LjY0MDYiLz48dGV4dCBmaWxsPSIjMDAwMDAwIiBmb250LWZhbWlseT0ic2Fucy1zZXJpZiIgZm9udC1zaXplPSIxMyIgbGVuZ3RoQWRqdXN0PSJzcGFjaW5nIiB0ZXh0TGVuZ3RoPSI3OCIgeD0iMTgyIiB5PSIxODUuMDE1NiI+JiMyNjU5NzsmIzM1ODEwOyYjMzU4Mzg7JiMzMTI0MzsmIzIwNDQ5OyYjMjQ2ODc7PC90ZXh0Pjxwb2x5Z29uIGZpbGw9IiMxODE4MTgiIHBvaW50cz0iMjU1LDIxMi41NTQ3LDI2NSwyMTYuNTU0NywyNTUsMjIwLjU1NDcsMjU5LDIxNi41NTQ3IiBzdHlsZT0ic3Ryb2tlOiMxODE4MTg7c3Ryb2tlLXdpZHRoOjEuMDsiLz48bGluZSBzdHlsZT0ic3Ryb2tlOiMxODE4MTg7c3Ryb2tlLXdpZHRoOjEuMDtzdHJva2UtZGFzaGFycmF5OjIuMCwyLjA7IiB4MT0iMTY1IiB4Mj0iMjYxIiB5MT0iMjE2LjU1NDciIHkyPSIyMTYuNTU0NyIvPjx0ZXh0IGZpbGw9IiMwMDAwMDAiIGZvbnQtZmFtaWx5PSJzYW5zLXNlcmlmIiBmb250LXNpemU9IjEzIiBsZW5ndGhBZGp1c3Q9InNwYWNpbmciIHRleHRMZW5ndGg9Ijc4IiB4PSIxNzIiIHk9IjIxMi45Mjk3Ij4mIzM2ODIwOyYjMjIyMzg7JiMzNTgzODsmIzMxMjQzOyYjMjA0NDk7JiMyNDY4Nzs8L3RleHQ+PHBvbHlnb24gZmlsbD0iIzE4MTgxOCIgcG9pbnRzPSIyNTUsMjQwLjQ2ODgsMjY1LDI0NC40Njg4LDI1NSwyNDguNDY4OCwyNTksMjQ0LjQ2ODgiIHN0eWxlPSJzdHJva2U6IzE4MTgxODtzdHJva2Utd2lkdGg6MS4wOyIvPjxsaW5lIHN0eWxlPSJzdHJva2U6IzE4MTgxODtzdHJva2Utd2lkdGg6MS4wOyIgeDE9IjM3IiB4Mj0iMjYxIiB5MT0iMjQ0LjQ2ODgiIHkyPSIyNDQuNDY4OCIvPjx0ZXh0IGZpbGw9IiMwMDAwMDAiIGZvbnQtZmFtaWx5PSJzYW5zLXNlcmlmIiBmb250LXNpemU9IjEzIiBsZW5ndGhBZGp1c3Q9InNwYWNpbmciIHRleHRMZW5ndGg9IjUyIiB4PSI0NCIgeT0iMjQwLjg0MzgiPiYjMzY4NzM7JiMyNTMyMTsmIzM1ODM4OyYjMzEyNDM7PC90ZXh0Pjxwb2x5Z29uIGZpbGw9IiMxODE4MTgiIHBvaW50cz0iMTc2LDI2OC4zODI4LDE2NiwyNzIuMzgyOCwxNzYsMjc2LjM4MjgsMTcyLDI3Mi4zODI4IiBzdHlsZT0ic3Ryb2tlOiMxODE4MTg7c3Ryb2tlLXdpZHRoOjEuMDsiLz48bGluZSBzdHlsZT0ic3Ryb2tlOiMxODE4MTg7c3Ryb2tlLXdpZHRoOjEuMDsiIHgxPSIxNzAiIHgyPSIyNjYiIHkxPSIyNzIuMzgyOCIgeTI9IjI3Mi4zODI4Ii8+PHRleHQgZmlsbD0iIzAwMDAwMCIgZm9udC1mYW1pbHk9InNhbnMtc2VyaWYiIGZvbnQtc2l6ZT0iMTMiIGxlbmd0aEFkanVzdD0ic3BhY2luZyIgdGV4dExlbmd0aD0iNzgiIHg9IjE4MiIgeT0iMjY4Ljc1NzgiPiYjMjA0NDU7JiMyMzM4NDsmIzM2ODczOyYjMzU4Mzg7JiMzNTc2MDsmIzI0NDA1OzwvdGV4dD48IS0tU1JDPVtYT3pEMmU5MDY4UnRTdWd2RzFUZXFMc2FNV1hYOFh1V0RzQWY4QUxLejZDNlhHS3d4ZUFZbDhwVnA3WUIxYm9PSGhIelVQeHRfSndmaHV5cjNDY1AtSTVJOUtzTi14OGdBSmdjR0tSVDVFd0JIaWg5WXlLc0lvRmNjR1hMNmt4cVFYZnRTTmJyRTM2TzdyRmgxZnVCU21VOG9HdTZhYU93UGtpN0YwRGdVSjBCNFNQcm1zVXBBQTdYWU10akFXSGhvUURPcTBzY2pJZTRKZXVMS1VHSERPV0dRZzNwRlM1cDdwUnhibDdwZTc4b2ZWUWIybC1TS2tHeEk1UDI0MTFGQ180bDZZZzNEbTAwXS0tPjwvZz48L3N2Zz4=;" vertex="1" parent="1">
            <mxGeometry x="360" y="381" width="318" height="376" as="geometry" />
          </mxCell>
        </UserObject>
        <UserObject label="" plantUmlData="{&#xa;  &quot;data&quot;: &quot;@startuml\nactor 管理员\nparticipant 数据库\nparticipant 调整管理\n\n管理员 -&gt; 调整管理 : 查询课程调整请求\n调整管理 -&gt; 数据库 : 获取请求列表\n数据库 --&gt; 调整管理 : 返回请求列表\n管理员 -&gt; 调整管理 : 审核调整请求\n调整管理 -&gt; 数据库 : 更新调整状态\n@enduml\n&quot;,&#xa;  &quot;format&quot;: &quot;svg&quot;&#xa;}" id="DPlwqAMeHo2gNVx5Dcs1-8">
          <mxCell style="shape=image;noLabel=1;verticalAlign=top;aspect=fixed;imageAspect=0;image=data:image/svg+xml,PD94bWwgdmVyc2lvbj0iMS4wIiBlbmNvZGluZz0idXMtYXNjaWkiIHN0YW5kYWxvbmU9Im5vIj8+PHN2ZyB4bWxucz0iaHR0cDovL3d3dy53My5vcmcvMjAwMC9zdmciIHhtbG5zOnhsaW5rPSJodHRwOi8vd3d3LnczLm9yZy8xOTk5L3hsaW5rIiBjb250ZW50U3R5bGVUeXBlPSJ0ZXh0L2NzcyIgaGVpZ2h0PSIzMTlweCIgcHJlc2VydmVBc3BlY3RSYXRpbz0ibm9uZSIgc3R5bGU9IndpZHRoOjIzNHB4O2hlaWdodDozMTlweDtiYWNrZ3JvdW5kOiNGRkZGRkY7IiB2ZXJzaW9uPSIxLjEiIHZpZXdCb3g9IjAgMCAyMzQgMzE5IiB3aWR0aD0iMjM0cHgiIHpvb21BbmRQYW49Im1hZ25pZnkiPjxkZWZzLz48Zz48bGluZSBzdHlsZT0ic3Ryb2tlOiMxODE4MTg7c3Ryb2tlLXdpZHRoOjAuNTtzdHJva2UtZGFzaGFycmF5OjUuMCw1LjA7IiB4MT0iMjkiIHgyPSIyOSIgeTE9Ijc5Ljk4NDQiIHkyPSIyMzkuNTU0NyIvPjxsaW5lIHN0eWxlPSJzdHJva2U6IzE4MTgxODtzdHJva2Utd2lkdGg6MC41O3N0cm9rZS1kYXNoYXJyYXk6NS4wLDUuMDsiIHgxPSI5MSIgeDI9IjkxIiB5MT0iNzkuOTg0NCIgeTI9IjIzOS41NTQ3Ii8+PGxpbmUgc3R5bGU9InN0cm9rZTojMTgxODE4O3N0cm9rZS13aWR0aDowLjU7c3Ryb2tlLWRhc2hhcnJheTo1LjAsNS4wOyIgeDE9IjE5MyIgeDI9IjE5MyIgeTE9Ijc5Ljk4NDQiIHkyPSIyMzkuNTU0NyIvPjx0ZXh0IGZpbGw9IiMwMDAwMDAiIGZvbnQtZmFtaWx5PSJzYW5zLXNlcmlmIiBmb250LXNpemU9IjE0IiBsZW5ndGhBZGp1c3Q9InNwYWNpbmciIHRleHRMZW5ndGg9IjQyIiB4PSI1IiB5PSI3OC4yMzQ0Ij4mIzMxNjQ5OyYjMjk3MDI7JiMyMTU5Mjs8L3RleHQ+PGVsbGlwc2UgY3g9IjI5IiBjeT0iMTMuNSIgZmlsbD0iI0UyRTJGMCIgcng9IjgiIHJ5PSI4IiBzdHlsZT0ic3Ryb2tlOiMxODE4MTg7c3Ryb2tlLXdpZHRoOjAuNTsiLz48cGF0aCBkPSJNMjksMjEuNSBMMjksNDguNSBNMTYsMjkuNSBMNDIsMjkuNSBNMjksNDguNSBMMTYsNjMuNSBNMjksNDguNSBMNDIsNjMuNSAiIGZpbGw9Im5vbmUiIHN0eWxlPSJzdHJva2U6IzE4MTgxODtzdHJva2Utd2lkdGg6MC41OyIvPjx0ZXh0IGZpbGw9IiMwMDAwMDAiIGZvbnQtZmFtaWx5PSJzYW5zLXNlcmlmIiBmb250LXNpemU9IjE0IiBsZW5ndGhBZGp1c3Q9InNwYWNpbmciIHRleHRMZW5ndGg9IjQyIiB4PSI1IiB5PSIyNTEuNzg5MSI+JiMzMTY0OTsmIzI5NzAyOyYjMjE1OTI7PC90ZXh0PjxlbGxpcHNlIGN4PSIyOSIgY3k9IjI2Mi4wMzkxIiBmaWxsPSIjRTJFMkYwIiByeD0iOCIgcnk9IjgiIHN0eWxlPSJzdHJva2U6IzE4MTgxODtzdHJva2Utd2lkdGg6MC41OyIvPjxwYXRoIGQ9Ik0yOSwyNzAuMDM5MSBMMjksMjk3LjAzOTEgTTE2LDI3OC4wMzkxIEw0MiwyNzguMDM5MSBNMjksMjk3LjAzOTEgTDE2LDMxMi4wMzkxIE0yOSwyOTcuMDM5MSBMNDIsMzEyLjAzOTEgIiBmaWxsPSJub25lIiBzdHlsZT0ic3Ryb2tlOiMxODE4MTg7c3Ryb2tlLXdpZHRoOjAuNTsiLz48cmVjdCBmaWxsPSIjRTJFMkYwIiBoZWlnaHQ9IjI4Ljk4NDQiIHJ4PSIyLjUiIHJ5PSIyLjUiIHN0eWxlPSJzdHJva2U6IzE4MTgxODtzdHJva2Utd2lkdGg6MC41OyIgd2lkdGg9IjU2IiB4PSI2MyIgeT0iNTAiLz48dGV4dCBmaWxsPSIjMDAwMDAwIiBmb250LWZhbWlseT0ic2Fucy1zZXJpZiIgZm9udC1zaXplPSIxNCIgbGVuZ3RoQWRqdXN0PSJzcGFjaW5nIiB0ZXh0TGVuZ3RoPSI0MiIgeD0iNzAiIHk9IjcwLjIzNDQiPiYjMjU5Njg7JiMyNTQ1NDsmIzI0MjExOzwvdGV4dD48cmVjdCBmaWxsPSIjRTJFMkYwIiBoZWlnaHQ9IjI4Ljk4NDQiIHJ4PSIyLjUiIHJ5PSIyLjUiIHN0eWxlPSJzdHJva2U6IzE4MTgxODtzdHJva2Utd2lkdGg6MC41OyIgd2lkdGg9IjU2IiB4PSI2MyIgeT0iMjM4LjU1NDciLz48dGV4dCBmaWxsPSIjMDAwMDAwIiBmb250LWZhbWlseT0ic2Fucy1zZXJpZiIgZm9udC1zaXplPSIxNCIgbGVuZ3RoQWRqdXN0PSJzcGFjaW5nIiB0ZXh0TGVuZ3RoPSI0MiIgeD0iNzAiIHk9IjI1OC43ODkxIj4mIzI1OTY4OyYjMjU0NTQ7JiMyNDIxMTs8L3RleHQ+PHJlY3QgZmlsbD0iI0UyRTJGMCIgaGVpZ2h0PSIyOC45ODQ0IiByeD0iMi41IiByeT0iMi41IiBzdHlsZT0ic3Ryb2tlOiMxODE4MTg7c3Ryb2tlLXdpZHRoOjAuNTsiIHdpZHRoPSI3MCIgeD0iMTU4IiB5PSI1MCIvPjx0ZXh0IGZpbGw9IiMwMDAwMDAiIGZvbnQtZmFtaWx5PSJzYW5zLXNlcmlmIiBmb250LXNpemU9IjE0IiBsZW5ndGhBZGp1c3Q9InNwYWNpbmciIHRleHRMZW5ndGg9IjU2IiB4PSIxNjUiIHk9IjcwLjIzNDQiPiYjMzU4NDM7JiMyNTk3MjsmIzMxNjQ5OyYjMjk3MDI7PC90ZXh0PjxyZWN0IGZpbGw9IiNFMkUyRjAiIGhlaWdodD0iMjguOTg0NCIgcng9IjIuNSIgcnk9IjIuNSIgc3R5bGU9InN0cm9rZTojMTgxODE4O3N0cm9rZS13aWR0aDowLjU7IiB3aWR0aD0iNzAiIHg9IjE1OCIgeT0iMjM4LjU1NDciLz48dGV4dCBmaWxsPSIjMDAwMDAwIiBmb250LWZhbWlseT0ic2Fucy1zZXJpZiIgZm9udC1zaXplPSIxNCIgbGVuZ3RoQWRqdXN0PSJzcGFjaW5nIiB0ZXh0TGVuZ3RoPSI1NiIgeD0iMTY1IiB5PSIyNTguNzg5MSI+JiMzNTg0MzsmIzI1OTcyOyYjMzE2NDk7JiMyOTcwMjs8L3RleHQ+PHBvbHlnb24gZmlsbD0iIzE4MTgxOCIgcG9pbnRzPSIxODEsMTA1Ljg5ODQsMTkxLDEwOS44OTg0LDE4MSwxMTMuODk4NCwxODUsMTA5Ljg5ODQiIHN0eWxlPSJzdHJva2U6IzE4MTgxODtzdHJva2Utd2lkdGg6MS4wOyIvPjxsaW5lIHN0eWxlPSJzdHJva2U6IzE4MTgxODtzdHJva2Utd2lkdGg6MS4wOyIgeDE9IjI5IiB4Mj0iMTg3IiB5MT0iMTA5Ljg5ODQiIHkyPSIxMDkuODk4NCIvPjx0ZXh0IGZpbGw9IiMwMDAwMDAiIGZvbnQtZmFtaWx5PSJzYW5zLXNlcmlmIiBmb250LXNpemU9IjEzIiBsZW5ndGhBZGp1c3Q9InNwYWNpbmciIHRleHRMZW5ndGg9IjEwNCIgeD0iMzYiIHk9IjEwNi4yNzM0Ij4mIzI2NTk3OyYjMzU4MTA7JiMzNTgzODsmIzMxMjQzOyYjMzU4NDM7JiMyNTk3MjsmIzM1ODMxOyYjMjc3MTQ7PC90ZXh0Pjxwb2x5Z29uIGZpbGw9IiMxODE4MTgiIHBvaW50cz0iMTAyLDEzMy44MTI1LDkyLDEzNy44MTI1LDEwMiwxNDEuODEyNSw5OCwxMzcuODEyNSIgc3R5bGU9InN0cm9rZTojMTgxODE4O3N0cm9rZS13aWR0aDoxLjA7Ii8+PGxpbmUgc3R5bGU9InN0cm9rZTojMTgxODE4O3N0cm9rZS13aWR0aDoxLjA7IiB4MT0iOTYiIHgyPSIxOTIiIHkxPSIxMzcuODEyNSIgeTI9IjEzNy44MTI1Ii8+PHRleHQgZmlsbD0iIzAwMDAwMCIgZm9udC1mYW1pbHk9InNhbnMtc2VyaWYiIGZvbnQtc2l6ZT0iMTMiIGxlbmd0aEFkanVzdD0ic3BhY2luZyIgdGV4dExlbmd0aD0iNzgiIHg9IjEwOCIgeT0iMTM0LjE4NzUiPiYjMzM3MTk7JiMyMTQ2MjsmIzM1ODMxOyYjMjc3MTQ7JiMyMTAxNTsmIzM0OTIwOzwvdGV4dD48cG9seWdvbiBmaWxsPSIjMTgxODE4IiBwb2ludHM9IjE4MSwxNjEuNzI2NiwxOTEsMTY1LjcyNjYsMTgxLDE2OS43MjY2LDE4NSwxNjUuNzI2NiIgc3R5bGU9InN0cm9rZTojMTgxODE4O3N0cm9rZS13aWR0aDoxLjA7Ii8+PGxpbmUgc3R5bGU9InN0cm9rZTojMTgxODE4O3N0cm9rZS13aWR0aDoxLjA7c3Ryb2tlLWRhc2hhcnJheToyLjAsMi4wOyIgeDE9IjkxIiB4Mj0iMTg3IiB5MT0iMTY1LjcyNjYiIHkyPSIxNjUuNzI2NiIvPjx0ZXh0IGZpbGw9IiMwMDAwMDAiIGZvbnQtZmFtaWx5PSJzYW5zLXNlcmlmIiBmb250LXNpemU9IjEzIiBsZW5ndGhBZGp1c3Q9InNwYWNpbmciIHRleHRMZW5ndGg9Ijc4IiB4PSI5OCIgeT0iMTYyLjEwMTYiPiYjMzY4MjA7JiMyMjIzODsmIzM1ODMxOyYjMjc3MTQ7JiMyMTAxNTsmIzM0OTIwOzwvdGV4dD48cG9seWdvbiBmaWxsPSIjMTgxODE4IiBwb2ludHM9IjE4MSwxODkuNjQwNiwxOTEsMTkzLjY0MDYsMTgxLDE5Ny42NDA2LDE4NSwxOTMuNjQwNiIgc3R5bGU9InN0cm9rZTojMTgxODE4O3N0cm9rZS13aWR0aDoxLjA7Ii8+PGxpbmUgc3R5bGU9InN0cm9rZTojMTgxODE4O3N0cm9rZS13aWR0aDoxLjA7IiB4MT0iMjkiIHgyPSIxODciIHkxPSIxOTMuNjQwNiIgeTI9IjE5My42NDA2Ii8+PHRleHQgZmlsbD0iIzAwMDAwMCIgZm9udC1mYW1pbHk9InNhbnMtc2VyaWYiIGZvbnQtc2l6ZT0iMTMiIGxlbmd0aEFkanVzdD0ic3BhY2luZyIgdGV4dExlbmd0aD0iNzgiIHg9IjM2IiB5PSIxOTAuMDE1NiI+JiMyMzQ1NzsmIzI2NjgwOyYjMzU4NDM7JiMyNTk3MjsmIzM1ODMxOyYjMjc3MTQ7PC90ZXh0Pjxwb2x5Z29uIGZpbGw9IiMxODE4MTgiIHBvaW50cz0iMTAyLDIxNy41NTQ3LDkyLDIyMS41NTQ3LDEwMiwyMjUuNTU0Nyw5OCwyMjEuNTU0NyIgc3R5bGU9InN0cm9rZTojMTgxODE4O3N0cm9rZS13aWR0aDoxLjA7Ii8+PGxpbmUgc3R5bGU9InN0cm9rZTojMTgxODE4O3N0cm9rZS13aWR0aDoxLjA7IiB4MT0iOTYiIHgyPSIxOTIiIHkxPSIyMjEuNTU0NyIgeTI9IjIyMS41NTQ3Ii8+PHRleHQgZmlsbD0iIzAwMDAwMCIgZm9udC1mYW1pbHk9InNhbnMtc2VyaWYiIGZvbnQtc2l6ZT0iMTMiIGxlbmd0aEFkanVzdD0ic3BhY2luZyIgdGV4dExlbmd0aD0iNzgiIHg9IjEwOCIgeT0iMjE3LjkyOTciPiYjMjYzNTY7JiMyNjAzMjsmIzM1ODQzOyYjMjU5NzI7JiMyOTM2NjsmIzI0NTc3OzwvdGV4dD48IS0tU1JDPVtJcW1rb0l6SVVCdmt1VkM5Ukt5ZHBrMGdJMm1nb0twRUI0WkNBcjV1RGROM2l6dnJKdFRESFg1emlRN3ZzVEdqNDFyU043MlQyaGZzQTU4QUxXaEZ2WXp6aU54SFlfTnhkZ19lWGFZek1CX3pzU09jQlhIckc3cm1ZdTJRTmxIalZ6ZV8zUUJtUVNWcTVtak5TMjZhVEo0alVSNV9vakZQeXIzS3V0RkpxdEtCZG90T0dSSGhkaXRVeWNwUTFnWUFoY3RGNlhlMV0tLT48L2c+PC9zdmc+;" vertex="1" parent="1">
            <mxGeometry x="770" y="425" width="234" height="319" as="geometry" />
          </mxCell>
        </UserObject>
        <UserObject label="" plantUmlData="{&#xa;  &quot;data&quot;: &quot;@startuml\n|学生|\nstart\n:登录系统;\n:查询课程列表;\n\n|课程管理模块|\nif (是否选择课程?) then (是)\n  :将课程加入选课列表;\n  :保存选课记录;\nelse (否)\n  stop\nendif\n\n|学生|\n:完成操作;\nstop\n@enduml\n&quot;,&#xa;  &quot;format&quot;: &quot;svg&quot;&#xa;}" id="DPlwqAMeHo2gNVx5Dcs1-9">
          <mxCell style="shape=image;noLabel=1;verticalAlign=top;aspect=fixed;imageAspect=0;image=data:image/svg+xml,PD94bWwgdmVyc2lvbj0iMS4wIiBlbmNvZGluZz0idXMtYXNjaWkiIHN0YW5kYWxvbmU9Im5vIj8+PHN2ZyB4bWxucz0iaHR0cDovL3d3dy53My5vcmcvMjAwMC9zdmciIHhtbG5zOnhsaW5rPSJodHRwOi8vd3d3LnczLm9yZy8xOTk5L3hsaW5rIiBjb250ZW50U3R5bGVUeXBlPSJ0ZXh0L2NzcyIgaGVpZ2h0PSI0MjFweCIgcHJlc2VydmVBc3BlY3RSYXRpbz0ibm9uZSIgc3R5bGU9IndpZHRoOjMwNHB4O2hlaWdodDo0MjFweDtiYWNrZ3JvdW5kOiNGRkZGRkY7IiB2ZXJzaW9uPSIxLjEiIHZpZXdCb3g9IjAgMCAzMDQgNDIxIiB3aWR0aD0iMzA0cHgiIHpvb21BbmRQYW49Im1hZ25pZnkiPjxkZWZzLz48Zz48cmVjdCBmaWxsPSJub25lIiBoZWlnaHQ9IjE5LjI2NTYiIHN0eWxlPSJzdHJva2U6bm9uZTtzdHJva2Utd2lkdGg6MS4wOyIgd2lkdGg9IjI3MS41IiB4PSIxNSIgeT0iMTEiLz48ZWxsaXBzZSBjeD0iNjciIGN5PSI0NS4yNjU2IiBmaWxsPSIjMjIyMjIyIiByeD0iMTAiIHJ5PSIxMCIgc3R5bGU9InN0cm9rZTojMjIyMjIyO3N0cm9rZS13aWR0aDoxLjA7Ii8+PHJlY3QgZmlsbD0iI0YxRjFGMSIgaGVpZ2h0PSIzMi44NDM4IiByeD0iMTIuNSIgcnk9IjEyLjUiIHN0eWxlPSJzdHJva2U6IzE4MTgxODtzdHJva2Utd2lkdGg6MC41OyIgd2lkdGg9IjY4IiB4PSIzMyIgeT0iNzUuMjY1NiIvPjx0ZXh0IGZpbGw9IiMwMDAwMDAiIGZvbnQtZmFtaWx5PSJzYW5zLXNlcmlmIiBmb250LXNpemU9IjEyIiBsZW5ndGhBZGp1c3Q9InNwYWNpbmciIHRleHRMZW5ndGg9IjQ4IiB4PSI0MyIgeT0iOTYuNjA5NCI+JiMzMDMzMTsmIzI0NDA1OyYjMzE5OTU7JiMzMjQ3OTs8L3RleHQ+PHJlY3QgZmlsbD0iI0YxRjFGMSIgaGVpZ2h0PSIzMi44NDM4IiByeD0iMTIuNSIgcnk9IjEyLjUiIHN0eWxlPSJzdHJva2U6IzE4MTgxODtzdHJva2Utd2lkdGg6MC41OyIgd2lkdGg9IjkyIiB4PSIyMSIgeT0iMTI4LjEwOTQiLz48dGV4dCBmaWxsPSIjMDAwMDAwIiBmb250LWZhbWlseT0ic2Fucy1zZXJpZiIgZm9udC1zaXplPSIxMiIgbGVuZ3RoQWRqdXN0PSJzcGFjaW5nIiB0ZXh0TGVuZ3RoPSI3MiIgeD0iMzEiIHk9IjE0OS40NTMxIj4mIzI2NTk3OyYjMzU4MTA7JiMzNTgzODsmIzMxMjQzOyYjMjEwMTU7JiMzNDkyMDs8L3RleHQ+PHJlY3QgZmlsbD0iI0YxRjFGMSIgaGVpZ2h0PSIzMi44NDM4IiByeD0iMTIuNSIgcnk9IjEyLjUiIHN0eWxlPSJzdHJva2U6IzE4MTgxODtzdHJva2Utd2lkdGg6MC41OyIgd2lkdGg9IjY4IiB4PSIzMyIgeT0iMzM0LjY0MDYiLz48dGV4dCBmaWxsPSIjMDAwMDAwIiBmb250LWZhbWlseT0ic2Fucy1zZXJpZiIgZm9udC1zaXplPSIxMiIgbGVuZ3RoQWRqdXN0PSJzcGFjaW5nIiB0ZXh0TGVuZ3RoPSI0OCIgeD0iNDMiIHk9IjM1NS45ODQ0Ij4mIzIzNDM2OyYjMjUxMDQ7JiMyNTgwNTsmIzIwMzE2OzwvdGV4dD48ZWxsaXBzZSBjeD0iNjciIGN5PSIzOTguNDg0NCIgZmlsbD0ibm9uZSIgcng9IjExIiByeT0iMTEiIHN0eWxlPSJzdHJva2U6IzIyMjIyMjtzdHJva2Utd2lkdGg6MS4wOyIvPjxlbGxpcHNlIGN4PSI2NyIgY3k9IjM5OC40ODQ0IiBmaWxsPSIjMjIyMjIyIiByeD0iNiIgcnk9IjYiIHN0eWxlPSJzdHJva2U6IzIyMjIyMjtzdHJva2Utd2lkdGg6MS4wOyIvPjxsaW5lIHN0eWxlPSJzdHJva2U6IzAwMDAwMDtzdHJva2Utd2lkdGg6MS41OyIgeDE9IjE1IiB4Mj0iMTUiIHkxPSIxMSIgeTI9IjQwOS40ODQ0Ii8+PHJlY3QgZmlsbD0iI0YxRjFGMSIgaGVpZ2h0PSIzMi44NDM4IiByeD0iMTIuNSIgcnk9IjEyLjUiIHN0eWxlPSJzdHJva2U6IzE4MTgxODtzdHJva2Utd2lkdGg6MC41OyIgd2lkdGg9IjEyOCIgeD0iMTIzIiB5PSIyMjguOTUzMSIvPjx0ZXh0IGZpbGw9IiMwMDAwMDAiIGZvbnQtZmFtaWx5PSJzYW5zLXNlcmlmIiBmb250LXNpemU9IjEyIiBsZW5ndGhBZGp1c3Q9InNwYWNpbmciIHRleHRMZW5ndGg9IjEwOCIgeD0iMTMzIiB5PSIyNTAuMjk2OSI+JiMyMzU1ODsmIzM1ODM4OyYjMzEyNDM7JiMyMTE1MjsmIzIwODM3OyYjMzY4NzM7JiMzNTgzODsmIzIxMDE1OyYjMzQ5MjA7PC90ZXh0PjxyZWN0IGZpbGw9IiNGMUYxRjEiIGhlaWdodD0iMzIuODQzOCIgcng9IjEyLjUiIHJ5PSIxMi41IiBzdHlsZT0ic3Ryb2tlOiMxODE4MTg7c3Ryb2tlLXdpZHRoOjAuNTsiIHdpZHRoPSI5MiIgeD0iMTQxIiB5PSIyODEuNzk2OSIvPjx0ZXh0IGZpbGw9IiMwMDAwMDAiIGZvbnQtZmFtaWx5PSJzYW5zLXNlcmlmIiBmb250LXNpemU9IjEyIiBsZW5ndGhBZGp1c3Q9InNwYWNpbmciIHRleHRMZW5ndGg9IjcyIiB4PSIxNTEiIHk9IjMwMy4xNDA2Ij4mIzIwNDQ1OyYjMjMzODQ7JiMzNjg3MzsmIzM1ODM4OyYjMzU3NjA7JiMyNDQwNTs8L3RleHQ+PHBvbHlnb24gZmlsbD0iI0YxRjFGMSIgcG9pbnRzPSIxNTEsMTgwLjk1MzEsMjIzLDE4MC45NTMxLDIzNSwxOTIuOTUzMSwyMjMsMjA0Ljk1MzEsMTUxLDIwNC45NTMxLDEzOSwxOTIuOTUzMSwxNTEsMTgwLjk1MzEiIHN0eWxlPSJzdHJva2U6IzE4MTgxODtzdHJva2Utd2lkdGg6MC41OyIvPjx0ZXh0IGZpbGw9IiMwMDAwMDAiIGZvbnQtZmFtaWx5PSJzYW5zLXNlcmlmIiBmb250LXNpemU9IjExIiBsZW5ndGhBZGp1c3Q9InNwYWNpbmciIHRleHRMZW5ndGg9IjExIiB4PSIxOTEiIHk9IjIxNS4zNTE2Ij4mIzI2MTU5OzwvdGV4dD48dGV4dCBmaWxsPSIjMDAwMDAwIiBmb250LWZhbWlseT0ic2Fucy1zZXJpZiIgZm9udC1zaXplPSIxMSIgbGVuZ3RoQWRqdXN0PSJzcGFjaW5nIiB0ZXh0TGVuZ3RoPSI3MiIgeD0iMTUxIiB5PSIxOTcuNDY0OCI+JiMyNjE1OTsmIzIxNTQyOyYjMzY4NzM7JiMyNTMyMTsmIzM1ODM4OyYjMzEyNDM7PzwvdGV4dD48dGV4dCBmaWxsPSIjMDAwMDAwIiBmb250LWZhbWlseT0ic2Fucy1zZXJpZiIgZm9udC1zaXplPSIxMSIgbGVuZ3RoQWRqdXN0PSJzcGFjaW5nIiB0ZXh0TGVuZ3RoPSIxMSIgeD0iMjM1IiB5PSIxOTEuNTc4MSI+JiMyMTU0Mjs8L3RleHQ+PGVsbGlwc2UgY3g9IjI2OCIgY3k9IjE5Mi45NTMxIiBmaWxsPSJub25lIiByeD0iMTEiIHJ5PSIxMSIgc3R5bGU9InN0cm9rZTojMjIyMjIyO3N0cm9rZS13aWR0aDoxLjA7Ii8+PGVsbGlwc2UgY3g9IjI2OCIgY3k9IjE5Mi45NTMxIiBmaWxsPSIjMjIyMjIyIiByeD0iNiIgcnk9IjYiIHN0eWxlPSJzdHJva2U6IzIyMjIyMjtzdHJva2Utd2lkdGg6MS4wOyIvPjxsaW5lIHN0eWxlPSJzdHJva2U6IzAwMDAwMDtzdHJva2Utd2lkdGg6MS41OyIgeDE9IjExNyIgeDI9IjExNyIgeTE9IjExIiB5Mj0iNDA5LjQ4NDQiLz48bGluZSBzdHlsZT0ic3Ryb2tlOiMwMDAwMDA7c3Ryb2tlLXdpZHRoOjEuNTsiIHgxPSIyODMiIHgyPSIyODMiIHkxPSIxMSIgeTI9IjQwOS40ODQ0Ii8+PGxpbmUgc3R5bGU9InN0cm9rZTojMTgxODE4O3N0cm9rZS13aWR0aDoxLjA7IiB4MT0iNjciIHgyPSI2NyIgeTE9IjU1LjI2NTYiIHkyPSI3NS4yNjU2Ii8+PHBvbHlnb24gZmlsbD0iIzE4MTgxOCIgcG9pbnRzPSI2Myw2NS4yNjU2LDY3LDc1LjI2NTYsNzEsNjUuMjY1Niw2Nyw2OS4yNjU2IiBzdHlsZT0ic3Ryb2tlOiMxODE4MTg7c3Ryb2tlLXdpZHRoOjEuMDsiLz48bGluZSBzdHlsZT0ic3Ryb2tlOiMxODE4MTg7c3Ryb2tlLXdpZHRoOjEuMDsiIHgxPSI2NyIgeDI9IjY3IiB5MT0iMTA4LjEwOTQiIHkyPSIxMjguMTA5NCIvPjxwb2x5Z29uIGZpbGw9IiMxODE4MTgiIHBvaW50cz0iNjMsMTE4LjEwOTQsNjcsMTI4LjEwOTQsNzEsMTE4LjEwOTQsNjcsMTIyLjEwOTQiIHN0eWxlPSJzdHJva2U6IzE4MTgxODtzdHJva2Utd2lkdGg6MS4wOyIvPjxsaW5lIHN0eWxlPSJzdHJva2U6IzE4MTgxODtzdHJva2Utd2lkdGg6MS4wOyIgeDE9IjY3IiB4Mj0iNjciIHkxPSIzNjcuNDg0NCIgeTI9IjM4Ny40ODQ0Ii8+PHBvbHlnb24gZmlsbD0iIzE4MTgxOCIgcG9pbnRzPSI2MywzNzcuNDg0NCw2NywzODcuNDg0NCw3MSwzNzcuNDg0NCw2NywzODEuNDg0NCIgc3R5bGU9InN0cm9rZTojMTgxODE4O3N0cm9rZS13aWR0aDoxLjA7Ii8+PGxpbmUgc3R5bGU9InN0cm9rZTojMTgxODE4O3N0cm9rZS13aWR0aDoxLjA7IiB4MT0iMTg3IiB4Mj0iMTg3IiB5MT0iMjYxLjc5NjkiIHkyPSIyODEuNzk2OSIvPjxwb2x5Z29uIGZpbGw9IiMxODE4MTgiIHBvaW50cz0iMTgzLDI3MS43OTY5LDE4NywyODEuNzk2OSwxOTEsMjcxLjc5NjksMTg3LDI3NS43OTY5IiBzdHlsZT0ic3Ryb2tlOiMxODE4MTg7c3Ryb2tlLXdpZHRoOjEuMDsiLz48bGluZSBzdHlsZT0ic3Ryb2tlOiMxODE4MTg7c3Ryb2tlLXdpZHRoOjEuMDsiIHgxPSIxODciIHgyPSIxODciIHkxPSIyMDQuOTUzMSIgeTI9IjIyOC45NTMxIi8+PHBvbHlnb24gZmlsbD0iIzE4MTgxOCIgcG9pbnRzPSIxODMsMjE4Ljk1MzEsMTg3LDIyOC45NTMxLDE5MSwyMTguOTUzMSwxODcsMjIyLjk1MzEiIHN0eWxlPSJzdHJva2U6IzE4MTgxODtzdHJva2Utd2lkdGg6MS4wOyIvPjxsaW5lIHN0eWxlPSJzdHJva2U6IzE4MTgxODtzdHJva2Utd2lkdGg6MS4wOyIgeDE9IjIzNSIgeDI9IjI1NyIgeTE9IjE5Mi45NTMxIiB5Mj0iMTkyLjk1MzEiLz48cG9seWdvbiBmaWxsPSIjMTgxODE4IiBwb2ludHM9IjI0NywxODguOTUzMSwyNTcsMTkyLjk1MzEsMjQ3LDE5Ni45NTMxLDI1MSwxOTIuOTUzMSIgc3R5bGU9InN0cm9rZTojMTgxODE4O3N0cm9rZS13aWR0aDoxLjA7Ii8+PGxpbmUgc3R5bGU9InN0cm9rZTojMTgxODE4O3N0cm9rZS13aWR0aDoxLjA7IiB4MT0iMTg3IiB4Mj0iMTg3IiB5MT0iMzE0LjY0MDYiIHkyPSIzMTkuNjQwNiIvPjxsaW5lIHN0eWxlPSJzdHJva2U6IzE4MTgxODtzdHJva2Utd2lkdGg6MS4wOyIgeDE9IjE4NyIgeDI9IjY3IiB5MT0iMzE5LjY0MDYiIHkyPSIzMTkuNjQwNiIvPjxsaW5lIHN0eWxlPSJzdHJva2U6IzE4MTgxODtzdHJva2Utd2lkdGg6MS4wOyIgeDE9IjY3IiB4Mj0iNjciIHkxPSIzMTkuNjQwNiIgeTI9IjMzNC42NDA2Ii8+PHBvbHlnb24gZmlsbD0iIzE4MTgxOCIgcG9pbnRzPSI2MywzMjQuNjQwNiw2NywzMzQuNjQwNiw3MSwzMjQuNjQwNiw2NywzMjguNjQwNiIgc3R5bGU9InN0cm9rZTojMTgxODE4O3N0cm9rZS13aWR0aDoxLjA7Ii8+PGxpbmUgc3R5bGU9InN0cm9rZTojMTgxODE4O3N0cm9rZS13aWR0aDoxLjA7IiB4MT0iNjciIHgyPSI2NyIgeTE9IjE2MC45NTMxIiB5Mj0iMTY1Ljk1MzEiLz48bGluZSBzdHlsZT0ic3Ryb2tlOiMxODE4MTg7c3Ryb2tlLXdpZHRoOjEuMDsiIHgxPSI2NyIgeDI9IjE4NyIgeTE9IjE2NS45NTMxIiB5Mj0iMTY1Ljk1MzEiLz48bGluZSBzdHlsZT0ic3Ryb2tlOiMxODE4MTg7c3Ryb2tlLXdpZHRoOjEuMDsiIHgxPSIxODciIHgyPSIxODciIHkxPSIxNjUuOTUzMSIgeTI9IjE4MC45NTMxIi8+PHBvbHlnb24gZmlsbD0iIzE4MTgxOCIgcG9pbnRzPSIxODMsMTcwLjk1MzEsMTg3LDE4MC45NTMxLDE5MSwxNzAuOTUzMSwxODcsMTc0Ljk1MzEiIHN0eWxlPSJzdHJva2U6IzE4MTgxODtzdHJva2Utd2lkdGg6MS4wOyIvPjx0ZXh0IGZpbGw9IiMwMDAwMDAiIGZvbnQtZmFtaWx5PSJzYW5zLXNlcmlmIiBmb250LXNpemU9IjE4IiBsZW5ndGhBZGp1c3Q9InNwYWNpbmciIHRleHRMZW5ndGg9IjM2IiB4PSI0OCIgeT0iMjguMDE1NiI+JiMyMzM5ODsmIzI5OTgzOzwvdGV4dD48dGV4dCBmaWxsPSIjMDAwMDAwIiBmb250LWZhbWlseT0ic2Fucy1zZXJpZiIgZm9udC1zaXplPSIxOCIgbGVuZ3RoQWRqdXN0PSJzcGFjaW5nIiB0ZXh0TGVuZ3RoPSIxMDgiIHg9IjE0NiIgeT0iMjguMDE1NiI+JiMzNTgzODsmIzMxMjQzOyYjMzE2NDk7JiMyOTcwMjsmIzI3MTY5OyYjMjIzNTk7PC90ZXh0PjwhLS1TUkM9W0RPdkQyZTlHNThOZFRuTGxnNWxHR01pOUtYQjI4WHF3UTk5TzVXV0w2WUhjZURaMDdzV2VyY1F5eHpha1VjT0RwcGFWN3lWMkY2TjdvMEIzNzJ6RGFEWXZua1I0N1pNaDhuYWE2WUxUVVVsQTl5alNURm1rcGNHMFF5WWlZOWJkcW9wNnFCVDBLdWIwV25BenpCdFFLRlMtQzJFSGM1RDVfcXVZNDI5WFBWemlzb2trNHl4by0zVnBsTnM1YzBUM3RIS0xfb0EzQ1pDSzhkMXBScDNDLUc4S1ZRQWZfQ1pfbDhKNVpaZVVGVXBSdlk5M3B0bTBdLS0+PC9nPjwvc3ZnPg==;" vertex="1" parent="1">
            <mxGeometry x="-234" y="1370" width="304" height="421" as="geometry" />
          </mxCell>
        </UserObject>
        <UserObject label="" plantUmlData="{&#xa;  &quot;data&quot;: &quot;@startuml\n|教师|\nstart\n:登录系统;\n:填写课程信息;\n:提交课程信息;\n\n|课程管理模块|\n:接收课程信息;\nif (是否通过审核?) then (是)\n  :发布课程;\nelse (否)\n  :退回教师修改;\nendif\n\n|教师|\n:完成操作;\nstop\n@enduml\n&quot;,&#xa;  &quot;format&quot;: &quot;svg&quot;&#xa;}" id="DPlwqAMeHo2gNVx5Dcs1-10">
          <mxCell style="shape=image;noLabel=1;verticalAlign=top;aspect=fixed;imageAspect=0;image=data:image/svg+xml,PD94bWwgdmVyc2lvbj0iMS4wIiBlbmNvZGluZz0idXMtYXNjaWkiIHN0YW5kYWxvbmU9Im5vIj8+PHN2ZyB4bWxucz0iaHR0cDovL3d3dy53My5vcmcvMjAwMC9zdmciIHhtbG5zOnhsaW5rPSJodHRwOi8vd3d3LnczLm9yZy8xOTk5L3hsaW5rIiBjb250ZW50U3R5bGVUeXBlPSJ0ZXh0L2NzcyIgaGVpZ2h0PSI0OTBweCIgcHJlc2VydmVBc3BlY3RSYXRpbz0ibm9uZSIgc3R5bGU9IndpZHRoOjM0NHB4O2hlaWdodDo0OTBweDtiYWNrZ3JvdW5kOiNGRkZGRkY7IiB2ZXJzaW9uPSIxLjEiIHZpZXdCb3g9IjAgMCAzNDQgNDkwIiB3aWR0aD0iMzQ0cHgiIHpvb21BbmRQYW49Im1hZ25pZnkiPjxkZWZzLz48Zz48cmVjdCBmaWxsPSJub25lIiBoZWlnaHQ9IjE5LjI2NTYiIHN0eWxlPSJzdHJva2U6bm9uZTtzdHJva2Utd2lkdGg6MS4wOyIgd2lkdGg9IjMxMS41IiB4PSIxNSIgeT0iMTEiLz48ZWxsaXBzZSBjeD0iNjciIGN5PSI0NS4yNjU2IiBmaWxsPSIjMjIyMjIyIiByeD0iMTAiIHJ5PSIxMCIgc3R5bGU9InN0cm9rZTojMjIyMjIyO3N0cm9rZS13aWR0aDoxLjA7Ii8+PHJlY3QgZmlsbD0iI0YxRjFGMSIgaGVpZ2h0PSIzMi44NDM4IiByeD0iMTIuNSIgcnk9IjEyLjUiIHN0eWxlPSJzdHJva2U6IzE4MTgxODtzdHJva2Utd2lkdGg6MC41OyIgd2lkdGg9IjY4IiB4PSIzMyIgeT0iNzUuMjY1NiIvPjx0ZXh0IGZpbGw9IiMwMDAwMDAiIGZvbnQtZmFtaWx5PSJzYW5zLXNlcmlmIiBmb250LXNpemU9IjEyIiBsZW5ndGhBZGp1c3Q9InNwYWNpbmciIHRleHRMZW5ndGg9IjQ4IiB4PSI0MyIgeT0iOTYuNjA5NCI+JiMzMDMzMTsmIzI0NDA1OyYjMzE5OTU7JiMzMjQ3OTs8L3RleHQ+PHJlY3QgZmlsbD0iI0YxRjFGMSIgaGVpZ2h0PSIzMi44NDM4IiByeD0iMTIuNSIgcnk9IjEyLjUiIHN0eWxlPSJzdHJva2U6IzE4MTgxODtzdHJva2Utd2lkdGg6MC41OyIgd2lkdGg9IjkyIiB4PSIyMSIgeT0iMTI4LjEwOTQiLz48dGV4dCBmaWxsPSIjMDAwMDAwIiBmb250LWZhbWlseT0ic2Fucy1zZXJpZiIgZm9udC1zaXplPSIxMiIgbGVuZ3RoQWRqdXN0PSJzcGFjaW5nIiB0ZXh0TGVuZ3RoPSI3MiIgeD0iMzEiIHk9IjE0OS40NTMxIj4mIzIyNjM1OyYjMjA4ODk7JiMzNTgzODsmIzMxMjQzOyYjMjA0NDk7JiMyNDY4Nzs8L3RleHQ+PHJlY3QgZmlsbD0iI0YxRjFGMSIgaGVpZ2h0PSIzMi44NDM4IiByeD0iMTIuNSIgcnk9IjEyLjUiIHN0eWxlPSJzdHJva2U6IzE4MTgxODtzdHJva2Utd2lkdGg6MC41OyIgd2lkdGg9IjkyIiB4PSIyMSIgeT0iMTgwLjk1MzEiLz48dGV4dCBmaWxsPSIjMDAwMDAwIiBmb250LWZhbWlseT0ic2Fucy1zZXJpZiIgZm9udC1zaXplPSIxMiIgbGVuZ3RoQWRqdXN0PSJzcGFjaW5nIiB0ZXh0TGVuZ3RoPSI3MiIgeD0iMzEiIHk9IjIwMi4yOTY5Ij4mIzI1NTUyOyYjMjAxMzI7JiMzNTgzODsmIzMxMjQzOyYjMjA0NDk7JiMyNDY4Nzs8L3RleHQ+PHJlY3QgZmlsbD0iI0YxRjFGMSIgaGVpZ2h0PSIzMi44NDM4IiByeD0iMTIuNSIgcnk9IjEyLjUiIHN0eWxlPSJzdHJva2U6IzE4MTgxODtzdHJva2Utd2lkdGg6MC41OyIgd2lkdGg9IjY4IiB4PSIzMyIgeT0iNDAzLjQ4NDQiLz48dGV4dCBmaWxsPSIjMDAwMDAwIiBmb250LWZhbWlseT0ic2Fucy1zZXJpZiIgZm9udC1zaXplPSIxMiIgbGVuZ3RoQWRqdXN0PSJzcGFjaW5nIiB0ZXh0TGVuZ3RoPSI0OCIgeD0iNDMiIHk9IjQyNC44MjgxIj4mIzIzNDM2OyYjMjUxMDQ7JiMyNTgwNTsmIzIwMzE2OzwvdGV4dD48ZWxsaXBzZSBjeD0iNjciIGN5PSI0NjcuMzI4MSIgZmlsbD0ibm9uZSIgcng9IjExIiByeT0iMTEiIHN0eWxlPSJzdHJva2U6IzIyMjIyMjtzdHJva2Utd2lkdGg6MS4wOyIvPjxlbGxpcHNlIGN4PSI2NyIgY3k9IjQ2Ny4zMjgxIiBmaWxsPSIjMjIyMjIyIiByeD0iNiIgcnk9IjYiIHN0eWxlPSJzdHJva2U6IzIyMjIyMjtzdHJva2Utd2lkdGg6MS4wOyIvPjxsaW5lIHN0eWxlPSJzdHJva2U6IzAwMDAwMDtzdHJva2Utd2lkdGg6MS41OyIgeDE9IjE1IiB4Mj0iMTUiIHkxPSIxMSIgeTI9IjQ3OC4zMjgxIi8+PHJlY3QgZmlsbD0iI0YxRjFGMSIgaGVpZ2h0PSIzMi44NDM4IiByeD0iMTIuNSIgcnk9IjEyLjUiIHN0eWxlPSJzdHJva2U6IzE4MTgxODtzdHJva2Utd2lkdGg6MC41OyIgd2lkdGg9IjkyIiB4PSIxNjkiIHk9IjIzMy43OTY5Ii8+PHRleHQgZmlsbD0iIzAwMDAwMCIgZm9udC1mYW1pbHk9InNhbnMtc2VyaWYiIGZvbnQtc2l6ZT0iMTIiIGxlbmd0aEFkanVzdD0ic3BhY2luZyIgdGV4dExlbmd0aD0iNzIiIHg9IjE3OSIgeT0iMjU1LjE0MDYiPiYjMjU1MDk7JiMyNTkxMDsmIzM1ODM4OyYjMzEyNDM7JiMyMDQ0OTsmIzI0Njg3OzwvdGV4dD48cG9seWdvbiBmaWxsPSIjRjFGMUYxIiBwb2ludHM9IjE3OSwyODYuNjQwNiwyNTEsMjg2LjY0MDYsMjYzLDI5OC42NDA2LDI1MSwzMTAuNjQwNiwxNzksMzEwLjY0MDYsMTY3LDI5OC42NDA2LDE3OSwyODYuNjQwNiIgc3R5bGU9InN0cm9rZTojMTgxODE4O3N0cm9rZS13aWR0aDowLjU7Ii8+PHRleHQgZmlsbD0iIzAwMDAwMCIgZm9udC1mYW1pbHk9InNhbnMtc2VyaWYiIGZvbnQtc2l6ZT0iMTEiIGxlbmd0aEFkanVzdD0ic3BhY2luZyIgdGV4dExlbmd0aD0iNzIiIHg9IjE3OSIgeT0iMzAzLjE1MjMiPiYjMjYxNTk7JiMyMTU0MjsmIzM2ODkwOyYjMzY4MDc7JiMyMzQ1NzsmIzI2NjgwOz88L3RleHQ+PHRleHQgZmlsbD0iIzAwMDAwMCIgZm9udC1mYW1pbHk9InNhbnMtc2VyaWYiIGZvbnQtc2l6ZT0iMTEiIGxlbmd0aEFkanVzdD0ic3BhY2luZyIgdGV4dExlbmd0aD0iMTEiIHg9IjE1NiIgeT0iMjk3LjI2NTYiPiYjMjYxNTk7PC90ZXh0Pjx0ZXh0IGZpbGw9IiMwMDAwMDAiIGZvbnQtZmFtaWx5PSJzYW5zLXNlcmlmIiBmb250LXNpemU9IjExIiBsZW5ndGhBZGp1c3Q9InNwYWNpbmciIHRleHRMZW5ndGg9IjExIiB4PSIyNjMiIHk9IjI5Ny4yNjU2Ij4mIzIxNTQyOzwvdGV4dD48cmVjdCBmaWxsPSIjRjFGMUYxIiBoZWlnaHQ9IjMyLjg0MzgiIHJ4PSIxMi41IiByeT0iMTIuNSIgc3R5bGU9InN0cm9rZTojMTgxODE4O3N0cm9rZS13aWR0aDowLjU7IiB3aWR0aD0iNjgiIHg9IjEyMyIgeT0iMzIwLjY0MDYiLz48dGV4dCBmaWxsPSIjMDAwMDAwIiBmb250LWZhbWlseT0ic2Fucy1zZXJpZiIgZm9udC1zaXplPSIxMiIgbGVuZ3RoQWRqdXN0PSJzcGFjaW5nIiB0ZXh0TGVuZ3RoPSI0OCIgeD0iMTMzIiB5PSIzNDEuOTg0NCI+JiMyMTQ1NzsmIzI0MDY3OyYjMzU4Mzg7JiMzMTI0Mzs8L3RleHQ+PHJlY3QgZmlsbD0iI0YxRjFGMSIgaGVpZ2h0PSIzMi44NDM4IiByeD0iMTIuNSIgcnk9IjEyLjUiIHN0eWxlPSJzdHJva2U6IzE4MTgxODtzdHJva2Utd2lkdGg6MC41OyIgd2lkdGg9IjkyIiB4PSIyMjciIHk9IjMyMC42NDA2Ii8+PHRleHQgZmlsbD0iIzAwMDAwMCIgZm9udC1mYW1pbHk9InNhbnMtc2VyaWYiIGZvbnQtc2l6ZT0iMTIiIGxlbmd0aEFkanVzdD0ic3BhY2luZyIgdGV4dExlbmd0aD0iNzIiIHg9IjIzNyIgeT0iMzQxLjk4NDQiPiYjMzY4NjQ7JiMyMjIzODsmIzI1OTQ1OyYjMjQwNzI7JiMyMDQ2MjsmIzI1OTEzOzwvdGV4dD48cG9seWdvbiBmaWxsPSIjRjFGMUYxIiBwb2ludHM9IjIxNSwzNTkuNDg0NCwyMjcsMzcxLjQ4NDQsMjE1LDM4My40ODQ0LDIwMywzNzEuNDg0NCwyMTUsMzU5LjQ4NDQiIHN0eWxlPSJzdHJva2U6IzE4MTgxODtzdHJva2Utd2lkdGg6MC41OyIvPjxsaW5lIHN0eWxlPSJzdHJva2U6IzAwMDAwMDtzdHJva2Utd2lkdGg6MS41OyIgeDE9IjExNyIgeDI9IjExNyIgeTE9IjExIiB5Mj0iNDc4LjMyODEiLz48bGluZSBzdHlsZT0ic3Ryb2tlOiMwMDAwMDA7c3Ryb2tlLXdpZHRoOjEuNTsiIHgxPSIzMjMiIHgyPSIzMjMiIHkxPSIxMSIgeTI9IjQ3OC4zMjgxIi8+PGxpbmUgc3R5bGU9InN0cm9rZTojMTgxODE4O3N0cm9rZS13aWR0aDoxLjA7IiB4MT0iNjciIHgyPSI2NyIgeTE9IjU1LjI2NTYiIHkyPSI3NS4yNjU2Ii8+PHBvbHlnb24gZmlsbD0iIzE4MTgxOCIgcG9pbnRzPSI2Myw2NS4yNjU2LDY3LDc1LjI2NTYsNzEsNjUuMjY1Niw2Nyw2OS4yNjU2IiBzdHlsZT0ic3Ryb2tlOiMxODE4MTg7c3Ryb2tlLXdpZHRoOjEuMDsiLz48bGluZSBzdHlsZT0ic3Ryb2tlOiMxODE4MTg7c3Ryb2tlLXdpZHRoOjEuMDsiIHgxPSI2NyIgeDI9IjY3IiB5MT0iMTA4LjEwOTQiIHkyPSIxMjguMTA5NCIvPjxwb2x5Z29uIGZpbGw9IiMxODE4MTgiIHBvaW50cz0iNjMsMTE4LjEwOTQsNjcsMTI4LjEwOTQsNzEsMTE4LjEwOTQsNjcsMTIyLjEwOTQiIHN0eWxlPSJzdHJva2U6IzE4MTgxODtzdHJva2Utd2lkdGg6MS4wOyIvPjxsaW5lIHN0eWxlPSJzdHJva2U6IzE4MTgxODtzdHJva2Utd2lkdGg6MS4wOyIgeDE9IjY3IiB4Mj0iNjciIHkxPSIxNjAuOTUzMSIgeTI9IjE4MC45NTMxIi8+PHBvbHlnb24gZmlsbD0iIzE4MTgxOCIgcG9pbnRzPSI2MywxNzAuOTUzMSw2NywxODAuOTUzMSw3MSwxNzAuOTUzMSw2NywxNzQuOTUzMSIgc3R5bGU9InN0cm9rZTojMTgxODE4O3N0cm9rZS13aWR0aDoxLjA7Ii8+PGxpbmUgc3R5bGU9InN0cm9rZTojMTgxODE4O3N0cm9rZS13aWR0aDoxLjA7IiB4MT0iNjciIHgyPSI2NyIgeTE9IjQzNi4zMjgxIiB5Mj0iNDU2LjMyODEiLz48cG9seWdvbiBmaWxsPSIjMTgxODE4IiBwb2ludHM9IjYzLDQ0Ni4zMjgxLDY3LDQ1Ni4zMjgxLDcxLDQ0Ni4zMjgxLDY3LDQ1MC4zMjgxIiBzdHlsZT0ic3Ryb2tlOiMxODE4MTg7c3Ryb2tlLXdpZHRoOjEuMDsiLz48bGluZSBzdHlsZT0ic3Ryb2tlOiMxODE4MTg7c3Ryb2tlLXdpZHRoOjEuMDsiIHgxPSIxNjciIHgyPSIxNTciIHkxPSIyOTguNjQwNiIgeTI9IjI5OC42NDA2Ii8+PGxpbmUgc3R5bGU9InN0cm9rZTojMTgxODE4O3N0cm9rZS13aWR0aDoxLjA7IiB4MT0iMTU3IiB4Mj0iMTU3IiB5MT0iMjk4LjY0MDYiIHkyPSIzMjAuNjQwNiIvPjxwb2x5Z29uIGZpbGw9IiMxODE4MTgiIHBvaW50cz0iMTUzLDMxMC42NDA2LDE1NywzMjAuNjQwNiwxNjEsMzEwLjY0MDYsMTU3LDMxNC42NDA2IiBzdHlsZT0ic3Ryb2tlOiMxODE4MTg7c3Ryb2tlLXdpZHRoOjEuMDsiLz48bGluZSBzdHlsZT0ic3Ryb2tlOiMxODE4MTg7c3Ryb2tlLXdpZHRoOjEuMDsiIHgxPSIyNjMiIHgyPSIyNzMiIHkxPSIyOTguNjQwNiIgeTI9IjI5OC42NDA2Ii8+PGxpbmUgc3R5bGU9InN0cm9rZTojMTgxODE4O3N0cm9rZS13aWR0aDoxLjA7IiB4MT0iMjczIiB4Mj0iMjczIiB5MT0iMjk4LjY0MDYiIHkyPSIzMjAuNjQwNiIvPjxwb2x5Z29uIGZpbGw9IiMxODE4MTgiIHBvaW50cz0iMjY5LDMxMC42NDA2LDI3MywzMjAuNjQwNiwyNzcsMzEwLjY0MDYsMjczLDMxNC42NDA2IiBzdHlsZT0ic3Ryb2tlOiMxODE4MTg7c3Ryb2tlLXdpZHRoOjEuMDsiLz48bGluZSBzdHlsZT0ic3Ryb2tlOiMxODE4MTg7c3Ryb2tlLXdpZHRoOjEuMDsiIHgxPSIxNTciIHgyPSIxNTciIHkxPSIzNTMuNDg0NCIgeTI9IjM3MS40ODQ0Ii8+PGxpbmUgc3R5bGU9InN0cm9rZTojMTgxODE4O3N0cm9rZS13aWR0aDoxLjA7IiB4MT0iMTU3IiB4Mj0iMjAzIiB5MT0iMzcxLjQ4NDQiIHkyPSIzNzEuNDg0NCIvPjxwb2x5Z29uIGZpbGw9IiMxODE4MTgiIHBvaW50cz0iMTkzLDM2Ny40ODQ0LDIwMywzNzEuNDg0NCwxOTMsMzc1LjQ4NDQsMTk3LDM3MS40ODQ0IiBzdHlsZT0ic3Ryb2tlOiMxODE4MTg7c3Ryb2tlLXdpZHRoOjEuMDsiLz48bGluZSBzdHlsZT0ic3Ryb2tlOiMxODE4MTg7c3Ryb2tlLXdpZHRoOjEuMDsiIHgxPSIyNzMiIHgyPSIyNzMiIHkxPSIzNTMuNDg0NCIgeTI9IjM3MS40ODQ0Ii8+PGxpbmUgc3R5bGU9InN0cm9rZTojMTgxODE4O3N0cm9rZS13aWR0aDoxLjA7IiB4MT0iMjczIiB4Mj0iMjI3IiB5MT0iMzcxLjQ4NDQiIHkyPSIzNzEuNDg0NCIvPjxwb2x5Z29uIGZpbGw9IiMxODE4MTgiIHBvaW50cz0iMjM3LDM2Ny40ODQ0LDIyNywzNzEuNDg0NCwyMzcsMzc1LjQ4NDQsMjMzLDM3MS40ODQ0IiBzdHlsZT0ic3Ryb2tlOiMxODE4MTg7c3Ryb2tlLXdpZHRoOjEuMDsiLz48bGluZSBzdHlsZT0ic3Ryb2tlOiMxODE4MTg7c3Ryb2tlLXdpZHRoOjEuMDsiIHgxPSIyMTUiIHgyPSIyMTUiIHkxPSIyNjYuNjQwNiIgeTI9IjI4Ni42NDA2Ii8+PHBvbHlnb24gZmlsbD0iIzE4MTgxOCIgcG9pbnRzPSIyMTEsMjc2LjY0MDYsMjE1LDI4Ni42NDA2LDIxOSwyNzYuNjQwNiwyMTUsMjgwLjY0MDYiIHN0eWxlPSJzdHJva2U6IzE4MTgxODtzdHJva2Utd2lkdGg6MS4wOyIvPjxsaW5lIHN0eWxlPSJzdHJva2U6IzE4MTgxODtzdHJva2Utd2lkdGg6MS4wOyIgeDE9IjY3IiB4Mj0iNjciIHkxPSIyMTMuNzk2OSIgeTI9IjIxOC43OTY5Ii8+PGxpbmUgc3R5bGU9InN0cm9rZTojMTgxODE4O3N0cm9rZS13aWR0aDoxLjA7IiB4MT0iNjciIHgyPSIyMTUiIHkxPSIyMTguNzk2OSIgeTI9IjIxOC43OTY5Ii8+PGxpbmUgc3R5bGU9InN0cm9rZTojMTgxODE4O3N0cm9rZS13aWR0aDoxLjA7IiB4MT0iMjE1IiB4Mj0iMjE1IiB5MT0iMjE4Ljc5NjkiIHkyPSIyMzMuNzk2OSIvPjxwb2x5Z29uIGZpbGw9IiMxODE4MTgiIHBvaW50cz0iMjExLDIyMy43OTY5LDIxNSwyMzMuNzk2OSwyMTksMjIzLjc5NjksMjE1LDIyNy43OTY5IiBzdHlsZT0ic3Ryb2tlOiMxODE4MTg7c3Ryb2tlLXdpZHRoOjEuMDsiLz48bGluZSBzdHlsZT0ic3Ryb2tlOiMxODE4MTg7c3Ryb2tlLXdpZHRoOjEuMDsiIHgxPSIyMTUiIHgyPSIyMTUiIHkxPSIzODMuNDg0NCIgeTI9IjM4OC40ODQ0Ii8+PGxpbmUgc3R5bGU9InN0cm9rZTojMTgxODE4O3N0cm9rZS13aWR0aDoxLjA7IiB4MT0iMjE1IiB4Mj0iNjciIHkxPSIzODguNDg0NCIgeTI9IjM4OC40ODQ0Ii8+PGxpbmUgc3R5bGU9InN0cm9rZTojMTgxODE4O3N0cm9rZS13aWR0aDoxLjA7IiB4MT0iNjciIHgyPSI2NyIgeTE9IjM4OC40ODQ0IiB5Mj0iNDAzLjQ4NDQiLz48cG9seWdvbiBmaWxsPSIjMTgxODE4IiBwb2ludHM9IjYzLDM5My40ODQ0LDY3LDQwMy40ODQ0LDcxLDM5My40ODQ0LDY3LDM5Ny40ODQ0IiBzdHlsZT0ic3Ryb2tlOiMxODE4MTg7c3Ryb2tlLXdpZHRoOjEuMDsiLz48dGV4dCBmaWxsPSIjMDAwMDAwIiBmb250LWZhbWlseT0ic2Fucy1zZXJpZiIgZm9udC1zaXplPSIxOCIgbGVuZ3RoQWRqdXN0PSJzcGFjaW5nIiB0ZXh0TGVuZ3RoPSIzNiIgeD0iNDgiIHk9IjI4LjAxNTYiPiYjMjU5NDU7JiMyNDA3Mjs8L3RleHQ+PHRleHQgZmlsbD0iIzAwMDAwMCIgZm9udC1mYW1pbHk9InNhbnMtc2VyaWYiIGZvbnQtc2l6ZT0iMTgiIGxlbmd0aEFkanVzdD0ic3BhY2luZyIgdGV4dExlbmd0aD0iMTA4IiB4PSIxNjYiIHk9IjI4LjAxNTYiPiYjMzU4Mzg7JiMzMTI0MzsmIzMxNjQ5OyYjMjk3MDI7JiMyNzE2OTsmIzIyMzU5OzwvdGV4dD48IS0tU1JDPVtMT19CMmU5RzY4SnR2b2RFQ2J6MTVwckJhOThHNVVkSVhINktxQ3NlQUJpVmcxMDJOR0hYSVZhb19sLW5qLVlXajZXdkN6XzBaOEtCM29CNzhlUFBRUGo0dmJ1Q2htTV9uSm0tQTRHNlRlTVVidUxseFdfSVg2NGQ1MlBFdEZIdi1aVTlMTVdVQ0V4c3E2VW1NcmUyN1B6blZsejdUT3NNUzFNMlVfZE93b3BmR3kzbTY5S2JRalJLSFh2OVg1OFA5YkU4a2FMTDhNaFRLNmI5VEZCaU96a21zSFZKcW9KMC1LQ0daUWdrWUhzX0dwODRHdEhTZDh0SXJyT0hfdmdqQm0wMF0tLT48L2c+PC9zdmc+;" vertex="1" parent="1">
            <mxGeometry x="350" y="1330" width="344" height="490" as="geometry" />
          </mxCell>
        </UserObject>
        <UserObject label="" plantUmlData="{&#xa;  &quot;data&quot;: &quot;@startuml\nclass 学生 {\n  - 学号: int\n  - 姓名: String\n  - 专业: String\n  - 年级: String\n  --\n  + 登录(): bool\n  + 查询课程(): List&lt;课程&gt;\n  + 选课(课程): void\n  + 查看课程表(): List&lt;课程表&gt;\n}\n\nclass 教师 {\n  - 教师ID: int\n  - 姓名: String\n  - 专业领域: String\n  --\n  + 登录(): bool\n  + 录入课程(课程): void\n  + 申请课程调整(课程): void\n}\n\nclass 管理员 {\n  - 管理员ID: int\n  - 姓名: String\n  --\n  + 登录(): bool\n  + 审核课程调整(调整请求): void\n}\n\nclass 课程 {\n  - 课程ID: int\n  - 名称: String\n  - 学分: int\n  - 教师ID: int\n  --\n  + 获取课程信息(): String\n}\n\nclass 选课 {\n  - 学号: int\n  - 课程ID: int\n  - 选课时间: Date\n  --\n  + 添加选课记录(学生, 课程): void\n  + 删除选课记录(学生, 课程): void\n}\n\nclass 调整请求 {\n  - 请求ID: int\n  - 教师ID: int\n  - 课程ID: int\n  - 调整原因: String\n  --\n  + 提交请求(): void\n  + 查看请求状态(): String\n}\n\nclass 课程表 {\n  - 学号: int\n  - 课程列表: List&lt;课程&gt;\n  --\n  + 查看课程表(): List&lt;课程&gt;\n}\n\n学生 \&quot;1\&quot; -- \&quot;N\&quot; 选课 : 选课关系\n学生 \&quot;1\&quot; -- \&quot;1\&quot; 课程表 : 拥有\n教师 \&quot;1\&quot; -- \&quot;N\&quot; 课程 : 授课\n管理员 \&quot;1\&quot; -- \&quot;N\&quot; 调整请求 : 审核\n课程 \&quot;1\&quot; -- \&quot;N\&quot; 选课 : 包含\n课程 \&quot;1\&quot; -- \&quot;N\&quot; 调整请求 : 调整\n@enduml\n\n&quot;,&#xa;  &quot;format&quot;: &quot;svg&quot;&#xa;}" id="DPlwqAMeHo2gNVx5Dcs1-11">
          <mxCell style="shape=image;noLabel=1;verticalAlign=top;aspect=fixed;imageAspect=0;image=data:image/svg+xml,PD94bWwgdmVyc2lvbj0iMS4wIiBlbmNvZGluZz0idXMtYXNjaWkiIHN0YW5kYWxvbmU9Im5vIj8+PHN2ZyB4bWxucz0iaHR0cDovL3d3dy53My5vcmcvMjAwMC9zdmciIHhtbG5zOnhsaW5rPSJodHRwOi8vd3d3LnczLm9yZy8xOTk5L3hsaW5rIiBjb250ZW50U3R5bGVUeXBlPSJ0ZXh0L2NzcyIgaGVpZ2h0PSI2MDdweCIgcHJlc2VydmVBc3BlY3RSYXRpbz0ibm9uZSIgc3R5bGU9IndpZHRoOjcyMXB4O2hlaWdodDo2MDdweDtiYWNrZ3JvdW5kOiNGRkZGRkY7IiB2ZXJzaW9uPSIxLjEiIHZpZXdCb3g9IjAgMCA3MjEgNjA3IiB3aWR0aD0iNzIxcHgiIHpvb21BbmRQYW49Im1hZ25pZnkiPjxkZWZzLz48Zz48IS0tY2xhc3MgPz8tLT48ZyBpZD0iZWxlbV8mIzIzMzk4OyYjMjk5ODM7Ij48cmVjdCBjb2RlTGluZT0iMSIgZmlsbD0iI0YxRjFGMSIgaGVpZ2h0PSIxNjcuODc1IiBpZD0iJiMyMzM5ODsmIzI5OTgzOyIgcng9IjIuNSIgcnk9IjIuNSIgc3R5bGU9InN0cm9rZTojMTgxODE4O3N0cm9rZS13aWR0aDowLjU7IiB3aWR0aD0iMjEwIiB4PSIxNiIgeT0iMjIwIi8+PGVsbGlwc2UgY3g9IjEwMi43NSIgY3k9IjIzNiIgZmlsbD0iI0FERDFCMiIgcng9IjExIiByeT0iMTEiIHN0eWxlPSJzdHJva2U6IzE4MTgxODtzdHJva2Utd2lkdGg6MS4wOyIvPjxwYXRoIGQ9Ik0xMDAuMzc1LDI0MC4yNSBMMTAwLjM3NSwyNDIgTDEwNS4zMTI1LDI0MiBMMTA1LjMxMjUsMjQwLjI1IEwxMDAuMzc1LDI0MC4yNSBaIE0xMDEuMDYyNSwyNDAuOTM3NSBRMTAxLjA2MjUsMjQwLjkzNzUgMTAxLjA2MjUsMjMxLjc1IEw5OS4zMTI1LDIzMS43NSBROTkuMzEyNSwyMzEuNzUgOTkuMzEyNSwyNDAuOTM3NSBMMTAxLjA2MjUsMjQwLjkzNzUgWiBNMTA0LjYyNSwyNDAuOTM3NSBMMTA2LjM3NSwyNDAuOTM3NSBRMTA2LjM3NSwyNDAuOTM3NSAxMDYuMzc1LDIzOC4xMjUgTDEwNC42MjUsMjM4LjEyNSBRMTA0LjYyNSwyMzguMTI1IDEwNC42MjUsMjQwLjkzNzUgWiBNMTA0LjYyNSwyMzEuNzUgUTEwNC42MjUsMjMxLjc1IDEwNC42MjUsMjM0LjU2MjUgTDEwNi4zNzUsMjM0LjU2MjUgUTEwNi4zNzUsMjM0LjU2MjUgMTA2LjM3NSwyMzEuNzUgTDEwNC42MjUsMjMxLjc1IFogTTEwMC4zNzUsMjMyLjQzNzUgTDEwNS4zMTI1LDIzMi40Mzc1IEwxMDUuMzEyNSwyMzAuNjg3NSBMMTAwLjM3NSwyMzAuNjg3NSBMMTAwLjM3NSwyMzIuNDM3NSBaICIgZmlsbD0iIzAwMDAwMCIvPjx0ZXh0IGZpbGw9IiMwMDAwMDAiIGZvbnQtZmFtaWx5PSJzYW5zLXNlcmlmIiBmb250LXNpemU9IjE0IiBsZW5ndGhBZGp1c3Q9InNwYWNpbmciIHRleHRMZW5ndGg9IjI4IiB4PSIxMjMuMjUiIHk9IjI0MS43NDIyIj4mIzIzMzk4OyYjMjk5ODM7PC90ZXh0PjxsaW5lIHN0eWxlPSJzdHJva2U6IzE4MTgxODtzdHJva2Utd2lkdGg6MC41OyIgeDE9IjE3IiB4Mj0iMjI1IiB5MT0iMjUyIiB5Mj0iMjUyIi8+PHJlY3QgZmlsbD0ibm9uZSIgaGVpZ2h0PSI2IiBzdHlsZT0ic3Ryb2tlOiNDODI5MzA7c3Ryb2tlLXdpZHRoOjEuMDsiIHdpZHRoPSI2IiB4PSIyNCIgeT0iMjYxLjk5MjIiLz48dGV4dCBmaWxsPSIjMDAwMDAwIiBmb250LWZhbWlseT0ic2Fucy1zZXJpZiIgZm9udC1zaXplPSIxNCIgbGVuZ3RoQWRqdXN0PSJzcGFjaW5nIiB0ZXh0TGVuZ3RoPSI2MyIgeD0iMzYiIHk9IjI2OS4yMzQ0Ij4mIzIzMzk4OyYjMjE0OTU7OiBpbnQ8L3RleHQ+PHJlY3QgZmlsbD0ibm9uZSIgaGVpZ2h0PSI2IiBzdHlsZT0ic3Ryb2tlOiNDODI5MzA7c3Ryb2tlLXdpZHRoOjEuMDsiIHdpZHRoPSI2IiB4PSIyNCIgeT0iMjc2Ljk3NjYiLz48dGV4dCBmaWxsPSIjMDAwMDAwIiBmb250LWZhbWlseT0ic2Fucy1zZXJpZiIgZm9udC1zaXplPSIxNCIgbGVuZ3RoQWRqdXN0PSJzcGFjaW5nIiB0ZXh0TGVuZ3RoPSI4NCIgeD0iMzYiIHk9IjI4NC4yMTg4Ij4mIzIyOTk1OyYjMjE1MTc7OiBTdHJpbmc8L3RleHQ+PHJlY3QgZmlsbD0ibm9uZSIgaGVpZ2h0PSI2IiBzdHlsZT0ic3Ryb2tlOiNDODI5MzA7c3Ryb2tlLXdpZHRoOjEuMDsiIHdpZHRoPSI2IiB4PSIyNCIgeT0iMjkxLjk2MDkiLz48dGV4dCBmaWxsPSIjMDAwMDAwIiBmb250LWZhbWlseT0ic2Fucy1zZXJpZiIgZm9udC1zaXplPSIxNCIgbGVuZ3RoQWRqdXN0PSJzcGFjaW5nIiB0ZXh0TGVuZ3RoPSI4NCIgeD0iMzYiIHk9IjI5OS4yMDMxIj4mIzE5OTg3OyYjMTk5OTQ7OiBTdHJpbmc8L3RleHQ+PHJlY3QgZmlsbD0ibm9uZSIgaGVpZ2h0PSI2IiBzdHlsZT0ic3Ryb2tlOiNDODI5MzA7c3Ryb2tlLXdpZHRoOjEuMDsiIHdpZHRoPSI2IiB4PSIyNCIgeT0iMzA2Ljk0NTMiLz48dGV4dCBmaWxsPSIjMDAwMDAwIiBmb250LWZhbWlseT0ic2Fucy1zZXJpZiIgZm9udC1zaXplPSIxNCIgbGVuZ3RoQWRqdXN0PSJzcGFjaW5nIiB0ZXh0TGVuZ3RoPSI4NCIgeD0iMzYiIHk9IjMxNC4xODc1Ij4mIzI0MTgwOyYjMzI0MjM7OiBTdHJpbmc8L3RleHQ+PGxpbmUgc3R5bGU9InN0cm9rZTojMTgxODE4O3N0cm9rZS13aWR0aDoxLjA7IiB4MT0iMTciIHgyPSIyMjUiIHkxPSIzMTkuOTM3NSIgeTI9IjMxOS45Mzc1Ii8+PGVsbGlwc2UgY3g9IjI3IiBjeT0iMzMyLjkyOTciIGZpbGw9IiM4NEJFODQiIHJ4PSIzIiByeT0iMyIgc3R5bGU9InN0cm9rZTojMDM4MDQ4O3N0cm9rZS13aWR0aDoxLjA7Ii8+PHRleHQgZmlsbD0iIzAwMDAwMCIgZm9udC1mYW1pbHk9InNhbnMtc2VyaWYiIGZvbnQtc2l6ZT0iMTQiIGxlbmd0aEFkanVzdD0ic3BhY2luZyIgdGV4dExlbmd0aD0iODYiIHg9IjM2IiB5PSIzMzcuMTcxOSI+JiMzMDMzMTsmIzI0NDA1OygpOiBib29sPC90ZXh0PjxlbGxpcHNlIGN4PSIyNyIgY3k9IjM0Ny45MTQxIiBmaWxsPSIjODRCRTg0IiByeD0iMyIgcnk9IjMiIHN0eWxlPSJzdHJva2U6IzAzODA0ODtzdHJva2Utd2lkdGg6MS4wOyIvPjx0ZXh0IGZpbGw9IiMwMDAwMDAiIGZvbnQtZmFtaWx5PSJzYW5zLXNlcmlmIiBmb250LXNpemU9IjE0IiBsZW5ndGhBZGp1c3Q9InNwYWNpbmciIHRleHRMZW5ndGg9IjE1NiIgeD0iMzYiIHk9IjM1Mi4xNTYzIj4mIzI2NTk3OyYjMzU4MTA7JiMzNTgzODsmIzMxMjQzOygpOiBMaXN0Jmx0OyYjMzU4Mzg7JiMzMTI0MzsmZ3Q7PC90ZXh0PjxlbGxpcHNlIGN4PSIyNyIgY3k9IjM2Mi44OTg0IiBmaWxsPSIjODRCRTg0IiByeD0iMyIgcnk9IjMiIHN0eWxlPSJzdHJva2U6IzAzODA0ODtzdHJva2Utd2lkdGg6MS4wOyIvPjx0ZXh0IGZpbGw9IiMwMDAwMDAiIGZvbnQtZmFtaWx5PSJzYW5zLXNlcmlmIiBmb250LXNpemU9IjE0IiBsZW5ndGhBZGp1c3Q9InNwYWNpbmciIHRleHRMZW5ndGg9IjExNCIgeD0iMzYiIHk9IjM2Ny4xNDA2Ij4mIzM2ODczOyYjMzU4Mzg7KCYjMzU4Mzg7JiMzMTI0MzspOiB2b2lkPC90ZXh0PjxlbGxpcHNlIGN4PSIyNyIgY3k9IjM3Ny44ODI4IiBmaWxsPSIjODRCRTg0IiByeD0iMyIgcnk9IjMiIHN0eWxlPSJzdHJva2U6IzAzODA0ODtzdHJva2Utd2lkdGg6MS4wOyIvPjx0ZXh0IGZpbGw9IiMwMDAwMDAiIGZvbnQtZmFtaWx5PSJzYW5zLXNlcmlmIiBmb250LXNpemU9IjE0IiBsZW5ndGhBZGp1c3Q9InNwYWNpbmciIHRleHRMZW5ndGg9IjE4NCIgeD0iMzYiIHk9IjM4Mi4xMjUiPiYjMjY1OTc7JiMzMDQ3NTsmIzM1ODM4OyYjMzEyNDM7JiMzNDkyMDsoKTogTGlzdCZsdDsmIzM1ODM4OyYjMzEyNDM7JiMzNDkyMDsmZ3Q7PC90ZXh0PjwvZz48IS0tY2xhc3MgPz8tLT48ZyBpZD0iZWxlbV8mIzI1OTQ1OyYjMjQwNzI7Ij48cmVjdCBjb2RlTGluZT0iMTMiIGZpbGw9IiNGMUYxRjEiIGhlaWdodD0iMTM3LjkwNjMiIGlkPSImIzI1OTQ1OyYjMjQwNzI7IiByeD0iMi41IiByeT0iMi41IiBzdHlsZT0ic3Ryb2tlOiMxODE4MTg7c3Ryb2tlLXdpZHRoOjAuNTsiIHdpZHRoPSIxOTYiIHg9IjI2NCIgeT0iNyIvPjxlbGxpcHNlIGN4PSIzNDMuNzUiIGN5PSIyMyIgZmlsbD0iI0FERDFCMiIgcng9IjExIiByeT0iMTEiIHN0eWxlPSJzdHJva2U6IzE4MTgxODtzdHJva2Utd2lkdGg6MS4wOyIvPjxwYXRoIGQ9Ik0zNDEuMzc1LDI3LjI1IEwzNDEuMzc1LDI5IEwzNDYuMzEyNSwyOSBMMzQ2LjMxMjUsMjcuMjUgTDM0MS4zNzUsMjcuMjUgWiBNMzQyLjA2MjUsMjcuOTM3NSBRMzQyLjA2MjUsMjcuOTM3NSAzNDIuMDYyNSwxOC43NSBMMzQwLjMxMjUsMTguNzUgUTM0MC4zMTI1LDE4Ljc1IDM0MC4zMTI1LDI3LjkzNzUgTDM0Mi4wNjI1LDI3LjkzNzUgWiBNMzQ1LjYyNSwyNy45Mzc1IEwzNDcuMzc1LDI3LjkzNzUgUTM0Ny4zNzUsMjcuOTM3NSAzNDcuMzc1LDI1LjEyNSBMMzQ1LjYyNSwyNS4xMjUgUTM0NS42MjUsMjUuMTI1IDM0NS42MjUsMjcuOTM3NSBaIE0zNDUuNjI1LDE4Ljc1IFEzNDUuNjI1LDE4Ljc1IDM0NS42MjUsMjEuNTYyNSBMMzQ3LjM3NSwyMS41NjI1IFEzNDcuMzc1LDIxLjU2MjUgMzQ3LjM3NSwxOC43NSBMMzQ1LjYyNSwxOC43NSBaIE0zNDEuMzc1LDE5LjQzNzUgTDM0Ni4zMTI1LDE5LjQzNzUgTDM0Ni4zMTI1LDE3LjY4NzUgTDM0MS4zNzUsMTcuNjg3NSBMMzQxLjM3NSwxOS40Mzc1IFogIiBmaWxsPSIjMDAwMDAwIi8+PHRleHQgZmlsbD0iIzAwMDAwMCIgZm9udC1mYW1pbHk9InNhbnMtc2VyaWYiIGZvbnQtc2l6ZT0iMTQiIGxlbmd0aEFkanVzdD0ic3BhY2luZyIgdGV4dExlbmd0aD0iMjgiIHg9IjM2NC4yNSIgeT0iMjguNzQyMiI+JiMyNTk0NTsmIzI0MDcyOzwvdGV4dD48bGluZSBzdHlsZT0ic3Ryb2tlOiMxODE4MTg7c3Ryb2tlLXdpZHRoOjAuNTsiIHgxPSIyNjUiIHgyPSI0NTkiIHkxPSIzOSIgeTI9IjM5Ii8+PHJlY3QgZmlsbD0ibm9uZSIgaGVpZ2h0PSI2IiBzdHlsZT0ic3Ryb2tlOiNDODI5MzA7c3Ryb2tlLXdpZHRoOjEuMDsiIHdpZHRoPSI2IiB4PSIyNzIiIHk9IjQ4Ljk5MjIiLz48dGV4dCBmaWxsPSIjMDAwMDAwIiBmb250LWZhbWlseT0ic2Fucy1zZXJpZiIgZm9udC1zaXplPSIxNCIgbGVuZ3RoQWRqdXN0PSJzcGFjaW5nIiB0ZXh0TGVuZ3RoPSI3NyIgeD0iMjg0IiB5PSI1Ni4yMzQ0Ij4mIzI1OTQ1OyYjMjQwNzI7SUQ6IGludDwvdGV4dD48cmVjdCBmaWxsPSJub25lIiBoZWlnaHQ9IjYiIHN0eWxlPSJzdHJva2U6I0M4MjkzMDtzdHJva2Utd2lkdGg6MS4wOyIgd2lkdGg9IjYiIHg9IjI3MiIgeT0iNjMuOTc2NiIvPjx0ZXh0IGZpbGw9IiMwMDAwMDAiIGZvbnQtZmFtaWx5PSJzYW5zLXNlcmlmIiBmb250LXNpemU9IjE0IiBsZW5ndGhBZGp1c3Q9InNwYWNpbmciIHRleHRMZW5ndGg9Ijg0IiB4PSIyODQiIHk9IjcxLjIxODgiPiYjMjI5OTU7JiMyMTUxNzs6IFN0cmluZzwvdGV4dD48cmVjdCBmaWxsPSJub25lIiBoZWlnaHQ9IjYiIHN0eWxlPSJzdHJva2U6I0M4MjkzMDtzdHJva2Utd2lkdGg6MS4wOyIgd2lkdGg9IjYiIHg9IjI3MiIgeT0iNzguOTYwOSIvPjx0ZXh0IGZpbGw9IiMwMDAwMDAiIGZvbnQtZmFtaWx5PSJzYW5zLXNlcmlmIiBmb250LXNpemU9IjE0IiBsZW5ndGhBZGp1c3Q9InNwYWNpbmciIHRleHRMZW5ndGg9IjExMiIgeD0iMjg0IiB5PSI4Ni4yMDMxIj4mIzE5OTg3OyYjMTk5OTQ7JiMzOTA0NjsmIzIyNDk1OzogU3RyaW5nPC90ZXh0PjxsaW5lIHN0eWxlPSJzdHJva2U6IzE4MTgxODtzdHJva2Utd2lkdGg6MS4wOyIgeDE9IjI2NSIgeDI9IjQ1OSIgeTE9IjkxLjk1MzEiIHkyPSI5MS45NTMxIi8+PGVsbGlwc2UgY3g9IjI3NSIgY3k9IjEwNC45NDUzIiBmaWxsPSIjODRCRTg0IiByeD0iMyIgcnk9IjMiIHN0eWxlPSJzdHJva2U6IzAzODA0ODtzdHJva2Utd2lkdGg6MS4wOyIvPjx0ZXh0IGZpbGw9IiMwMDAwMDAiIGZvbnQtZmFtaWx5PSJzYW5zLXNlcmlmIiBmb250LXNpemU9IjE0IiBsZW5ndGhBZGp1c3Q9InNwYWNpbmciIHRleHRMZW5ndGg9Ijg2IiB4PSIyODQiIHk9IjEwOS4xODc1Ij4mIzMwMzMxOyYjMjQ0MDU7KCk6IGJvb2w8L3RleHQ+PGVsbGlwc2UgY3g9IjI3NSIgY3k9IjExOS45Mjk3IiBmaWxsPSIjODRCRTg0IiByeD0iMyIgcnk9IjMiIHN0eWxlPSJzdHJva2U6IzAzODA0ODtzdHJva2Utd2lkdGg6MS4wOyIvPjx0ZXh0IGZpbGw9IiMwMDAwMDAiIGZvbnQtZmFtaWx5PSJzYW5zLXNlcmlmIiBmb250LXNpemU9IjE0IiBsZW5ndGhBZGp1c3Q9InNwYWNpbmciIHRleHRMZW5ndGg9IjE0MiIgeD0iMjg0IiB5PSIxMjQuMTcxOSI+JiMyNDQwNTsmIzIwODM3OyYjMzU4Mzg7JiMzMTI0MzsoJiMzNTgzODsmIzMxMjQzOyk6IHZvaWQ8L3RleHQ+PGVsbGlwc2UgY3g9IjI3NSIgY3k9IjEzNC45MTQxIiBmaWxsPSIjODRCRTg0IiByeD0iMyIgcnk9IjMiIHN0eWxlPSJzdHJva2U6IzAzODA0ODtzdHJva2Utd2lkdGg6MS4wOyIvPjx0ZXh0IGZpbGw9IiMwMDAwMDAiIGZvbnQtZmFtaWx5PSJzYW5zLXNlcmlmIiBmb250LXNpemU9IjE0IiBsZW5ndGhBZGp1c3Q9InNwYWNpbmciIHRleHRMZW5ndGg9IjE3MCIgeD0iMjg0IiB5PSIxMzkuMTU2MyI+JiMzMDAwMzsmIzM1ODMxOyYjMzU4Mzg7JiMzMTI0MzsmIzM1ODQzOyYjMjU5NzI7KCYjMzU4Mzg7JiMzMTI0MzspOiB2b2lkPC90ZXh0PjwvZz48IS0tY2xhc3MgPz8/LS0+PGcgaWQ9ImVsZW1fJiMzMTY0OTsmIzI5NzAyOyYjMjE1OTI7Ij48cmVjdCBjb2RlTGluZT0iMjMiIGZpbGw9IiNGMUYxRjEiIGhlaWdodD0iMTA3LjkzNzUiIGlkPSImIzMxNjQ5OyYjMjk3MDI7JiMyMTU5MjsiIHJ4PSIyLjUiIHJ5PSIyLjUiIHN0eWxlPSJzdHJva2U6IzE4MTgxODtzdHJva2Utd2lkdGg6MC41OyIgd2lkdGg9IjIyNCIgeD0iNDkwIiB5PSIyNTAiLz48ZWxsaXBzZSBjeD0iNTc2Ljc1IiBjeT0iMjY2IiBmaWxsPSIjQUREMUIyIiByeD0iMTEiIHJ5PSIxMSIgc3R5bGU9InN0cm9rZTojMTgxODE4O3N0cm9rZS13aWR0aDoxLjA7Ii8+PHBhdGggZD0iTTU3NC4zNzUsMjcwLjI1IEw1NzQuMzc1LDI3MiBMNTc5LjMxMjUsMjcyIEw1NzkuMzEyNSwyNzAuMjUgTDU3NC4zNzUsMjcwLjI1IFogTTU3NS4wNjI1LDI3MC45Mzc1IFE1NzUuMDYyNSwyNzAuOTM3NSA1NzUuMDYyNSwyNjEuNzUgTDU3My4zMTI1LDI2MS43NSBRNTczLjMxMjUsMjYxLjc1IDU3My4zMTI1LDI3MC45Mzc1IEw1NzUuMDYyNSwyNzAuOTM3NSBaIE01NzguNjI1LDI3MC45Mzc1IEw1ODAuMzc1LDI3MC45Mzc1IFE1ODAuMzc1LDI3MC45Mzc1IDU4MC4zNzUsMjY4LjEyNSBMNTc4LjYyNSwyNjguMTI1IFE1NzguNjI1LDI2OC4xMjUgNTc4LjYyNSwyNzAuOTM3NSBaIE01NzguNjI1LDI2MS43NSBRNTc4LjYyNSwyNjEuNzUgNTc4LjYyNSwyNjQuNTYyNSBMNTgwLjM3NSwyNjQuNTYyNSBRNTgwLjM3NSwyNjQuNTYyNSA1ODAuMzc1LDI2MS43NSBMNTc4LjYyNSwyNjEuNzUgWiBNNTc0LjM3NSwyNjIuNDM3NSBMNTc5LjMxMjUsMjYyLjQzNzUgTDU3OS4zMTI1LDI2MC42ODc1IEw1NzQuMzc1LDI2MC42ODc1IEw1NzQuMzc1LDI2Mi40Mzc1IFogIiBmaWxsPSIjMDAwMDAwIi8+PHRleHQgZmlsbD0iIzAwMDAwMCIgZm9udC1mYW1pbHk9InNhbnMtc2VyaWYiIGZvbnQtc2l6ZT0iMTQiIGxlbmd0aEFkanVzdD0ic3BhY2luZyIgdGV4dExlbmd0aD0iNDIiIHg9IjU5Ny4yNSIgeT0iMjcxLjc0MjIiPiYjMzE2NDk7JiMyOTcwMjsmIzIxNTkyOzwvdGV4dD48bGluZSBzdHlsZT0ic3Ryb2tlOiMxODE4MTg7c3Ryb2tlLXdpZHRoOjAuNTsiIHgxPSI0OTEiIHgyPSI3MTMiIHkxPSIyODIiIHkyPSIyODIiLz48cmVjdCBmaWxsPSJub25lIiBoZWlnaHQ9IjYiIHN0eWxlPSJzdHJva2U6I0M4MjkzMDtzdHJva2Utd2lkdGg6MS4wOyIgd2lkdGg9IjYiIHg9IjQ5OCIgeT0iMjkxLjk5MjIiLz48dGV4dCBmaWxsPSIjMDAwMDAwIiBmb250LWZhbWlseT0ic2Fucy1zZXJpZiIgZm9udC1zaXplPSIxNCIgbGVuZ3RoQWRqdXN0PSJzcGFjaW5nIiB0ZXh0TGVuZ3RoPSI5MSIgeD0iNTEwIiB5PSIyOTkuMjM0NCI+JiMzMTY0OTsmIzI5NzAyOyYjMjE1OTI7SUQ6IGludDwvdGV4dD48cmVjdCBmaWxsPSJub25lIiBoZWlnaHQ9IjYiIHN0eWxlPSJzdHJva2U6I0M4MjkzMDtzdHJva2Utd2lkdGg6MS4wOyIgd2lkdGg9IjYiIHg9IjQ5OCIgeT0iMzA2Ljk3NjYiLz48dGV4dCBmaWxsPSIjMDAwMDAwIiBmb250LWZhbWlseT0ic2Fucy1zZXJpZiIgZm9udC1zaXplPSIxNCIgbGVuZ3RoQWRqdXN0PSJzcGFjaW5nIiB0ZXh0TGVuZ3RoPSI4NCIgeD0iNTEwIiB5PSIzMTQuMjE4OCI+JiMyMjk5NTsmIzIxNTE3OzogU3RyaW5nPC90ZXh0PjxsaW5lIHN0eWxlPSJzdHJva2U6IzE4MTgxODtzdHJva2Utd2lkdGg6MS4wOyIgeDE9IjQ5MSIgeDI9IjcxMyIgeTE9IjMxOS45Njg4IiB5Mj0iMzE5Ljk2ODgiLz48ZWxsaXBzZSBjeD0iNTAxIiBjeT0iMzMyLjk2MDkiIGZpbGw9IiM4NEJFODQiIHJ4PSIzIiByeT0iMyIgc3R5bGU9InN0cm9rZTojMDM4MDQ4O3N0cm9rZS13aWR0aDoxLjA7Ii8+PHRleHQgZmlsbD0iIzAwMDAwMCIgZm9udC1mYW1pbHk9InNhbnMtc2VyaWYiIGZvbnQtc2l6ZT0iMTQiIGxlbmd0aEFkanVzdD0ic3BhY2luZyIgdGV4dExlbmd0aD0iODYiIHg9IjUxMCIgeT0iMzM3LjIwMzEiPiYjMzAzMzE7JiMyNDQwNTsoKTogYm9vbDwvdGV4dD48ZWxsaXBzZSBjeD0iNTAxIiBjeT0iMzQ3Ljk0NTMiIGZpbGw9IiM4NEJFODQiIHJ4PSIzIiByeT0iMyIgc3R5bGU9InN0cm9rZTojMDM4MDQ4O3N0cm9rZS13aWR0aDoxLjA7Ii8+PHRleHQgZmlsbD0iIzAwMDAwMCIgZm9udC1mYW1pbHk9InNhbnMtc2VyaWYiIGZvbnQtc2l6ZT0iMTQiIGxlbmd0aEFkanVzdD0ic3BhY2luZyIgdGV4dExlbmd0aD0iMTk4IiB4PSI1MTAiIHk9IjM1Mi4xODc1Ij4mIzIzNDU3OyYjMjY2ODA7JiMzNTgzODsmIzMxMjQzOyYjMzU4NDM7JiMyNTk3MjsoJiMzNTg0MzsmIzI1OTcyOyYjMzU4MzE7JiMyNzcxNDspOiB2b2lkPC90ZXh0PjwvZz48IS0tY2xhc3MgPz8tLT48ZyBpZD0iZWxlbV8mIzM1ODM4OyYjMzEyNDM7Ij48cmVjdCBjb2RlTGluZT0iMzEiIGZpbGw9IiNGMUYxRjEiIGhlaWdodD0iMTIyLjkyMTkiIGlkPSImIzM1ODM4OyYjMzEyNDM7IiByeD0iMi41IiByeT0iMi41IiBzdHlsZT0ic3Ryb2tlOiMxODE4MTg7c3Ryb2tlLXdpZHRoOjAuNTsiIHdpZHRoPSIxODIiIHg9IjI3MSIgeT0iMjQyLjUiLz48ZWxsaXBzZSBjeD0iMzQzLjc1IiBjeT0iMjU4LjUiIGZpbGw9IiNBREQxQjIiIHJ4PSIxMSIgcnk9IjExIiBzdHlsZT0ic3Ryb2tlOiMxODE4MTg7c3Ryb2tlLXdpZHRoOjEuMDsiLz48cGF0aCBkPSJNMzQxLjM3NSwyNjIuNzUgTDM0MS4zNzUsMjY0LjUgTDM0Ni4zMTI1LDI2NC41IEwzNDYuMzEyNSwyNjIuNzUgTDM0MS4zNzUsMjYyLjc1IFogTTM0Mi4wNjI1LDI2My40Mzc1IFEzNDIuMDYyNSwyNjMuNDM3NSAzNDIuMDYyNSwyNTQuMjUgTDM0MC4zMTI1LDI1NC4yNSBRMzQwLjMxMjUsMjU0LjI1IDM0MC4zMTI1LDI2My40Mzc1IEwzNDIuMDYyNSwyNjMuNDM3NSBaIE0zNDUuNjI1LDI2My40Mzc1IEwzNDcuMzc1LDI2My40Mzc1IFEzNDcuMzc1LDI2My40Mzc1IDM0Ny4zNzUsMjYwLjYyNSBMMzQ1LjYyNSwyNjAuNjI1IFEzNDUuNjI1LDI2MC42MjUgMzQ1LjYyNSwyNjMuNDM3NSBaIE0zNDUuNjI1LDI1NC4yNSBRMzQ1LjYyNSwyNTQuMjUgMzQ1LjYyNSwyNTcuMDYyNSBMMzQ3LjM3NSwyNTcuMDYyNSBRMzQ3LjM3NSwyNTcuMDYyNSAzNDcuMzc1LDI1NC4yNSBMMzQ1LjYyNSwyNTQuMjUgWiBNMzQxLjM3NSwyNTQuOTM3NSBMMzQ2LjMxMjUsMjU0LjkzNzUgTDM0Ni4zMTI1LDI1My4xODc1IEwzNDEuMzc1LDI1My4xODc1IEwzNDEuMzc1LDI1NC45Mzc1IFogIiBmaWxsPSIjMDAwMDAwIi8+PHRleHQgZmlsbD0iIzAwMDAwMCIgZm9udC1mYW1pbHk9InNhbnMtc2VyaWYiIGZvbnQtc2l6ZT0iMTQiIGxlbmd0aEFkanVzdD0ic3BhY2luZyIgdGV4dExlbmd0aD0iMjgiIHg9IjM2NC4yNSIgeT0iMjY0LjI0MjIiPiYjMzU4Mzg7JiMzMTI0Mzs8L3RleHQ+PGxpbmUgc3R5bGU9InN0cm9rZTojMTgxODE4O3N0cm9rZS13aWR0aDowLjU7IiB4MT0iMjcyIiB4Mj0iNDUyIiB5MT0iMjc0LjUiIHkyPSIyNzQuNSIvPjxyZWN0IGZpbGw9Im5vbmUiIGhlaWdodD0iNiIgc3R5bGU9InN0cm9rZTojQzgyOTMwO3N0cm9rZS13aWR0aDoxLjA7IiB3aWR0aD0iNiIgeD0iMjc5IiB5PSIyODQuNDkyMiIvPjx0ZXh0IGZpbGw9IiMwMDAwMDAiIGZvbnQtZmFtaWx5PSJzYW5zLXNlcmlmIiBmb250LXNpemU9IjE0IiBsZW5ndGhBZGp1c3Q9InNwYWNpbmciIHRleHRMZW5ndGg9Ijc3IiB4PSIyOTEiIHk9IjI5MS43MzQ0Ij4mIzM1ODM4OyYjMzEyNDM7SUQ6IGludDwvdGV4dD48cmVjdCBmaWxsPSJub25lIiBoZWlnaHQ9IjYiIHN0eWxlPSJzdHJva2U6I0M4MjkzMDtzdHJva2Utd2lkdGg6MS4wOyIgd2lkdGg9IjYiIHg9IjI3OSIgeT0iMjk5LjQ3NjYiLz48dGV4dCBmaWxsPSIjMDAwMDAwIiBmb250LWZhbWlseT0ic2Fucy1zZXJpZiIgZm9udC1zaXplPSIxNCIgbGVuZ3RoQWRqdXN0PSJzcGFjaW5nIiB0ZXh0TGVuZ3RoPSI4NCIgeD0iMjkxIiB5PSIzMDYuNzE4OCI+JiMyMTUxNzsmIzMxMjE2OzogU3RyaW5nPC90ZXh0PjxyZWN0IGZpbGw9Im5vbmUiIGhlaWdodD0iNiIgc3R5bGU9InN0cm9rZTojQzgyOTMwO3N0cm9rZS13aWR0aDoxLjA7IiB3aWR0aD0iNiIgeD0iMjc5IiB5PSIzMTQuNDYwOSIvPjx0ZXh0IGZpbGw9IiMwMDAwMDAiIGZvbnQtZmFtaWx5PSJzYW5zLXNlcmlmIiBmb250LXNpemU9IjE0IiBsZW5ndGhBZGp1c3Q9InNwYWNpbmciIHRleHRMZW5ndGg9IjYzIiB4PSIyOTEiIHk9IjMyMS43MDMxIj4mIzIzMzk4OyYjMjA5OTg7OiBpbnQ8L3RleHQ+PHJlY3QgZmlsbD0ibm9uZSIgaGVpZ2h0PSI2IiBzdHlsZT0ic3Ryb2tlOiNDODI5MzA7c3Ryb2tlLXdpZHRoOjEuMDsiIHdpZHRoPSI2IiB4PSIyNzkiIHk9IjMyOS40NDUzIi8+PHRleHQgZmlsbD0iIzAwMDAwMCIgZm9udC1mYW1pbHk9InNhbnMtc2VyaWYiIGZvbnQtc2l6ZT0iMTQiIGxlbmd0aEFkanVzdD0ic3BhY2luZyIgdGV4dExlbmd0aD0iNzciIHg9IjI5MSIgeT0iMzM2LjY4NzUiPiYjMjU5NDU7JiMyNDA3MjtJRDogaW50PC90ZXh0PjxsaW5lIHN0eWxlPSJzdHJva2U6IzE4MTgxODtzdHJva2Utd2lkdGg6MS4wOyIgeDE9IjI3MiIgeDI9IjQ1MiIgeTE9IjM0Mi40Mzc1IiB5Mj0iMzQyLjQzNzUiLz48ZWxsaXBzZSBjeD0iMjgyIiBjeT0iMzU1LjQyOTciIGZpbGw9IiM4NEJFODQiIHJ4PSIzIiByeT0iMyIgc3R5bGU9InN0cm9rZTojMDM4MDQ4O3N0cm9rZS13aWR0aDoxLjA7Ii8+PHRleHQgZmlsbD0iIzAwMDAwMCIgZm9udC1mYW1pbHk9InNhbnMtc2VyaWYiIGZvbnQtc2l6ZT0iMTQiIGxlbmd0aEFkanVzdD0ic3BhY2luZyIgdGV4dExlbmd0aD0iMTU2IiB4PSIyOTEiIHk9IjM1OS42NzE5Ij4mIzMzNzE5OyYjMjE0NjI7JiMzNTgzODsmIzMxMjQzOyYjMjA0NDk7JiMyNDY4NzsoKTogU3RyaW5nPC90ZXh0PjwvZz48IS0tY2xhc3MgPz8tLT48ZyBpZD0iZWxlbV8mIzM2ODczOyYjMzU4Mzg7Ij48cmVjdCBjb2RlTGluZT0iNDAiIGZpbGw9IiNGMUYxRjEiIGhlaWdodD0iMTIyLjkyMTkiIGlkPSImIzM2ODczOyYjMzU4Mzg7IiByeD0iMi41IiByeT0iMi41IiBzdHlsZT0ic3Ryb2tlOiMxODE4MTg7c3Ryb2tlLXdpZHRoOjAuNTsiIHdpZHRoPSIyMzgiIHg9IjIzOCIgeT0iNDcwLjUiLz48ZWxsaXBzZSBjeD0iMzM4Ljc1IiBjeT0iNDg2LjUiIGZpbGw9IiNBREQxQjIiIHJ4PSIxMSIgcnk9IjExIiBzdHlsZT0ic3Ryb2tlOiMxODE4MTg7c3Ryb2tlLXdpZHRoOjEuMDsiLz48cGF0aCBkPSJNMzM2LjM3NSw0OTAuNzUgTDMzNi4zNzUsNDkyLjUgTDM0MS4zMTI1LDQ5Mi41IEwzNDEuMzEyNSw0OTAuNzUgTDMzNi4zNzUsNDkwLjc1IFogTTMzNy4wNjI1LDQ5MS40Mzc1IFEzMzcuMDYyNSw0OTEuNDM3NSAzMzcuMDYyNSw0ODIuMjUgTDMzNS4zMTI1LDQ4Mi4yNSBRMzM1LjMxMjUsNDgyLjI1IDMzNS4zMTI1LDQ5MS40Mzc1IEwzMzcuMDYyNSw0OTEuNDM3NSBaIE0zNDAuNjI1LDQ5MS40Mzc1IEwzNDIuMzc1LDQ5MS40Mzc1IFEzNDIuMzc1LDQ5MS40Mzc1IDM0Mi4zNzUsNDg4LjYyNSBMMzQwLjYyNSw0ODguNjI1IFEzNDAuNjI1LDQ4OC42MjUgMzQwLjYyNSw0OTEuNDM3NSBaIE0zNDAuNjI1LDQ4Mi4yNSBRMzQwLjYyNSw0ODIuMjUgMzQwLjYyNSw0ODUuMDYyNSBMMzQyLjM3NSw0ODUuMDYyNSBRMzQyLjM3NSw0ODUuMDYyNSAzNDIuMzc1LDQ4Mi4yNSBMMzQwLjYyNSw0ODIuMjUgWiBNMzM2LjM3NSw0ODIuOTM3NSBMMzQxLjMxMjUsNDgyLjkzNzUgTDM0MS4zMTI1LDQ4MS4xODc1IEwzMzYuMzc1LDQ4MS4xODc1IEwzMzYuMzc1LDQ4Mi45Mzc1IFogIiBmaWxsPSIjMDAwMDAwIi8+PHRleHQgZmlsbD0iIzAwMDAwMCIgZm9udC1mYW1pbHk9InNhbnMtc2VyaWYiIGZvbnQtc2l6ZT0iMTQiIGxlbmd0aEFkanVzdD0ic3BhY2luZyIgdGV4dExlbmd0aD0iMjgiIHg9IjM1OS4yNSIgeT0iNDkyLjI0MjIiPiYjMzY4NzM7JiMzNTgzODs8L3RleHQ+PGxpbmUgc3R5bGU9InN0cm9rZTojMTgxODE4O3N0cm9rZS13aWR0aDowLjU7IiB4MT0iMjM5IiB4Mj0iNDc1IiB5MT0iNTAyLjUiIHkyPSI1MDIuNSIvPjxyZWN0IGZpbGw9Im5vbmUiIGhlaWdodD0iNiIgc3R5bGU9InN0cm9rZTojQzgyOTMwO3N0cm9rZS13aWR0aDoxLjA7IiB3aWR0aD0iNiIgeD0iMjQ2IiB5PSI1MTIuNDkyMiIvPjx0ZXh0IGZpbGw9IiMwMDAwMDAiIGZvbnQtZmFtaWx5PSJzYW5zLXNlcmlmIiBmb250LXNpemU9IjE0IiBsZW5ndGhBZGp1c3Q9InNwYWNpbmciIHRleHRMZW5ndGg9IjYzIiB4PSIyNTgiIHk9IjUxOS43MzQ0Ij4mIzIzMzk4OyYjMjE0OTU7OiBpbnQ8L3RleHQ+PHJlY3QgZmlsbD0ibm9uZSIgaGVpZ2h0PSI2IiBzdHlsZT0ic3Ryb2tlOiNDODI5MzA7c3Ryb2tlLXdpZHRoOjEuMDsiIHdpZHRoPSI2IiB4PSIyNDYiIHk9IjUyNy40NzY2Ii8+PHRleHQgZmlsbD0iIzAwMDAwMCIgZm9udC1mYW1pbHk9InNhbnMtc2VyaWYiIGZvbnQtc2l6ZT0iMTQiIGxlbmd0aEFkanVzdD0ic3BhY2luZyIgdGV4dExlbmd0aD0iNzciIHg9IjI1OCIgeT0iNTM0LjcxODgiPiYjMzU4Mzg7JiMzMTI0MztJRDogaW50PC90ZXh0PjxyZWN0IGZpbGw9Im5vbmUiIGhlaWdodD0iNiIgc3R5bGU9InN0cm9rZTojQzgyOTMwO3N0cm9rZS13aWR0aDoxLjA7IiB3aWR0aD0iNiIgeD0iMjQ2IiB5PSI1NDIuNDYwOSIvPjx0ZXh0IGZpbGw9IiMwMDAwMDAiIGZvbnQtZmFtaWx5PSJzYW5zLXNlcmlmIiBmb250LXNpemU9IjE0IiBsZW5ndGhBZGp1c3Q9InNwYWNpbmciIHRleHRMZW5ndGg9Ijk4IiB4PSIyNTgiIHk9IjU0OS43MDMxIj4mIzM2ODczOyYjMzU4Mzg7JiMyNjEwMjsmIzM4Mzg4OzogRGF0ZTwvdGV4dD48bGluZSBzdHlsZT0ic3Ryb2tlOiMxODE4MTg7c3Ryb2tlLXdpZHRoOjEuMDsiIHgxPSIyMzkiIHgyPSI0NzUiIHkxPSI1NTUuNDUzMSIgeTI9IjU1NS40NTMxIi8+PGVsbGlwc2UgY3g9IjI0OSIgY3k9IjU2OC40NDUzIiBmaWxsPSIjODRCRTg0IiByeD0iMyIgcnk9IjMiIHN0eWxlPSJzdHJva2U6IzAzODA0ODtzdHJva2Utd2lkdGg6MS4wOyIvPjx0ZXh0IGZpbGw9IiMwMDAwMDAiIGZvbnQtZmFtaWx5PSJzYW5zLXNlcmlmIiBmb250LXNpemU9IjE0IiBsZW5ndGhBZGp1c3Q9InNwYWNpbmciIHRleHRMZW5ndGg9IjIxMiIgeD0iMjU4IiB5PSI1NzIuNjg3NSI+JiMyODE1NTsmIzIxMTUyOyYjMzY4NzM7JiMzNTgzODsmIzM1NzYwOyYjMjQ0MDU7KCYjMjMzOTg7JiMyOTk4MzssICYjMzU4Mzg7JiMzMTI0MzspOiB2b2lkPC90ZXh0PjxlbGxpcHNlIGN4PSIyNDkiIGN5PSI1ODMuNDI5NyIgZmlsbD0iIzg0QkU4NCIgcng9IjMiIHJ5PSIzIiBzdHlsZT0ic3Ryb2tlOiMwMzgwNDg7c3Ryb2tlLXdpZHRoOjEuMDsiLz48dGV4dCBmaWxsPSIjMDAwMDAwIiBmb250LWZhbWlseT0ic2Fucy1zZXJpZiIgZm9udC1zaXplPSIxNCIgbGVuZ3RoQWRqdXN0PSJzcGFjaW5nIiB0ZXh0TGVuZ3RoPSIyMTIiIHg9IjI1OCIgeT0iNTg3LjY3MTkiPiYjMjEwMjQ7JiMzODUwMDsmIzM2ODczOyYjMzU4Mzg7JiMzNTc2MDsmIzI0NDA1OygmIzIzMzk4OyYjMjk5ODM7LCAmIzM1ODM4OyYjMzEyNDM7KTogdm9pZDwvdGV4dD48L2c+PCEtLWNsYXNzID8/Pz8tLT48ZyBpZD0iZWxlbV8mIzM1ODQzOyYjMjU5NzI7JiMzNTgzMTsmIzI3NzE0OyI+PHJlY3QgY29kZUxpbmU9IjQ5IiBmaWxsPSIjRjFGMUYxIiBoZWlnaHQ9IjEzNy45MDYzIiBpZD0iJiMzNTg0MzsmIzI1OTcyOyYjMzU4MzE7JiMyNzcxNDsiIHJ4PSIyLjUiIHJ5PSIyLjUiIHN0eWxlPSJzdHJva2U6IzE4MTgxODtzdHJva2Utd2lkdGg6MC41OyIgd2lkdGg9IjE4MiIgeD0iNTExIiB5PSI0NjMiLz48ZWxsaXBzZSBjeD0iNTY5Ljc1IiBjeT0iNDc5IiBmaWxsPSIjQUREMUIyIiByeD0iMTEiIHJ5PSIxMSIgc3R5bGU9InN0cm9rZTojMTgxODE4O3N0cm9rZS13aWR0aDoxLjA7Ii8+PHBhdGggZD0iTTU2Ny4zNzUsNDgzLjI1IEw1NjcuMzc1LDQ4NSBMNTcyLjMxMjUsNDg1IEw1NzIuMzEyNSw0ODMuMjUgTDU2Ny4zNzUsNDgzLjI1IFogTTU2OC4wNjI1LDQ4My45Mzc1IFE1NjguMDYyNSw0ODMuOTM3NSA1NjguMDYyNSw0NzQuNzUgTDU2Ni4zMTI1LDQ3NC43NSBRNTY2LjMxMjUsNDc0Ljc1IDU2Ni4zMTI1LDQ4My45Mzc1IEw1NjguMDYyNSw0ODMuOTM3NSBaIE01NzEuNjI1LDQ4My45Mzc1IEw1NzMuMzc1LDQ4My45Mzc1IFE1NzMuMzc1LDQ4My45Mzc1IDU3My4zNzUsNDgxLjEyNSBMNTcxLjYyNSw0ODEuMTI1IFE1NzEuNjI1LDQ4MS4xMjUgNTcxLjYyNSw0ODMuOTM3NSBaIE01NzEuNjI1LDQ3NC43NSBRNTcxLjYyNSw0NzQuNzUgNTcxLjYyNSw0NzcuNTYyNSBMNTczLjM3NSw0NzcuNTYyNSBRNTczLjM3NSw0NzcuNTYyNSA1NzMuMzc1LDQ3NC43NSBMNTcxLjYyNSw0NzQuNzUgWiBNNTY3LjM3NSw0NzUuNDM3NSBMNTcyLjMxMjUsNDc1LjQzNzUgTDU3Mi4zMTI1LDQ3My42ODc1IEw1NjcuMzc1LDQ3My42ODc1IEw1NjcuMzc1LDQ3NS40Mzc1IFogIiBmaWxsPSIjMDAwMDAwIi8+PHRleHQgZmlsbD0iIzAwMDAwMCIgZm9udC1mYW1pbHk9InNhbnMtc2VyaWYiIGZvbnQtc2l6ZT0iMTQiIGxlbmd0aEFkanVzdD0ic3BhY2luZyIgdGV4dExlbmd0aD0iNTYiIHg9IjU5MC4yNSIgeT0iNDg0Ljc0MjIiPiYjMzU4NDM7JiMyNTk3MjsmIzM1ODMxOyYjMjc3MTQ7PC90ZXh0PjxsaW5lIHN0eWxlPSJzdHJva2U6IzE4MTgxODtzdHJva2Utd2lkdGg6MC41OyIgeDE9IjUxMiIgeDI9IjY5MiIgeTE9IjQ5NSIgeTI9IjQ5NSIvPjxyZWN0IGZpbGw9Im5vbmUiIGhlaWdodD0iNiIgc3R5bGU9InN0cm9rZTojQzgyOTMwO3N0cm9rZS13aWR0aDoxLjA7IiB3aWR0aD0iNiIgeD0iNTE5IiB5PSI1MDQuOTkyMiIvPjx0ZXh0IGZpbGw9IiMwMDAwMDAiIGZvbnQtZmFtaWx5PSJzYW5zLXNlcmlmIiBmb250LXNpemU9IjE0IiBsZW5ndGhBZGp1c3Q9InNwYWNpbmciIHRleHRMZW5ndGg9Ijc3IiB4PSI1MzEiIHk9IjUxMi4yMzQ0Ij4mIzM1ODMxOyYjMjc3MTQ7SUQ6IGludDwvdGV4dD48cmVjdCBmaWxsPSJub25lIiBoZWlnaHQ9IjYiIHN0eWxlPSJzdHJva2U6I0M4MjkzMDtzdHJva2Utd2lkdGg6MS4wOyIgd2lkdGg9IjYiIHg9IjUxOSIgeT0iNTE5Ljk3NjYiLz48dGV4dCBmaWxsPSIjMDAwMDAwIiBmb250LWZhbWlseT0ic2Fucy1zZXJpZiIgZm9udC1zaXplPSIxNCIgbGVuZ3RoQWRqdXN0PSJzcGFjaW5nIiB0ZXh0TGVuZ3RoPSI3NyIgeD0iNTMxIiB5PSI1MjcuMjE4OCI+JiMyNTk0NTsmIzI0MDcyO0lEOiBpbnQ8L3RleHQ+PHJlY3QgZmlsbD0ibm9uZSIgaGVpZ2h0PSI2IiBzdHlsZT0ic3Ryb2tlOiNDODI5MzA7c3Ryb2tlLXdpZHRoOjEuMDsiIHdpZHRoPSI2IiB4PSI1MTkiIHk9IjUzNC45NjA5Ii8+PHRleHQgZmlsbD0iIzAwMDAwMCIgZm9udC1mYW1pbHk9InNhbnMtc2VyaWYiIGZvbnQtc2l6ZT0iMTQiIGxlbmd0aEFkanVzdD0ic3BhY2luZyIgdGV4dExlbmd0aD0iNzciIHg9IjUzMSIgeT0iNTQyLjIwMzEiPiYjMzU4Mzg7JiMzMTI0MztJRDogaW50PC90ZXh0PjxyZWN0IGZpbGw9Im5vbmUiIGhlaWdodD0iNiIgc3R5bGU9InN0cm9rZTojQzgyOTMwO3N0cm9rZS13aWR0aDoxLjA7IiB3aWR0aD0iNiIgeD0iNTE5IiB5PSI1NDkuOTQ1MyIvPjx0ZXh0IGZpbGw9IiMwMDAwMDAiIGZvbnQtZmFtaWx5PSJzYW5zLXNlcmlmIiBmb250LXNpemU9IjE0IiBsZW5ndGhBZGp1c3Q9InNwYWNpbmciIHRleHRMZW5ndGg9IjExMiIgeD0iNTMxIiB5PSI1NTcuMTg3NSI+JiMzNTg0MzsmIzI1OTcyOyYjMjE0MDc7JiMyMjI0MDs6IFN0cmluZzwvdGV4dD48bGluZSBzdHlsZT0ic3Ryb2tlOiMxODE4MTg7c3Ryb2tlLXdpZHRoOjEuMDsiIHgxPSI1MTIiIHgyPSI2OTIiIHkxPSI1NjIuOTM3NSIgeTI9IjU2Mi45Mzc1Ii8+PGVsbGlwc2UgY3g9IjUyMiIgY3k9IjU3NS45Mjk3IiBmaWxsPSIjODRCRTg0IiByeD0iMyIgcnk9IjMiIHN0eWxlPSJzdHJva2U6IzAzODA0ODtzdHJva2Utd2lkdGg6MS4wOyIvPjx0ZXh0IGZpbGw9IiMwMDAwMDAiIGZvbnQtZmFtaWx5PSJzYW5zLXNlcmlmIiBmb250LXNpemU9IjE0IiBsZW5ndGhBZGp1c3Q9InNwYWNpbmciIHRleHRMZW5ndGg9IjExNCIgeD0iNTMxIiB5PSI1ODAuMTcxOSI+JiMyNTU1MjsmIzIwMTMyOyYjMzU4MzE7JiMyNzcxNDsoKTogdm9pZDwvdGV4dD48ZWxsaXBzZSBjeD0iNTIyIiBjeT0iNTkwLjkxNDEiIGZpbGw9IiM4NEJFODQiIHJ4PSIzIiByeT0iMyIgc3R5bGU9InN0cm9rZTojMDM4MDQ4O3N0cm9rZS13aWR0aDoxLjA7Ii8+PHRleHQgZmlsbD0iIzAwMDAwMCIgZm9udC1mYW1pbHk9InNhbnMtc2VyaWYiIGZvbnQtc2l6ZT0iMTQiIGxlbmd0aEFkanVzdD0ic3BhY2luZyIgdGV4dExlbmd0aD0iMTU2IiB4PSI1MzEiIHk9IjU5NS4xNTYzIj4mIzI2NTk3OyYjMzA0NzU7JiMzNTgzMTsmIzI3NzE0OyYjMjkzNjY7JiMyNDU3NzsoKTogU3RyaW5nPC90ZXh0PjwvZz48IS0tY2xhc3MgPz8/LS0+PGcgaWQ9ImVsZW1fJiMzNTgzODsmIzMxMjQzOyYjMzQ5MjA7Ij48cmVjdCBjb2RlTGluZT0iNTkiIGZpbGw9IiNGMUYxRjEiIGhlaWdodD0iOTIuOTUzMSIgaWQ9IiYjMzU4Mzg7JiMzMTI0MzsmIzM0OTIwOyIgcng9IjIuNSIgcnk9IjIuNSIgc3R5bGU9InN0cm9rZTojMTgxODE4O3N0cm9rZS13aWR0aDowLjU7IiB3aWR0aD0iMTk2IiB4PSI3IiB5PSI0ODUuNSIvPjxlbGxpcHNlIGN4PSI3OS43NSIgY3k9IjUwMS41IiBmaWxsPSIjQUREMUIyIiByeD0iMTEiIHJ5PSIxMSIgc3R5bGU9InN0cm9rZTojMTgxODE4O3N0cm9rZS13aWR0aDoxLjA7Ii8+PHBhdGggZD0iTTc3LjM3NSw1MDUuNzUgTDc3LjM3NSw1MDcuNSBMODIuMzEyNSw1MDcuNSBMODIuMzEyNSw1MDUuNzUgTDc3LjM3NSw1MDUuNzUgWiBNNzguMDYyNSw1MDYuNDM3NSBRNzguMDYyNSw1MDYuNDM3NSA3OC4wNjI1LDQ5Ny4yNSBMNzYuMzEyNSw0OTcuMjUgUTc2LjMxMjUsNDk3LjI1IDc2LjMxMjUsNTA2LjQzNzUgTDc4LjA2MjUsNTA2LjQzNzUgWiBNODEuNjI1LDUwNi40Mzc1IEw4My4zNzUsNTA2LjQzNzUgUTgzLjM3NSw1MDYuNDM3NSA4My4zNzUsNTAzLjYyNSBMODEuNjI1LDUwMy42MjUgUTgxLjYyNSw1MDMuNjI1IDgxLjYyNSw1MDYuNDM3NSBaIE04MS42MjUsNDk3LjI1IFE4MS42MjUsNDk3LjI1IDgxLjYyNSw1MDAuMDYyNSBMODMuMzc1LDUwMC4wNjI1IFE4My4zNzUsNTAwLjA2MjUgODMuMzc1LDQ5Ny4yNSBMODEuNjI1LDQ5Ny4yNSBaIE03Ny4zNzUsNDk3LjkzNzUgTDgyLjMxMjUsNDk3LjkzNzUgTDgyLjMxMjUsNDk2LjE4NzUgTDc3LjM3NSw0OTYuMTg3NSBMNzcuMzc1LDQ5Ny45Mzc1IFogIiBmaWxsPSIjMDAwMDAwIi8+PHRleHQgZmlsbD0iIzAwMDAwMCIgZm9udC1mYW1pbHk9InNhbnMtc2VyaWYiIGZvbnQtc2l6ZT0iMTQiIGxlbmd0aEFkanVzdD0ic3BhY2luZyIgdGV4dExlbmd0aD0iNDIiIHg9IjEwMC4yNSIgeT0iNTA3LjI0MjIiPiYjMzU4Mzg7JiMzMTI0MzsmIzM0OTIwOzwvdGV4dD48bGluZSBzdHlsZT0ic3Ryb2tlOiMxODE4MTg7c3Ryb2tlLXdpZHRoOjAuNTsiIHgxPSI4IiB4Mj0iMjAyIiB5MT0iNTE3LjUiIHkyPSI1MTcuNSIvPjxyZWN0IGZpbGw9Im5vbmUiIGhlaWdodD0iNiIgc3R5bGU9InN0cm9rZTojQzgyOTMwO3N0cm9rZS13aWR0aDoxLjA7IiB3aWR0aD0iNiIgeD0iMTUiIHk9IjUyNy40OTIyIi8+PHRleHQgZmlsbD0iIzAwMDAwMCIgZm9udC1mYW1pbHk9InNhbnMtc2VyaWYiIGZvbnQtc2l6ZT0iMTQiIGxlbmd0aEFkanVzdD0ic3BhY2luZyIgdGV4dExlbmd0aD0iNjMiIHg9IjI3IiB5PSI1MzQuNzM0NCI+JiMyMzM5ODsmIzIxNDk1OzogaW50PC90ZXh0PjxyZWN0IGZpbGw9Im5vbmUiIGhlaWdodD0iNiIgc3R5bGU9InN0cm9rZTojQzgyOTMwO3N0cm9rZS13aWR0aDoxLjA7IiB3aWR0aD0iNiIgeD0iMTUiIHk9IjU0Mi40NzY2Ii8+PHRleHQgZmlsbD0iIzAwMDAwMCIgZm9udC1mYW1pbHk9InNhbnMtc2VyaWYiIGZvbnQtc2l6ZT0iMTQiIGxlbmd0aEFkanVzdD0ic3BhY2luZyIgdGV4dExlbmd0aD0iMTQwIiB4PSIyNyIgeT0iNTQ5LjcxODgiPiYjMzU4Mzg7JiMzMTI0MzsmIzIxMDE1OyYjMzQ5MjA7OiBMaXN0Jmx0OyYjMzU4Mzg7JiMzMTI0MzsmZ3Q7PC90ZXh0PjxsaW5lIHN0eWxlPSJzdHJva2U6IzE4MTgxODtzdHJva2Utd2lkdGg6MS4wOyIgeDE9IjgiIHgyPSIyMDIiIHkxPSI1NTUuNDY4OCIgeTI9IjU1NS40Njg4Ii8+PGVsbGlwc2UgY3g9IjE4IiBjeT0iNTY4LjQ2MDkiIGZpbGw9IiM4NEJFODQiIHJ4PSIzIiByeT0iMyIgc3R5bGU9InN0cm9rZTojMDM4MDQ4O3N0cm9rZS13aWR0aDoxLjA7Ii8+PHRleHQgZmlsbD0iIzAwMDAwMCIgZm9udC1mYW1pbHk9InNhbnMtc2VyaWYiIGZvbnQtc2l6ZT0iMTQiIGxlbmd0aEFkanVzdD0ic3BhY2luZyIgdGV4dExlbmd0aD0iMTcwIiB4PSIyNyIgeT0iNTcyLjcwMzEiPiYjMjY1OTc7JiMzMDQ3NTsmIzM1ODM4OyYjMzEyNDM7JiMzNDkyMDsoKTogTGlzdCZsdDsmIzM1ODM4OyYjMzEyNDM7Jmd0OzwvdGV4dD48L2c+PCEtLWxpbmsgPz8gdG8gPz8tLT48ZyBpZD0ibGlua18mIzIzMzk4OyYjMjk5ODM7XyYjMzY4NzM7JiMzNTgzODsiPjxwYXRoIGNvZGVMaW5lPSI2NiIgZD0iTTIwNy44NywzODguMTkgQzIzNi4yNiw0MTUuMzggMjY3LjI0LDQ0NS4wNCAyOTMuNTcsNDcwLjI2ICIgZmlsbD0ibm9uZSIgaWQ9IiYjMjMzOTg7JiMyOTk4MzstJiMzNjg3MzsmIzM1ODM4OyIgc3R5bGU9InN0cm9rZTojMTgxODE4O3N0cm9rZS13aWR0aDoxLjA7Ii8+PHRleHQgZmlsbD0iIzAwMDAwMCIgZm9udC1mYW1pbHk9InNhbnMtc2VyaWYiIGZvbnQtc2l6ZT0iMTMiIGxlbmd0aEFkanVzdD0ic3BhY2luZyIgdGV4dExlbmd0aD0iNTIiIHg9IjI1NSIgeT0iNDMxLjI4OTEiPiYjMzY4NzM7JiMzNTgzODsmIzIwODUxOyYjMzE5OTU7PC90ZXh0Pjx0ZXh0IGZpbGw9IiMwMDAwMDAiIGZvbnQtZmFtaWx5PSJzYW5zLXNlcmlmIiBmb250LXNpemU9IjEzIiBsZW5ndGhBZGp1c3Q9InNwYWNpbmciIHRleHRMZW5ndGg9IjciIHg9IjIwNy43NzQxIiB5PSI0MDguMDMyNCI+MTwvdGV4dD48dGV4dCBmaWxsPSIjMDAwMDAwIiBmb250LWZhbWlseT0ic2Fucy1zZXJpZiIgZm9udC1zaXplPSIxMyIgbGVuZ3RoQWRqdXN0PSJzcGFjaW5nIiB0ZXh0TGVuZ3RoPSI3IiB4PSIyNzcuOTk0NiIgeT0iNDYwLjg2OTQiPk48L3RleHQ+PC9nPjwhLS1saW5rID8/IHRvID8/Py0tPjxnIGlkPSJsaW5rXyYjMjMzOTg7JiMyOTk4MztfJiMzNTgzODsmIzMxMjQzOyYjMzQ5MjA7Ij48cGF0aCBjb2RlTGluZT0iNjciIGQ9Ik0xMTUuMTEsMzg4LjE5IEMxMTIuNzgsNDIxLjA0IDExMC4yLDQ1Ny41MSAxMDguMjMsNDg1LjM3ICIgZmlsbD0ibm9uZSIgaWQ9IiYjMjMzOTg7JiMyOTk4MzstJiMzNTgzODsmIzMxMjQzOyYjMzQ5MjA7IiBzdHlsZT0ic3Ryb2tlOiMxODE4MTg7c3Ryb2tlLXdpZHRoOjEuMDsiLz48dGV4dCBmaWxsPSIjMDAwMDAwIiBmb250LWZhbWlseT0ic2Fucy1zZXJpZiIgZm9udC1zaXplPSIxMyIgbGVuZ3RoQWRqdXN0PSJzcGFjaW5nIiB0ZXh0TGVuZ3RoPSIyNiIgeD0iMTE0IiB5PSI0MzEuMjg5MSI+JiMyNTMxNzsmIzI2Mzc3OzwvdGV4dD48dGV4dCBmaWxsPSIjMDAwMDAwIiBmb250LWZhbWlseT0ic2Fucy1zZXJpZiIgZm9udC1zaXplPSIxMyIgbGVuZ3RoQWRqdXN0PSJzcGFjaW5nIiB0ZXh0TGVuZ3RoPSI3IiB4PSIxMDcuMzMyNCIgeT0iNDA4LjAzMjQiPjE8L3RleHQ+PHRleHQgZmlsbD0iIzAwMDAwMCIgZm9udC1mYW1pbHk9InNhbnMtc2VyaWYiIGZvbnQtc2l6ZT0iMTMiIGxlbmd0aEFkanVzdD0ic3BhY2luZyIgdGV4dExlbmd0aD0iNyIgeD0iMTAxLjE4NTMiIHk9IjQ3NS45MzkiPjE8L3RleHQ+PC9nPjwhLS1saW5rID8/IHRvID8/LS0+PGcgaWQ9ImxpbmtfJiMyNTk0NTsmIzI0MDcyO18mIzM1ODM4OyYjMzEyNDM7Ij48cGF0aCBjb2RlTGluZT0iNjgiIGQ9Ik0zNjIsMTQ1LjExIEMzNjIsMTc2LjA1IDM2MiwyMTIuMzQgMzYyLDI0Mi4zMiAiIGZpbGw9Im5vbmUiIGlkPSImIzI1OTQ1OyYjMjQwNzI7LSYjMzU4Mzg7JiMzMTI0MzsiIHN0eWxlPSJzdHJva2U6IzE4MTgxODtzdHJva2Utd2lkdGg6MS4wOyIvPjx0ZXh0IGZpbGw9IiMwMDAwMDAiIGZvbnQtZmFtaWx5PSJzYW5zLXNlcmlmIiBmb250LXNpemU9IjEzIiBsZW5ndGhBZGp1c3Q9InNwYWNpbmciIHRleHRMZW5ndGg9IjI2IiB4PSIzNjMiIHk9IjE4OC4yODkxIj4mIzI1NDgwOyYjMzU4Mzg7PC90ZXh0Pjx0ZXh0IGZpbGw9IiMwMDAwMDAiIGZvbnQtZmFtaWx5PSJzYW5zLXNlcmlmIiBmb250LXNpemU9IjEzIiBsZW5ndGhBZGp1c3Q9InNwYWNpbmciIHRleHRMZW5ndGg9IjciIHg9IjM1NC42MzkxIiB5PSIxNjUuMjQ4MyI+MTwvdGV4dD48dGV4dCBmaWxsPSIjMDAwMDAwIiBmb250LWZhbWlseT0ic2Fucy1zZXJpZiIgZm9udC1zaXplPSIxMyIgbGVuZ3RoQWRqdXN0PSJzcGFjaW5nIiB0ZXh0TGVuZ3RoPSI3IiB4PSIzNTQuNTUxNiIgeT0iMjMyLjkzNzEiPk48L3RleHQ+PC9nPjwhLS1saW5rID8/PyB0byA/Pz8/LS0+PGcgaWQ9ImxpbmtfJiMzMTY0OTsmIzI5NzAyOyYjMjE1OTI7XyYjMzU4NDM7JiMyNTk3MjsmIzM1ODMxOyYjMjc3MTQ7Ij48cGF0aCBjb2RlTGluZT0iNjkiIGQ9Ik02MDIsMzU4LjI3IEM2MDIsMzg5LjQ2IDYwMiw0MjkuMTcgNjAyLDQ2Mi42NSAiIGZpbGw9Im5vbmUiIGlkPSImIzMxNjQ5OyYjMjk3MDI7JiMyMTU5MjstJiMzNTg0MzsmIzI1OTcyOyYjMzU4MzE7JiMyNzcxNDsiIHN0eWxlPSJzdHJva2U6IzE4MTgxODtzdHJva2Utd2lkdGg6MS4wOyIvPjx0ZXh0IGZpbGw9IiMwMDAwMDAiIGZvbnQtZmFtaWx5PSJzYW5zLXNlcmlmIiBmb250LXNpemU9IjEzIiBsZW5ndGhBZGp1c3Q9InNwYWNpbmciIHRleHRMZW5ndGg9IjI2IiB4PSI2MDMiIHk9IjQzMS4yODkxIj4mIzIzNDU3OyYjMjY2ODA7PC90ZXh0Pjx0ZXh0IGZpbGw9IiMwMDAwMDAiIGZvbnQtZmFtaWx5PSJzYW5zLXNlcmlmIiBmb250LXNpemU9IjEzIiBsZW5ndGhBZGp1c3Q9InNwYWNpbmciIHRleHRMZW5ndGg9IjciIHg9IjU5NC41NTE2IiB5PSIzNzguNDA3OCI+MTwvdGV4dD48dGV4dCBmaWxsPSIjMDAwMDAwIiBmb250LWZhbWlseT0ic2Fucy1zZXJpZiIgZm9udC1zaXplPSIxMyIgbGVuZ3RoQWRqdXN0PSJzcGFjaW5nIiB0ZXh0TGVuZ3RoPSI3IiB4PSI1OTQuNTk1MyIgeT0iNDUzLjIyNzIiPk48L3RleHQ+PC9nPjwhLS1saW5rID8/IHRvID8/LS0+PGcgaWQ9ImxpbmtfJiMzNTgzODsmIzMxMjQzO18mIzM2ODczOyYjMzU4Mzg7Ij48cGF0aCBjb2RlTGluZT0iNzAiIGQ9Ik0zNjAuNjYsMzY1LjU2IEMzNTkuOTQsMzk3Ljk5IDM1OS4wNiw0MzcuODIgMzU4LjM0LDQ3MC4yNyAiIGZpbGw9Im5vbmUiIGlkPSImIzM1ODM4OyYjMzEyNDM7LSYjMzY4NzM7JiMzNTgzODsiIHN0eWxlPSJzdHJva2U6IzE4MTgxODtzdHJva2Utd2lkdGg6MS4wOyIvPjx0ZXh0IGZpbGw9IiMwMDAwMDAiIGZvbnQtZmFtaWx5PSJzYW5zLXNlcmlmIiBmb250LXNpemU9IjEzIiBsZW5ndGhBZGp1c3Q9InNwYWNpbmciIHRleHRMZW5ndGg9IjI2IiB4PSIzNjAiIHk9IjQzMS4yODkxIj4mIzIxMjUzOyYjMjE1NDc7PC90ZXh0Pjx0ZXh0IGZpbGw9IiMwMDAwMDAiIGZvbnQtZmFtaWx5PSJzYW5zLXNlcmlmIiBmb250LXNpemU9IjEzIiBsZW5ndGhBZGp1c3Q9InNwYWNpbmciIHRleHRMZW5ndGg9IjciIHg9IjM1My4xMDA0IiB5PSIzODUuNzc1OSI+MTwvdGV4dD48dGV4dCBmaWxsPSIjMDAwMDAwIiBmb250LWZhbWlseT0ic2Fucy1zZXJpZiIgZm9udC1zaXplPSIxMyIgbGVuZ3RoQWRqdXN0PSJzcGFjaW5nIiB0ZXh0TGVuZ3RoPSI3IiB4PSIzNTEuMDYzMyIgeT0iNDYwLjg4MDciPk48L3RleHQ+PC9nPjwhLS1saW5rID8/IHRvID8/Pz8tLT48ZyBpZD0ibGlua18mIzM1ODM4OyYjMzEyNDM7XyYjMzU4NDM7JiMyNTk3MjsmIzM1ODMxOyYjMjc3MTQ7Ij48cGF0aCBjb2RlTGluZT0iNzEiIGQ9Ik00MjYuMzIsMzY1LjU2IEM0NTguMTEsMzk1LjUxIDQ5Ni42MSw0MzEuNzYgNTI5LjQ2LDQ2Mi42OSAiIGZpbGw9Im5vbmUiIGlkPSImIzM1ODM4OyYjMzEyNDM7LSYjMzU4NDM7JiMyNTk3MjsmIzM1ODMxOyYjMjc3MTQ7IiBzdHlsZT0ic3Ryb2tlOiMxODE4MTg7c3Ryb2tlLXdpZHRoOjEuMDsiLz48dGV4dCBmaWxsPSIjMDAwMDAwIiBmb250LWZhbWlseT0ic2Fucy1zZXJpZiIgZm9udC1zaXplPSIxMyIgbGVuZ3RoQWRqdXN0PSJzcGFjaW5nIiB0ZXh0TGVuZ3RoPSIyNiIgeD0iNDk3IiB5PSI0MzEuMjg5MSI+JiMzNTg0MzsmIzI1OTcyOzwvdGV4dD48dGV4dCBmaWxsPSIjMDAwMDAwIiBmb250LWZhbWlseT0ic2Fucy1zZXJpZiIgZm9udC1zaXplPSIxMyIgbGVuZ3RoQWRqdXN0PSJzcGFjaW5nIiB0ZXh0TGVuZ3RoPSI3IiB4PSI0MjYuMzUyMyIgeT0iMzg1Ljc3NTkiPjE8L3RleHQ+PHRleHQgZmlsbD0iIzAwMDAwMCIgZm9udC1mYW1pbHk9InNhbnMtc2VyaWYiIGZvbnQtc2l6ZT0iMTMiIGxlbmd0aEFkanVzdD0ic3BhY2luZyIgdGV4dExlbmd0aD0iNyIgeD0iNTEzLjY2NzkiIHk9IjQ1My4yNzE4Ij5OPC90ZXh0PjwvZz48IS0tU1JDPVtaTEpCSmk5MDVEdHRBb1FpQ0NoMlJNRFNrSjRuUmxtMk5wNGFIWDlmdDFXSnFLMkFBREdlOGNoSU9hMUNaMUczaUdYSFZ1T3hLX3gyUU1UZUl3U0lEZnNVc3BGdGRsbGd6bHZjRWV0V19PTlN3a1hPR1laWDAyWFBDYWVVQTBtdFJxMnhhajY2U2ZXeXM3RERtenhEaUZTbU9PQWxCa2F0V3dPNFZTbVpLWHQwVHBhLTl3RWpMNmhWRE02ek9QbEZqbGIzTldsRVh4TGFNYmJZU0RhYlo0eHA1Q1FQWUhBRUtpY1R5S3RvTDYxc2tfT1FrYW1qb3pBOTk2c3hFVTVvNU5lZ3B1YzFyUEtQaVhlenZxM05QcWc0T2lXc1UyQVlNZEJSaUtzQlFza1Z1dDh0SEZBcWFiUURRM2N1bGtUb0ZKblR5Vl8yTVpMaXoyT1prbVZMV3BfRVhGWUNvT0NwQzE1UGtvQkR6Y0l4d1AyZUVQeVk1OVhmaXVpTWJFd09uLTVsM01UQ0hvVnR1dUxkX1Z2ZF80R3ZaOHVoZHdEQUxxT2hjeWdrN24xUjB4V202Q0RralB0MmlFNVVHNkEzRzNMNnJWZUNQQnpHV0lmd3ZOOTBLOXl1UjY4RXAxNEtUTldxbjlSWWFaUmlydmRkVURHMkUxXzhuSVMtcEtKTHFyazdnSUs1aks4Zm1sZ0Q5S25URE5WRi01eVpqWFlaYnIxaUZKUGtmQ25WOERpWGRLNk9IbXpWZThubWVPNlZ5WDlWcnUwcEZmSUtLTEpmay1HbElQMEtSOFpDMXJfWUx3RUttTUtNakJTOEhpV0pXdHkwXS0tPjwvZz48L3N2Zz4=;" vertex="1" parent="1">
            <mxGeometry x="180" y="1910" width="721" height="607" as="geometry" />
          </mxCell>
        </UserObject>
      </root>
    </mxGraphModel>
  </diagram>
</mxfile>
